<svg width="122" height="134" fill="none" xmlns="http://www.w3.org/2000/svg"><g clip-path="url(#clip0)" fill="#0BA14B"><path d="M0 133.38v-11.097c0-.142.141-.212.212-.212h9.825c.141 0 .212.141.212.212v11.097c0 .141-.141.212-.212.212H7.705c-.142 0-.213-.141-.213-.212v-8.694c0-.141-.14-.212-.212-.212H3.11c-.141 0-.212.141-.212.212v8.694c0 .141-.141.212-.212.212H.212c-.07.071-.212-.071-.212-.212zm12.44-6.856c0-3.11 2.12-4.665 5.372-4.665 3.322 0 5.372 1.555 5.372 4.665v2.686c0 3.11-2.12 4.594-5.372 4.594-3.251 0-5.372-1.414-5.372-4.594v-2.686zm2.969 2.403c0 1.626.707 2.686 2.474 2.686 1.767 0 2.474-1.06 2.474-2.686v-2.121c0-1.555-.636-2.686-2.474-2.686-1.697 0-2.474 1.131-2.474 2.686v2.121zm19.226-6.644v11.097c0 .141-.141.212-.212.212H32.09c-.14 0-.212-.141-.212-.212v-8.765c0-.141-.141-.212-.212-.212h-2.403c-.141 0-.212.071-.212.212-.141 5.231-.777 9.189-3.675 9.189-.283 0-.778-.071-1.06-.141-.072 0-.142-.071-.213-.212l-.283-1.767c0-.142.071-.283.212-.283h.354c1.626 0 1.908-3.534 1.908-9.118 0-.142.142-.212.212-.212h7.917c.141 0 .212.07.212.212zm5.443 0v6.22c0 .212.282.353.424.141l4.523-6.503c.071-.07.142-.07.212-.07h1.98c.141 0 .212.141.212.212v11.097c0 .141-.142.212-.212.212h-2.333c-.141 0-.212-.141-.212-.212v-6.22c0-.212-.283-.354-.424-.142l-4.524 6.503c-.07.071-.141.071-.212.071h-2.05c-.141 0-.212-.141-.212-.212v-11.097c0-.142.142-.212.212-.212h2.333c.212 0 .283.07.283.212zm12.793 3.11l-.282 8.058c0 .141-.142.212-.212.212h-2.404c-.141 0-.282-.142-.212-.283l.92-11.097c0-.142.14-.212.211-.212h3.04c.07 0 .212.07.212.141l2.686 8.553h.07l2.686-8.553c0-.071.142-.141.212-.141h3.04c.141 0 .212.07.212.212l.919 11.097c0 .141-.071.283-.212.283h-2.404c-.141 0-.212-.071-.212-.212l-.212-8.058h-.141l-2.615 8.128c0 .071-.142.142-.212.142h-2.262c-.071 0-.212-.071-.212-.142l-2.616-8.128zm16.469 6.079h4.383c.141 0 .212.141.212.212v1.696c0 .141-.141.212-.212.212h-7.21c-.141 0-.212-.141-.212-.212v-11.097c0-.142.142-.212.212-.212h7.21c.141 0 .212.141.212.212v1.696c0 .141-.141.212-.212.212h-4.382c-.142 0-.212.141-.212.212v1.909c0 .141.141.212.212.212h3.534c.141 0 .212.141.212.212v1.696c0 .142-.142.212-.212.212H69.34c-.142 0-.212.142-.212.212v2.191c-.071.283.07.425.212.425zm10.957-9.401c3.322 0 4.736 1.06 4.736 4.099 0 3.04-1.414 4.171-4.736 4.171h-1.131c-.142 0-.212.141-.212.212v2.827c0 .141-.142.212-.212.212h-2.404c-.141 0-.212-.141-.212-.212v-11.097c0-.142.142-.212.212-.212h3.959zm-1.343 5.796c0 .141.141.212.212.212h1.13c1.06 0 1.838-.283 1.838-2.05 0-1.484-.636-1.838-1.837-1.838h-1.131c-.142 0-.212.141-.212.212v3.464zm11.026-1.626c0 .141.142.212.212.212h2.262c2.545 0 3.393 1.202 3.393 3.534 0 2.191-.777 3.605-3.463 3.605h-5.019c-.141 0-.212-.141-.212-.212v-11.097c0-.142.141-.212.212-.212h7.351c.142 0 .212.141.212.212v1.696c0 .141-.141.212-.212.212h-4.524c-.141 0-.212.141-.212.212v1.838zm0 2.474v2.757c0 .141.142.212.212.212h1.414c.919 0 1.484-.495 1.484-1.626 0-1.131-.565-1.626-1.484-1.626h-1.414c-.07 0-.212.142-.212.283zm12.37 4.948h-3.958c-.142 0-.212-.142-.212-.212v-11.168c0-.142.14-.212.212-.212h2.332c.142 0 .212.141.212.212v3.746c0 .141.142.283.283.212.636-.071 1.272-.141 1.838-.141 2.827 0 3.958 1.343 3.958 3.746.071 2.686-1.272 3.817-4.665 3.817zm0-5.584c-.354 0-.778 0-1.131.07-.141 0-.212.142-.212.212v3.111c0 .141.141.212.212.212h1.131c1.202 0 1.838-.354 1.838-1.838 0-1.343-.707-1.767-1.838-1.767zm6.291 5.584h2.332c.142 0 .212-.142.212-.212v-11.168c0-.142-.141-.212-.212-.212h-2.332c-.142 0-.212.141-.212.212v11.097c0 .141.07.283.212.283zm4.665-11.592h8.482c.141 0 .212.141.212.212v1.837c0 .142-.141.212-.212.212h-2.545c-.141 0-.212.142-.212.213v8.764c0 .142-.141.212-.212.212h-2.332c-.142 0-.212-.141-.212-.212v-8.764c0-.142-.142-.213-.212-.213h-2.545c-.141 0-.212-.141-.212-.212v-1.837c-.283-.142-.141-.212 0-.212zM37.674 12.935C44.036 9.26 55.628 2.615 59.657.353a3.015 3.015 0 0 1 2.898 0l47.57 27.002c.919.494 1.484 1.484 1.484 2.544v54.002c0 1.06-.565 1.98-1.484 2.545l-21.77 12.44c-1.909 1.131-4.383-.282-4.383-2.544v-50.61c0-1.06-.565-2.05-1.484-2.544L37.745 18.024c-1.98-1.13-1.98-3.958-.07-5.089z"/><path d="M36.968 30.818l33.998 18.873c.92.494 1.485 1.484 1.485 2.544v38.31c0 1.061-.566 1.98-1.414 2.475L51.6 104.47c-1.908 1.131-4.382-.282-4.382-2.473V66.443c0-1.06-.566-1.98-1.485-2.545L14.985 46.439c-1.98-1.13-1.98-3.958 0-5.09L34.14 30.748c.848-.424 1.909-.424 2.828.071z"/><path d="M10.461 61.919v22.265c0 1.06.566 1.98 1.484 2.545l19.58 11.168c1.908 1.13 4.312-.283 4.312-2.545V73.087c0-1.06-.566-1.98-1.485-2.545l-19.58-11.097c-1.908-1.131-4.31.283-4.31 2.474z"/></g><defs><clipPath id="clip0"><path fill="#fff" d="M0 0h122v133.804H0z"/></clipPath></defs></svg>