<svg width="85" height="117" fill="none" xmlns="http://www.w3.org/2000/svg"><path d="M.176 115.594V95.112c0-.352 0-.615.087-.791.176-.264.527-.352.966-.352h10.274c.527 0 .79.088.966.264.088.176.176.44.176.879v2.461c0 .264-.088.44-.264.528-.175.175-.439.175-.79.175H5.444c-.351 0-.614.176-.614.528v3.428c0 .352.087.615.35.615h5.094c.175 0 .351.088.527.176.175.088.175.264.175.44v2.989c0 .439-.175.615-.615.615H5.444c-.263 0-.439.176-.439.527v7.912c0 .527-.088.791-.263.967-.176.087-.44.175-.878.175H1.317c-.351 0-.615 0-.79-.088-.176-.175-.351-.439-.351-.966zm14.488-7.121v-6.153c0-2.198.264-3.868.878-5.098 1.054-2.286 3.161-3.517 6.235-3.517 2.898 0 4.917 1.055 5.97 3.077.703 1.319 1.055 3.165 1.055 5.45v6.153c0 2.11-.264 3.78-.878 5.011-1.054 2.373-3.162 3.516-6.235 3.516-2.37 0-4.215-.703-5.356-2.11-1.054-1.318-1.669-3.428-1.669-6.329zm9.396-.615v-5.011c0-1.67-.088-2.812-.263-3.428-.264-.967-.966-1.406-2.02-1.406s-1.669.44-2.02 1.406c-.175.616-.263 1.758-.263 3.516v5.099c0 1.67.088 2.813.263 3.428.264.967.966 1.406 2.02 1.406s1.668-.439 2.02-1.406c.175-.703.263-1.846.263-3.604zm8.342-13.888h5.97c2.723 0 4.83.702 6.148 2.109 1.141 1.143 1.668 2.55 1.668 4.219 0 1.583-.351 2.813-1.142 3.868-.614.879-1.317 1.406-2.195 1.758-.175 0-.263.176-.263.264 0 .088.088.264.175.527l4.04 8.791c.088.175.088.351.088.439 0 .44-.264.703-.79.703h-3.338c-.439 0-.79-.088-.965-.263-.088-.088-.176-.176-.264-.352l-3.864-8.439c-.175-.263-.35-.439-.702-.439h-.615c-.263 0-.351.088-.351.351v8.088c0 .527-.088.791-.263.966-.176.088-.44.176-.878.176h-2.547c-.351 0-.615 0-.79-.088-.264-.175-.352-.527-.352-.967V95.2c0-.352 0-.615.088-.791.351-.264.615-.44 1.142-.44zm3.688 4.746v3.956c0 .351.175.527.439.527h1.493c.878 0 1.668-.264 2.195-.703.527-.44.79-1.055.79-1.846 0-.703-.175-1.23-.614-1.67-.527-.528-1.318-.791-2.371-.791h-1.405c-.351 0-.527.175-.527.527zm17.298 4.923v11.955c0 .527-.087.791-.263.966-.176.088-.44.176-.878.176H49.7c-.35 0-.614 0-.79-.088-.263-.175-.351-.527-.351-.967V95.2c0-.352 0-.615.088-.791.175-.264.526-.352.966-.352h3.073c.351 0 .615.088.878.352.088.088.263.263.351.44l3.513 7.032c0 .087.087.263.175.351l.176.176c.088 0 .175-.088.263-.264.088-.176.088-.263.088-.263l3.512-6.945c.176-.352.352-.527.527-.703.176-.088.44-.176.703-.176h2.722c.527 0 .79.088.966.264.088.176.175.44.175.879v20.481c0 .528-.087.792-.263.967-.176.088-.439.176-.878.176h-2.546c-.527 0-.79-.088-.966-.264-.088-.175-.176-.439-.176-.879v-11.515c0-.088-.088-.176-.088-.176l-.088.088-2.546 6.065c-.088.352-.264.616-.351.704-.088.088-.264.176-.527.176h-1.23c-.35 0-.702-.264-.878-.88l-2.634-6.329c0-.175-.088-.175-.176-.175zm20.899-9.669h4.127c.264 0 .527.087.703.175.175.088.263.352.439.703l5.268 20.833c0 .088.088.264.088.44 0 .352-.263.527-.702.527h-3.161c-.352 0-.527-.088-.703-.263-.176-.176-.263-.352-.351-.616l-.615-2.461c-.088-.352-.263-.527-.614-.527h-4.479c-.351 0-.615.175-.615.527l-.614 2.549c0 .176-.176.44-.264.528-.175.175-.35.263-.702.263H68.93c-.44 0-.615-.175-.615-.615v-.176c0-.088.088-.176.088-.176l5.005-20.833c.088-.351.176-.615.351-.703 0-.088.264-.176.527-.176zm.703 14.503h2.722c.263 0 .351-.176.263-.527l-1.405-5.714c0-.088-.088-.176-.088-.176l-.087-.088c-.088.088-.176.264-.264.352l-1.23 5.714c-.175.351-.087.439.089.439zM10.976 21.976c6.062 0 10.976-4.92 10.976-10.988C21.953 4.919 17.038 0 10.976 0 4.914 0 0 4.92 0 10.988c0 6.069 4.914 10.988 10.976 10.988zm31.524 0c6.062 0 10.976-4.92 10.976-10.988C53.476 4.919 48.562 0 42.5 0c-6.062 0-10.976 4.92-10.976 10.988 0 6.069 4.914 10.988 10.976 10.988zm31.524 0c6.062 0 10.976-4.92 10.976-10.988C85 4.919 80.086 0 74.024 0c-6.062 0-10.977 4.92-10.977 10.988 0 6.069 4.915 10.988 10.977 10.988zm-63.048 31.47c6.062 0 10.976-4.92 10.976-10.988 0-6.069-4.914-10.988-10.976-10.988C4.914 31.47 0 36.389 0 42.457c0 6.068 4.914 10.988 10.976 10.988zm31.524 0c6.062 0 10.976-4.92 10.976-10.988 0-6.069-4.914-10.988-10.976-10.988-6.062 0-10.976 4.919-10.976 10.988 0 6.068 4.914 10.988 10.976 10.988zM10.976 85.003c6.062 0 10.976-4.92 10.976-10.988 0-6.069-4.914-10.988-10.976-10.988C4.914 63.027 0 67.947 0 74.015c0 6.069 4.914 10.988 10.976 10.988z" fill="#30469C"/><path d="M74.024 53.446c6.062 0 10.976-4.92 10.976-10.988 0-6.069-4.914-10.988-10.976-10.988-6.062 0-10.977 4.919-10.977 10.988 0 6.068 4.915 10.988 10.977 10.988zM42.5 85.003c6.062 0 10.976-4.92 10.976-10.988 0-6.069-4.914-10.988-10.976-10.988-6.062 0-10.976 4.92-10.976 10.988 0 6.069 4.914 10.988 10.976 10.988zm31.524 0c6.062 0 10.976-4.92 10.976-10.988 0-6.069-4.914-10.988-10.976-10.988-6.062 0-10.977 4.92-10.977 10.988 0 6.069 4.915 10.988 10.977 10.988z" fill="#9ACA3E"/></svg>