<svg viewBox="0 0 984 4" fill="none" xmlns="http://www.w3.org/2000/svg"><path d="M2 0a2 2 0 1 0 0 4V0zm0 4h4.95V0H2v4zm14.85 0h9.9V0h-9.9v4zm19.8 0h9.9V0h-9.9v4zm19.8 0h9.9V0h-9.9v4zm19.8 0h9.9V0h-9.9v4zm19.8 0h9.9V0h-9.9v4zm19.8 0h9.9V0h-9.9v4zm19.8 0h9.9V0h-9.9v4zm19.8 0h9.9V0h-9.9v4zm19.8 0h9.9V0h-9.9v4zm19.8 0h9.9V0h-9.9v4zm19.8 0h9.9V0h-9.9v4zm19.8 0h9.9V0h-9.9v4zm19.8 0h9.9V0h-9.9v4zm19.8 0h9.9V0h-9.9v4zm19.8 0h9.9V0h-9.9v4zm19.8 0h9.9V0h-9.9v4zm19.8 0h9.9V0h-9.9v4zm19.8 0h9.9V0h-9.9v4zm19.8 0h9.9V0h-9.9v4zm19.8 0h9.9V0h-9.9v4zm19.8 0h9.9V0h-9.9v4zm19.8 0h9.9V0h-9.9v4zm19.8 0h9.9V0h-9.9v4zm19.8 0h9.9V0h-9.9v4zm19.8 0h9.9V0h-9.9v4zm19.8 0h9.9V0h-9.9v4zm19.8 0h9.9V0h-9.9v4zm19.8 0h9.9V0h-9.9v4zm19.8 0h9.9V0h-9.9v4zm19.8 0h9.9V0h-9.9v4zm19.8 0h9.9V0h-9.9v4zm19.8 0h9.9V0h-9.9v4zm19.8 0h9.9V0h-9.9v4zm19.8 0h9.9V0h-9.9v4zm19.8 0h9.9V0h-9.9v4zm19.8 0h9.9V0h-9.9v4zm19.8 0h9.9V0h-9.9v4zm19.8 0h9.9V0h-9.9v4zm19.8 0h9.9V0h-9.9v4zm19.8 0h9.9V0h-9.9v4zm19.8 0h9.9V0h-9.9v4zm19.8 0h9.9V0h-9.9v4zm19.8 0h9.9V0h-9.9v4zm19.8 0h9.9V0h-9.9v4zm19.8 0h9.9V0h-9.9v4zm19.8 0h9.9V0h-9.9v4zm19.8 0h9.9V0h-9.9v4zm19.8 0h9.9V0h-9.9v4zm19.8 0h9.9V0h-9.9v4zm19.8 0H992V0h-4.95v4z" fill="#E0E0E0"/></svg>