<?xml version="1.0" encoding="UTF-8"?><!DOCTYPE svg PUBLIC "-//W3C//DTD SVG 1.1//EN" "http://www.w3.org/Graphics/SVG/1.1/DTD/svg11.dtd"><svg xmlns="http://www.w3.org/2000/svg" xmlns:xlink="http://www.w3.org/1999/xlink"><defs>
        <clipPath id="clip0">
            <path d="M0 0h122v133.804H0z"/>
        </clipPath>
    </defs><symbol id="ico-mono-brandCard_1" viewBox="0 0 122 134">
    <g clip-path="url(#clip0)">
        <path d="M0 133.38v-11.097c0-.142.141-.212.212-.212h9.825c.141 0 .212.141.212.212v11.097c0 .141-.141.212-.212.212H7.705c-.142 0-.213-.141-.213-.212v-8.694c0-.141-.14-.212-.212-.212H3.11c-.141 0-.212.141-.212.212v8.694c0 .141-.141.212-.212.212H.212c-.07.071-.212-.071-.212-.212z"/>
        <path d="M12.44 126.524c0-3.11 2.12-4.665 5.372-4.665 3.322 0 5.372 1.555 5.372 4.665v2.686c0 3.11-2.12 4.594-5.372 4.594-3.251 0-5.372-1.414-5.372-4.594v-2.686zm2.969 2.403c0 1.626.707 2.686 2.474 2.686 1.767 0 2.474-1.06 2.474-2.686v-2.121c0-1.555-.636-2.686-2.474-2.686-1.697 0-2.474 1.131-2.474 2.686v2.121z"/>
        <path d="M34.635 122.283v11.097c0 .141-.141.212-.212.212H32.09c-.14 0-.212-.141-.212-.212v-8.765c0-.141-.141-.212-.212-.212h-2.403c-.141 0-.212.071-.212.212-.141 5.231-.777 9.189-3.675 9.189-.283 0-.778-.071-1.06-.141-.072 0-.142-.071-.213-.212l-.283-1.767c0-.142.071-.283.212-.283h.354c1.626 0 1.908-3.534 1.908-9.118 0-.142.142-.212.212-.212h7.917c.141 0 .212.07.212.212z"/>
        <path d="M40.078 122.283v6.22c0 .212.282.353.424.141l4.523-6.503c.071-.07.142-.07.212-.07h1.98c.141 0 .212.141.212.212v11.097c0 .141-.142.212-.212.212h-2.333c-.141 0-.212-.141-.212-.212v-6.22c0-.212-.283-.354-.424-.142l-4.524 6.503c-.07.071-.141.071-.212.071h-2.05c-.141 0-.212-.141-.212-.212v-11.097c0-.142.142-.212.212-.212h2.333c.212 0 .283.07.283.212z"/>
        <path d="M52.871 125.393l-.282 8.058c0 .141-.142.212-.212.212h-2.404c-.141 0-.282-.142-.212-.283l.92-11.097c0-.142.14-.212.211-.212h3.04c.07 0 .212.07.212.141l2.686 8.553h.07l2.686-8.553c0-.071.142-.141.212-.141h3.04c.141 0 .212.07.212.212l.919 11.097c0 .141-.071.283-.212.283h-2.404c-.141 0-.212-.071-.212-.212l-.212-8.058h-.141l-2.615 8.128c0 .071-.142.142-.212.142h-2.262c-.071 0-.212-.071-.212-.142l-2.616-8.128z"/>
        <path d="M69.34 131.472h4.383c.141 0 .212.141.212.212v1.696c0 .141-.141.212-.212.212h-7.21c-.141 0-.212-.141-.212-.212v-11.097c0-.142.142-.212.212-.212h7.21c.141 0 .212.141.212.212v1.696c0 .141-.141.212-.212.212h-4.382c-.142 0-.212.141-.212.212v1.909c0 .141.141.212.212.212h3.534c.141 0 .212.141.212.212v1.696c0 .142-.142.212-.212.212H69.34c-.142 0-.212.142-.212.212v2.191c-.071.283.07.425.212.425z"/>
        <path d="M80.297 122.071c3.322 0 4.736 1.06 4.736 4.099 0 3.04-1.414 4.171-4.736 4.171h-1.131c-.142 0-.212.141-.212.212v2.827c0 .141-.142.212-.212.212h-2.404c-.141 0-.212-.141-.212-.212v-11.097c0-.142.142-.212.212-.212h3.959zm-1.343 5.796c0 .141.141.212.212.212h1.13c1.06 0 1.838-.283 1.838-2.05 0-1.484-.636-1.838-1.837-1.838h-1.131c-.142 0-.212.141-.212.212v3.464z"/>
        <path d="M89.98 126.241c0 .141.142.212.212.212h2.262c2.545 0 3.393 1.202 3.393 3.534 0 2.191-.777 3.605-3.463 3.605h-5.019c-.141 0-.212-.141-.212-.212v-11.097c0-.142.141-.212.212-.212h7.351c.142 0 .212.141.212.212v1.696c0 .141-.141.212-.212.212h-4.524c-.141 0-.212.141-.212.212v1.838zm0 2.474v2.757c0 .141.142.212.212.212h1.414c.919 0 1.484-.495 1.484-1.626 0-1.131-.565-1.626-1.484-1.626h-1.414c-.07 0-.212.142-.212.283z"/>
        <path d="M102.35 133.663h-3.958c-.142 0-.212-.142-.212-.212v-11.168c0-.142.14-.212.212-.212h2.332c.142 0 .212.141.212.212v3.746c0 .141.142.283.283.212.636-.071 1.272-.141 1.838-.141 2.827 0 3.958 1.343 3.958 3.746.071 2.686-1.272 3.817-4.665 3.817zm0-5.584c-.354 0-.778 0-1.131.07-.141 0-.212.142-.212.212v3.111c0 .141.141.212.212.212h1.131c1.202 0 1.838-.354 1.838-1.838 0-1.343-.707-1.767-1.838-1.767zm6.291 5.584h2.332c.142 0 .212-.142.212-.212v-11.168c0-.142-.141-.212-.212-.212h-2.332c-.142 0-.212.141-.212.212v11.097c0 .141.07.283.212.283z"/>
        <path d="M113.306 122.071h8.482c.141 0 .212.141.212.212v1.837c0 .142-.141.212-.212.212h-2.545c-.141 0-.212.142-.212.213v8.764c0 .142-.141.212-.212.212h-2.332c-.142 0-.212-.141-.212-.212v-8.764c0-.142-.142-.213-.212-.213h-2.545c-.141 0-.212-.141-.212-.212v-1.837c-.283-.142-.141-.212 0-.212z"/>
        <path d="M37.674 12.935C44.036 9.26 55.628 2.615 59.657.353a3.015 3.015 0 0 1 2.898 0l47.57 27.002c.919.494 1.484 1.484 1.484 2.544v54.002c0 1.06-.565 1.98-1.484 2.545l-21.77 12.44c-1.909 1.131-4.383-.282-4.383-2.544v-50.61c0-1.06-.565-2.05-1.484-2.544L37.745 18.024c-1.98-1.13-1.98-3.958-.07-5.089z"/>
        <path d="M36.968 30.818l33.998 18.873c.92.494 1.485 1.484 1.485 2.544v38.31c0 1.061-.566 1.98-1.414 2.475L51.6 104.47c-1.908 1.131-4.382-.282-4.382-2.473V66.443c0-1.06-.566-1.98-1.485-2.545L14.985 46.439c-1.98-1.13-1.98-3.958 0-5.09L34.14 30.748c.848-.424 1.909-.424 2.828.071z"/>
        <path d="M10.461 61.919v22.265c0 1.06.566 1.98 1.484 2.545l19.58 11.168c1.908 1.13 4.312-.283 4.312-2.545V73.087c0-1.06-.566-1.98-1.485-2.545l-19.58-11.097c-1.908-1.131-4.31.283-4.31 2.474z"/>
    </g>
    
</symbol><symbol id="ico-mono-brandCard_2" viewBox="0 0 85 117">
    <path d="M.176 115.594V95.112c0-.352 0-.615.087-.791.176-.264.527-.352.966-.352h10.274c.527 0 .79.088.966.264.088.176.176.44.176.879v2.461c0 .264-.088.44-.264.528-.175.175-.439.175-.79.175H5.444c-.351 0-.614.176-.614.528v3.428c0 .352.087.615.35.615h5.094c.175 0 .351.088.527.176.175.088.175.264.175.44v2.989c0 .439-.175.615-.615.615H5.444c-.263 0-.439.176-.439.527v7.912c0 .527-.088.791-.263.967-.176.087-.44.175-.878.175H1.317c-.351 0-.615 0-.79-.088-.176-.175-.351-.439-.351-.966z"/>
    <path d="M14.664 108.473v-6.153c0-2.198.264-3.868.878-5.098 1.054-2.286 3.161-3.517 6.235-3.517 2.898 0 4.917 1.055 5.97 3.077.703 1.319 1.055 3.165 1.055 5.45v6.153c0 2.11-.264 3.78-.878 5.011-1.054 2.373-3.162 3.516-6.235 3.516-2.37 0-4.215-.703-5.356-2.11-1.054-1.318-1.669-3.428-1.669-6.329zm9.396-.615v-5.011c0-1.67-.088-2.812-.263-3.428-.264-.967-.966-1.406-2.02-1.406s-1.669.44-2.02 1.406c-.175.616-.263 1.758-.263 3.516v5.099c0 1.67.088 2.813.263 3.428.264.967.966 1.406 2.02 1.406s1.668-.439 2.02-1.406c.175-.703.263-1.846.263-3.604z"/>
    <path d="M32.402 93.97h5.97c2.723 0 4.83.702 6.148 2.109 1.141 1.143 1.668 2.55 1.668 4.219 0 1.583-.351 2.813-1.142 3.868-.614.879-1.317 1.406-2.195 1.758-.175 0-.263.176-.263.264 0 .088.088.264.175.527l4.04 8.791c.088.175.088.351.088.439 0 .44-.264.703-.79.703h-3.338c-.439 0-.79-.088-.965-.263-.088-.088-.176-.176-.264-.352l-3.864-8.439c-.175-.263-.35-.439-.702-.439h-.615c-.263 0-.351.088-.351.351v8.088c0 .527-.088.791-.263.966-.176.088-.44.176-.878.176h-2.547c-.351 0-.615 0-.79-.088-.264-.175-.352-.527-.352-.967V95.2c0-.352 0-.615.088-.791.351-.264.615-.44 1.142-.44zm3.688 4.746v3.956c0 .351.175.527.439.527h1.493c.878 0 1.668-.264 2.195-.703.527-.44.79-1.055.79-1.846 0-.703-.175-1.23-.614-1.67-.527-.528-1.318-.791-2.371-.791h-1.405c-.351 0-.527.175-.527.527z"/>
    <path d="M53.388 103.639v11.955c0 .527-.087.791-.263.966-.176.088-.44.176-.878.176H49.7c-.35 0-.614 0-.79-.088-.263-.175-.351-.527-.351-.967V95.2c0-.352 0-.615.088-.791.175-.264.526-.352.966-.352h3.073c.351 0 .615.088.878.352.088.088.263.263.351.44l3.513 7.032c0 .087.087.263.175.351l.176.176c.088 0 .175-.088.263-.264.088-.176.088-.263.088-.263l3.512-6.945c.176-.352.352-.527.527-.703.176-.088.44-.176.703-.176h2.722c.527 0 .79.088.966.264.088.176.175.44.175.879v20.481c0 .528-.087.792-.263.967-.176.088-.439.176-.878.176h-2.546c-.527 0-.79-.088-.966-.264-.088-.175-.176-.439-.176-.879v-11.515c0-.088-.088-.176-.088-.176l-.088.088-2.546 6.065c-.088.352-.264.616-.351.704-.088.088-.264.176-.527.176h-1.23c-.35 0-.702-.264-.878-.88l-2.634-6.329c0-.175-.088-.175-.176-.175z"/>
    <path d="M74.287 93.97h4.127c.264 0 .527.087.703.175.175.088.263.352.439.703l5.268 20.833c0 .088.088.264.088.44 0 .352-.263.527-.702.527h-3.161c-.352 0-.527-.088-.703-.263-.176-.176-.263-.352-.351-.616l-.615-2.461c-.088-.352-.263-.527-.614-.527h-4.479c-.351 0-.615.175-.615.527l-.614 2.549c0 .176-.176.44-.264.528-.175.175-.35.263-.702.263H68.93c-.44 0-.615-.175-.615-.615v-.176c0-.088.088-.176.088-.176l5.005-20.833c.088-.351.176-.615.351-.703 0-.088.264-.176.527-.176zm.703 14.503h2.722c.263 0 .351-.176.263-.527l-1.405-5.714c0-.088-.088-.176-.088-.176l-.087-.088c-.088.088-.176.264-.264.352l-1.23 5.714c-.175.351-.087.439.089.439z"/>
    <path d="M10.976 21.976c6.062 0 10.976-4.92 10.976-10.988C21.953 4.919 17.038 0 10.976 0 4.914 0 0 4.92 0 10.988c0 6.069 4.914 10.988 10.976 10.988z"/>
    <path d="M42.5 21.976c6.062 0 10.976-4.92 10.976-10.988C53.476 4.919 48.562 0 42.5 0c-6.062 0-10.976 4.92-10.976 10.988 0 6.069 4.914 10.988 10.976 10.988z"/>
    <path d="M74.024 21.976c6.062 0 10.976-4.92 10.976-10.988C85 4.919 80.086 0 74.024 0c-6.062 0-10.977 4.92-10.977 10.988 0 6.069 4.915 10.988 10.977 10.988z"/>
    <path d="M10.976 53.446c6.062 0 10.976-4.92 10.976-10.988 0-6.069-4.914-10.988-10.976-10.988C4.914 31.47 0 36.389 0 42.457c0 6.068 4.914 10.988 10.976 10.988z"/>
    <path d="M42.5 53.446c6.062 0 10.976-4.92 10.976-10.988 0-6.069-4.914-10.988-10.976-10.988-6.062 0-10.976 4.919-10.976 10.988 0 6.068 4.914 10.988 10.976 10.988z"/>
    <path d="M10.976 85.003c6.062 0 10.976-4.92 10.976-10.988 0-6.069-4.914-10.988-10.976-10.988C4.914 63.027 0 67.947 0 74.015c0 6.069 4.914 10.988 10.976 10.988z"/>
    <path d="M74.024 53.446c6.062 0 10.976-4.92 10.976-10.988 0-6.069-4.914-10.988-10.976-10.988-6.062 0-10.977 4.919-10.977 10.988 0 6.068 4.915 10.988 10.977 10.988z"/>
    <path d="M42.5 85.003c6.062 0 10.976-4.92 10.976-10.988 0-6.069-4.914-10.988-10.976-10.988-6.062 0-10.976 4.92-10.976 10.988 0 6.069 4.914 10.988 10.976 10.988z"/>
    <path d="M74.024 85.003c6.062 0 10.976-4.92 10.976-10.988 0-6.069-4.914-10.988-10.976-10.988-6.062 0-10.977 4.92-10.977 10.988 0 6.069 4.915 10.988 10.977 10.988z"/>
</symbol><symbol id="ico-mono-home-design" viewBox="0 0 73 82">
    <path d="M9.824 19.823l-.84-.543-.16.248v.296h1zm52.94 0h1v-.295l-.16-.248-.84.543zM41 47.471l-.707.707.293.293H41v-1zm5.294 0v1h.414l.293-.293-.707-.707zm16.47 22.176a1 1 0 0 0 0-2v2zm-18.235-2a1 1 0 1 0 0 2v-2zm-1.588-29a1 1 0 0 0 2 0h-2zm6.34 5.837l-.707-.707.707.707zm8.195-32.834l-.84.544.84-.544zm-42.364 0l-.84-.543.84.543zm47.053-8.708l.858-.514-.858.514zM38.054 44.525l.707-.708-.707.708zm32.964-26.828l-.857.515.857-.515zm-69.448 0l-.857-.514.857.514zM0 19.755v50.657h2V19.755H0zm72.588 50.186V19.755h-2v50.186h2zm-.712-52.758L63.023 2.428l-1.715 1.029 8.853 14.755 1.715-1.03zM58.736 0H13.852v2h44.882V0zM9.565 2.428L.713 17.183l1.715 1.029L11.28 3.457l-1.715-1.03zM3.529 73.94V79h2v-5.059h-2zm3 8.059h9.53v-2h-9.53v2zm-2-7.059h13.53v-2H4.529v2zM19.06 79v-5.059h-2V79h2zm46.059-4.059h2.47v-2h-2.47v2zm-1-1V79h2v-5.059h-2zm-1 6.059h-9.53v2h9.53v-2zm-45.06-5.059h33.53v-2h-33.53v2zm33.53 0h13.53v-2h-13.53v2zm1 4.059v-5.059h-2V79h2zM10.663 20.367l5.288-8.173-1.679-1.087-5.288 8.173 1.68 1.087zm7.807-9.544h35.648v-2H18.47v2zm38.167 1.37l5.288 8.174 1.68-1.087-5.29-8.173-1.678 1.087zm2.128 48.983H13.824v2h44.94v-2zm-47.941-35.47v-5.883h-2v5.883h2zm50.94-5.883v5.883h2v-5.883h-2zm0 5.883v29.412h2V25.706h-2zm0 29.412v3.058h2v-3.058h-2zm-50.94 3.058v-3.058h-2v3.058h2zm0-3.058V25.706h-2v29.412h2zm16.058-1H9.824v2h17.058v-2zm1 1v-9.765h-2v9.765h2zm1-10.765h6.343v-2h-6.343v2zm8.465.879l2.946 2.946 1.414-1.414-2.946-2.947-1.414 1.415zM41 48.47h5.294v-2H41v2zm6.001-.293l2.987-2.987-1.414-1.414-2.987 2.986 1.414 1.415zm15.764 5.94H53.94v2h8.824v-2zm-8.824 0H26.882v2h27.06v-2zm-1-8.835v9.835h2v-9.835h-2zm9.824 22.364H44.529v2h18.236v-2zm-33.941.647v.118h2v-.118h-2zm-1 1.118H16.529v2h11.294v-2zm-12.295-1v-.118h-2v.118h2zm1-1.118h11.294v-2H16.53v2zm23.883-50.823h-.765v2h.765v-2zm1 1v-.883h-2v.883h2zm6.823-1h-1.353v2h1.353v-2zm-1.353 0h-6.47v2h6.47v-2zm-1 .117v.883h2v-.883h-2zm1.589 14.824h.764v-2h-.764v2zm-1-1v2.53h2v-2.53h-2zm-6.824 1h.765v-2h-.765v2zm.765 0h7.059v-2h-7.06v2zm1 1.53v-2.53h-2v2.53h2zm5.059 0h-2.53v2h2.53v-2zm-2.53 0h-2.53v2h2.53v-2zm-1 1v4.705h2v-4.706h-2zm7.294-4.53v-3.706h-2v3.706h2zm-1-2.706h13.53v-2h-13.53v2zm1-1v-5.883h-2v5.883h2zm0-5.883v-1.352h-2v1.352h2zm12.53-1h-13.53v2h13.53v-2zm-25.118-.352v1.352h2v-1.352h-2zm1 .352H9.824v2h28.823v-2zm-1 1v5.883h2v-5.883h-2zm0 5.883v3.706h2v-3.706h-2zm-27.823 1h28.823v-2H9.824v2zm33.823-12.353c1.235 0 2.235 1 2.235 2.235h2a4.235 4.235 0 0 0-4.235-4.235v2zm-2.235 2.235c0-1.234 1-2.235 2.235-2.235v-2a4.235 4.235 0 0 0-4.235 4.235h2zm6.823 1.883h2a2 2 0 0 0-2-2v2zm0 12.94a2 2 0 0 0 2-2h-2v2zm-8.588-2h-2a2 2 0 0 0 2 2v-2zM15.53 68.295a1 1 0 0 1 1-1v-2a3 3 0 0 0-3 3h2zm1 1.118a1 1 0 0 1-1-1h-2a3 3 0 0 0 3 3v-2zM49.99 45.19a2.86 2.86 0 0 1 2.022-.838v-2a4.86 4.86 0 0 0-3.437 1.424l1.414 1.414zM13.822 61.176a3 3 0 0 1-3-3h-2a5 5 0 0 0 5 5v-2zm44.942 2a5 5 0 0 0 5-5h-2a3 3 0 0 1-3 3v2zm-4.647-52.352a3 3 0 0 1 2.519 1.37l1.679-1.087a5 5 0 0 0-4.198-2.283v2zM16.058 82a3 3 0 0 0 3-3h-2a1 1 0 0 1-1 1v2zm35.953-37.647a.93.93 0 0 1 .93.93h2a2.93 2.93 0 0 0-2.93-2.93v2zM3.529 79a3 3 0 0 0 3 3v-2a1 1 0 0 1-1-1h-2zM13.853 0a5 5 0 0 0-4.287 2.428l1.714 1.029A3 3 0 0 1 13.854 2V0zm25.794 16.47a2 2 0 0 0-2 2h2v-2zm-23.695-4.276a3 3 0 0 1 2.518-1.37v-2a5 5 0 0 0-4.198 2.283l1.68 1.087zm47.07-9.766A5 5 0 0 0 58.736 0v2a3 3 0 0 1 2.573 1.457l1.715-1.03zM35.226 44.353a3 3 0 0 1 2.122.879l1.414-1.415a5 5 0 0 0-3.536-1.464v2zm37.363-24.598a5 5 0 0 0-.712-2.572l-1.715 1.029a3 3 0 0 1 .427 1.543h2zM27.882 45.353a1 1 0 0 1 1-1v-2a3 3 0 0 0-3 3h2zM70.588 69.94a3 3 0 0 1-3 3v2a5 5 0 0 0 5-5h-2zm-41.764-1.53a1 1 0 0 1-1 1v2a3 3 0 0 0 3-3h-2zM53.587 80a1 1 0 0 1-1-1h-2a3 3 0 0 0 3 3v-2zM39.412 32.941a2 2 0 0 0 2 2v-2h-2zM0 70.411a4.53 4.53 0 0 0 4.53 4.53v-2A2.53 2.53 0 0 1 2 70.411H0zm30.823-2.117a3 3 0 0 0-3-3v2a1 1 0 0 1 1 1h2zM64.118 79a1 1 0 0 1-1 1v2a3 3 0 0 0 3-3h-2zM46.47 32.941v2a2 2 0 0 0 2-2h-2zM2 19.755a3 3 0 0 1 .428-1.543l-1.715-1.03A5 5 0 0 0 0 19.756h2z"/>
</symbol><symbol id="ico-mono-home-eco" viewBox="0 0 89 81">
    <path d="M3.05 53.15a1 1 0 0 0 .65 1.9l-.65-1.9zm21.3-6.18l.12-.99-.23-.03-.22.08.32.94zm9.46 12.06a1 1 0 1 0 .06 2l-.06-2zM3.7 55.04l20.96-7.12-.64-1.9-20.97 7.13.65 1.9zm20.51-7.07l35.58 4.62.26-1.98-35.58-4.63-.26 1.99zM59.5 58.33l-25.69.7.06 2 25.68-.7-.05-2zm2.76-2.4a2.88 2.88 0 0 1-2.76 2.4l.05 2a4.88 4.88 0 0 0 4.68-4.08l-1.97-.33zm-2.47-3.34a2.88 2.88 0 0 1 2.47 3.33l1.97.33a4.88 4.88 0 0 0-4.18-5.64l-.26 1.98z"/>
    <path d="M1 74.67l10.8-5.23a4 4 0 0 1 3-.2l30.28 10.1a10 10 0 0 0 9.17-1.5l31.33-23.57a3.9 3.9 0 0 0-4.4-6.41L54.3 64.64a3 3 0 0 1-3 .1l-9.55-5.11" stroke-width="2"/>
    <path d="M58.76 51.33l11.56-4.57a6 6 0 0 1 6.24 1.15l1.59 1.44" stroke-width="2"/>
    <path d="M14.4 14.78a1 1 0 1 0-.68 1.88l.67-1.88zm46.95 3.1a1 1 0 1 0-.43-1.95l.43 1.95zm-47.63-1.22c6.76 2.43 25.6 6.01 47.63 1.22l-.43-1.95c-21.64 4.7-40.1 1.16-46.53-1.15l-.67 1.88z"/>
    <path d="M52.21 11.17a1 1 0 1 0-.35-1.97l.35 1.97zM40.6 19.85a28.17 28.17 0 0 1 4.64-4.99c2.1-1.78 4.54-3.26 6.98-3.7l-.35-1.96c-2.94.51-5.7 2.26-7.93 4.13a30.16 30.16 0 0 0-4.98 5.38l1.64 1.14zm9.1 8.74a1 1 0 1 0-.07-2l.07 2zm27.26-19.6l.97.26.3-1.15-1.18-.1-.09 1zM42.15 37.88l.1.99-.1-1zM22.76 17.7l-1-.1 1 .1zM38.19 1.08l-.06-1 .06 1zm23.34 5.14l.4-.92-.4.92zM33.33 19.7c1.45 3.2 6.71 9.23 16.37 8.9l-.07-2c-8.7.3-13.3-5.12-14.49-7.72l-1.82.82zM76 8.74c-2.31 8.72-12.4 26.05-33.95 28.14l.2 1.99c22.66-2.2 33.24-20.41 35.68-29.62L76 8.74zM42.05 36.88c-5.7.55-10.45-2.29-13.72-6.31-3.29-4.05-4.94-9.14-4.57-12.77l-2-.2c-.42 4.28 1.48 9.87 5.02 14.23 3.56 4.38 8.9 7.68 15.46 7.04l-.19-1.99zM23.75 17.8c.26-2.5 1.3-6.33 3.59-9.58a13.85 13.85 0 0 1 10.9-6.14l-.1-2c-5.9.34-9.9 3.38-12.44 7a23.21 23.21 0 0 0-3.93 10.52l1.99.2zm14.5-15.72c6.78-.39 12.11.71 15.93 1.98 3.9 1.3 6 2.67 6.96 3.08l.79-1.84c-.55-.23-3.19-1.82-7.12-3.13A44.39 44.39 0 0 0 38.13.08l.12 2zm22.89 5.06C64.06 8.4 67.36 9.2 76.88 10l.17-2c-9.48-.78-12.5-1.56-15.12-2.69l-.8 1.84z"/>
</symbol><symbol id="ico-mono-home-tech" viewBox="0 0 81 82">
    <path d="M47.956 35.362V5.74a4 4 0 0 0-4-4H5a4 4 0 0 0-4 4V55.71a4 4 0 0 0 4 4h34.84" stroke-width="2"/>
    <path d="M29.985 5.957a1 1 0 1 0 0 2v-2zm0 2h28.986v-2H29.986v2z"/>
    <rect x="59.391" y="1" width="15.391" height="15.391" rx="1" stroke-width="2"/>
    <path d="M63.029 16.232v5.217l4.058 3.479 4.058-3.479v-5.217" stroke-width="2"/>
    <path d="M67.087 24.927v2.638a2 2 0 0 1-2 2h-3.536a2 2 0 0 0-2 2v3.218" stroke-width="2"/>
    <path d="M9.116 22.029l15.072-8.696 15.073 8.696v16.812l-15.073 9.275-15.072-9.275V22.029z" stroke-width="2"/>
    <path d="M39.84 45.797l19.71-11.594 19.71 11.594v22.03L59.55 80 39.84 67.826V45.797z" stroke-width="2"/>
    <path d="M40.42 45.797l19.13 11.594V80" stroke-width="2"/>
    <path d="M79.26 7.957a1 1 0 1 0 0-2v2zm-4.637 0h4.638v-2h-4.638v2z"/>
    <circle cx="23.609" cy="6.957" r="1.159"/>
    <circle cx="68.826" cy="51.014" r="1.159"/>
    <path d="M59.55 57.391l4.059-2.898" stroke-width="2" stroke-linecap="round"/>
    <path d="M73.464 48.696l5.217-2.899" stroke-width="2" stroke-linecap="round"/>
    <path d="M9.116 22.029l15.072 8.116 14.493-8.116" stroke-width="2"/>
    <path d="M24.188 30.145v17.97" stroke-width="2"/>
</symbol><symbol id="ico-mono-logo" viewBox="0 0 178 48">
    <path d="M91.426 18.348h-7.834a.226.226 0 0 0-.21.21c0 5.468-.263 8.938-1.84 8.938h-.368c-.158 0-.263.105-.21.263l.263 1.735c0 .105.105.158.21.21.315.053.789.105 1.052.105 2.838 0 3.47-3.89 3.627-9.042 0-.105.105-.21.21-.21h2.314c.105 0 .21.105.21.21v8.622c0 .105.105.21.21.21h2.314c.105 0 .21-.105.21-.21V18.61c.052-.158-.053-.263-.158-.263zm12.565 0h-1.892a.4.4 0 0 0-.211.105l-4.469 6.362c-.105.21-.42.105-.42-.158v-6.046a.226.226 0 0 0-.21-.21h-2.314a.226.226 0 0 0-.21.21v10.883c0 .105.105.21.21.21h1.893a.399.399 0 0 0 .21-.105l4.469-6.361c.105-.21.421-.105.421.157v6.099c0 .105.105.21.21.21h2.313c.105 0 .211-.105.211-.21V18.611c.052-.158-.053-.263-.211-.263zm-36.486 0H57.83a.226.226 0 0 0-.21.21v10.883c0 .106.105.21.21.21h2.314c.105 0 .21-.104.21-.21v-8.517c0-.105.105-.21.21-.21h4.048c.106 0 .21.105.21.21v8.57c0 .105.106.21.21.21h2.314c.105 0 .21-.105.21-.21V18.611c.158-.158.053-.263-.052-.263zm91.426 4.049c-.578 0-1.209.052-1.84.105-.158 0-.263-.105-.263-.21v-3.68a.226.226 0 0 0-.21-.211h-2.314a.226.226 0 0 0-.21.21v10.883c0 .105.105.21.21.21h3.891c3.365 0 4.679-1.051 4.679-3.68-.053-2.313-1.157-3.628-3.943-3.628zm-.789 5.467h-1.104c-.105 0-.21-.105-.21-.21v-3.05c0-.104.105-.21.21-.21.368-.052.736-.052 1.104-.052 1.157 0 1.84.368 1.84 1.787 0 1.42-.63 1.735-1.84 1.735zm-83.014-9.673c-3.207 0-5.31 1.524-5.31 4.574v2.628c0 3.05 2.05 4.469 5.31 4.469s5.31-1.42 5.31-4.469v-2.628c0-3.05-2.05-4.574-5.31-4.574zm2.418 6.887c0 1.577-.63 2.681-2.418 2.681-1.682 0-2.418-1.051-2.418-2.681v-2.103c0-1.525.736-2.681 2.418-2.681 1.788 0 2.418 1.156 2.418 2.68v2.104zm41.744-6.73h-2.996c-.106 0-.211.053-.211.158l-2.628 8.36h-.053l-2.629-8.36c-.052-.105-.105-.158-.21-.158h-2.997a.226.226 0 0 0-.21.21l-.894 10.883c0 .158.105.263.21.263h2.366c.105 0 .211-.105.211-.21l.21-7.886h.052l2.524 7.939c.053.105.105.157.21.157h2.208c.106 0 .211-.052.211-.157l2.523-7.94h.053l.21 7.887c0 .105.105.21.21.21h2.366c.158 0 .263-.105.211-.263l-.894-10.882c.21-.106.105-.21-.053-.21zm47.369 0h-2.313a.226.226 0 0 0-.21.21v10.883c0 .106.105.21.21.21h2.313c.105 0 .211-.104.211-.21v-10.83c.052-.158-.053-.263-.211-.263zm-18.19 4.364h-2.208c-.105 0-.211-.105-.211-.21v-1.735c0-.105.106-.21.211-.21h4.416c.105 0 .21-.106.21-.21v-1.683c0-.105-.105-.21-.21-.21h-7.255c-.105 0-.211.105-.211.21v10.883c0 .105.106.21.211.21h4.942c2.628 0 3.417-1.367 3.417-3.523.052-2.313-.841-3.522-3.312-3.522zm-.789 5.1h-1.367a.226.226 0 0 1-.21-.21V24.92c0-.105.105-.21.21-.21h1.367c.894 0 1.472.473 1.472 1.577-.052 1.051-.578 1.525-1.472 1.525zm29.547-9.464h-8.307a.226.226 0 0 0-.21.21v1.84c0 .106.105.211.21.211h2.524c.105 0 .21.105.21.21v8.622c0 .106.105.21.21.21h2.313a.226.226 0 0 0 .211-.21v-8.57c0-.104.105-.21.21-.21h2.524c.105 0 .21-.105.21-.21v-1.84c.105-.158 0-.263-.105-.263zm-47.212 0h-7.097a.226.226 0 0 0-.21.21v10.883c0 .106.105.21.21.21h7.097c.105 0 .211-.104.211-.21V27.76c0-.105-.106-.21-.211-.21h-4.311a.226.226 0 0 1-.21-.21v-2.156c0-.105.105-.21.21-.21h3.47c.105 0 .21-.105.21-.21v-1.63c0-.106-.105-.21-.21-.21h-3.47a.226.226 0 0 1-.21-.211v-1.893c0-.105.105-.21.21-.21h4.311c.105 0 .211-.105.211-.21v-1.683c.052-.263-.053-.368-.211-.368zm6.467 0h-3.891a.226.226 0 0 0-.21.21v10.883c0 .106.105.21.21.21h2.314c.105 0 .21-.104.21-.21v-2.786c0-.105.105-.21.21-.21h1.104c3.313 0 4.679-1.104 4.679-4.101.053-2.997-1.314-3.996-4.626-3.996zm0 5.994h-1.104a.226.226 0 0 1-.21-.21v-3.313c0-.105.105-.21.21-.21h1.104c1.209 0 1.84.368 1.84 1.84 0 1.577-.789 1.893-1.84 1.893zm-120.92 5.362l-15.3-8.727c-.104-.053-.262 0-.262.158v5.94c0 .158.105.316.263.421l9.673 5.468c.474.263.736.736.736 1.262v11.04c0 1.104-1.209 1.788-2.155 1.262l-8.254-4.68c-.105-.052-.263 0-.263.159v2.996a3.052 3.052 0 0 0 3.05 3.05h12.827c.21 0 .42-.21.42-.421V30.966c0-.526-.262-.999-.735-1.262zm30.44 11.987l-9.305 5.363c-.947.578-2.156-.158-2.156-1.262v-25.13c0-.526-.263-1-.736-1.262L11.566 6.887c-.946-.526-.999-1.945 0-2.523A689.688 689.688 0 0 1 18.664.315c.105-.052.052-.315-.105-.315H3.049A3.051 3.051 0 0 0 0 3.05V18.4c0 .159.158.211.263.159l9.516-5.31c.42-.263.946-.263 1.42 0l16.876 9.358c.473.263.736.736.736 1.262V42.9c0 .526-.263 1-.684 1.262l-5.993 3.523c-.158.105-.105.368.105.368h21.03a3.052 3.052 0 0 0 3.049-3.05v-3.102c-.053-.157-.21-.262-.316-.21zM43.058 0H27.812c-.21 0-.263.263-.106.368L45.95 10.725c.105.053.262 0 .262-.158v-7.36C46.265 1.42 44.794 0 43.058 0z"/>
</symbol><symbol id="ico-mono-plus" viewBox="0 0 18 18">
    <path fill-rule="evenodd" clip-rule="evenodd" d="M10 1a1 1 0 1 0-2 0v7H1a1 1 0 1 0 0 2h7v7a1 1 0 1 0 2 0v-7h7a1 1 0 1 0 0-2h-7V1z"/>
</symbol><symbol id="ico-mono-arrow-right" viewBox="0 0 9 14">
    <path d="M.663 1.25l.95-.934L8.182 7l-6.567 6.704-.952-.933L6.313 7 .663 1.25z"/>
</symbol></svg>