<?xml version="1.0" encoding="UTF-8"?><!DOCTYPE svg PUBLIC "-//W3C//DTD SVG 1.1//EN" "http://www.w3.org/Graphics/SVG/1.1/DTD/svg11.dtd"><svg xmlns="http://www.w3.org/2000/svg" xmlns:xlink="http://www.w3.org/1999/xlink"><defs>
        <clipPath id="clip0">
            <path fill="#fff" d="M0 0h122v133.804H0z"/>
        </clipPath>
    </defs><symbol id="ico-color-brandCard_1" viewBox="0 0 122 134">
    <g clip-path="url(#clip0)" fill="#0BA14B">
        <path d="M0 133.38v-11.097c0-.142.141-.212.212-.212h9.825c.141 0 .212.141.212.212v11.097c0 .141-.141.212-.212.212H7.705c-.142 0-.213-.141-.213-.212v-8.694c0-.141-.14-.212-.212-.212H3.11c-.141 0-.212.141-.212.212v8.694c0 .141-.141.212-.212.212H.212c-.07.071-.212-.071-.212-.212z"/>
        <path d="M12.44 126.524c0-3.11 2.12-4.665 5.372-4.665 3.322 0 5.372 1.555 5.372 4.665v2.686c0 3.11-2.12 4.594-5.372 4.594-3.251 0-5.372-1.414-5.372-4.594v-2.686zm2.969 2.403c0 1.626.707 2.686 2.474 2.686 1.767 0 2.474-1.06 2.474-2.686v-2.121c0-1.555-.636-2.686-2.474-2.686-1.697 0-2.474 1.131-2.474 2.686v2.121z"/>
        <path d="M34.635 122.283v11.097c0 .141-.141.212-.212.212H32.09c-.14 0-.212-.141-.212-.212v-8.765c0-.141-.141-.212-.212-.212h-2.403c-.141 0-.212.071-.212.212-.141 5.231-.777 9.189-3.675 9.189-.283 0-.778-.071-1.06-.141-.072 0-.142-.071-.213-.212l-.283-1.767c0-.142.071-.283.212-.283h.354c1.626 0 1.908-3.534 1.908-9.118 0-.142.142-.212.212-.212h7.917c.141 0 .212.07.212.212z"/>
        <path d="M40.078 122.283v6.22c0 .212.282.353.424.141l4.523-6.503c.071-.07.142-.07.212-.07h1.98c.141 0 .212.141.212.212v11.097c0 .141-.142.212-.212.212h-2.333c-.141 0-.212-.141-.212-.212v-6.22c0-.212-.283-.354-.424-.142l-4.524 6.503c-.07.071-.141.071-.212.071h-2.05c-.141 0-.212-.141-.212-.212v-11.097c0-.142.142-.212.212-.212h2.333c.212 0 .283.07.283.212z"/>
        <path d="M52.871 125.393l-.282 8.058c0 .141-.142.212-.212.212h-2.404c-.141 0-.282-.142-.212-.283l.92-11.097c0-.142.14-.212.211-.212h3.04c.07 0 .212.07.212.141l2.686 8.553h.07l2.686-8.553c0-.071.142-.141.212-.141h3.04c.141 0 .212.07.212.212l.919 11.097c0 .141-.071.283-.212.283h-2.404c-.141 0-.212-.071-.212-.212l-.212-8.058h-.141l-2.615 8.128c0 .071-.142.142-.212.142h-2.262c-.071 0-.212-.071-.212-.142l-2.616-8.128z"/>
        <path d="M69.34 131.472h4.383c.141 0 .212.141.212.212v1.696c0 .141-.141.212-.212.212h-7.21c-.141 0-.212-.141-.212-.212v-11.097c0-.142.142-.212.212-.212h7.21c.141 0 .212.141.212.212v1.696c0 .141-.141.212-.212.212h-4.382c-.142 0-.212.141-.212.212v1.909c0 .141.141.212.212.212h3.534c.141 0 .212.141.212.212v1.696c0 .142-.142.212-.212.212H69.34c-.142 0-.212.142-.212.212v2.191c-.071.283.07.425.212.425z"/>
        <path d="M80.297 122.071c3.322 0 4.736 1.06 4.736 4.099 0 3.04-1.414 4.171-4.736 4.171h-1.131c-.142 0-.212.141-.212.212v2.827c0 .141-.142.212-.212.212h-2.404c-.141 0-.212-.141-.212-.212v-11.097c0-.142.142-.212.212-.212h3.959zm-1.343 5.796c0 .141.141.212.212.212h1.13c1.06 0 1.838-.283 1.838-2.05 0-1.484-.636-1.838-1.837-1.838h-1.131c-.142 0-.212.141-.212.212v3.464z"/>
        <path d="M89.98 126.241c0 .141.142.212.212.212h2.262c2.545 0 3.393 1.202 3.393 3.534 0 2.191-.777 3.605-3.463 3.605h-5.019c-.141 0-.212-.141-.212-.212v-11.097c0-.142.141-.212.212-.212h7.351c.142 0 .212.141.212.212v1.696c0 .141-.141.212-.212.212h-4.524c-.141 0-.212.141-.212.212v1.838zm0 2.474v2.757c0 .141.142.212.212.212h1.414c.919 0 1.484-.495 1.484-1.626 0-1.131-.565-1.626-1.484-1.626h-1.414c-.07 0-.212.142-.212.283z"/>
        <path d="M102.35 133.663h-3.958c-.142 0-.212-.142-.212-.212v-11.168c0-.142.14-.212.212-.212h2.332c.142 0 .212.141.212.212v3.746c0 .141.142.283.283.212.636-.071 1.272-.141 1.838-.141 2.827 0 3.958 1.343 3.958 3.746.071 2.686-1.272 3.817-4.665 3.817zm0-5.584c-.354 0-.778 0-1.131.07-.141 0-.212.142-.212.212v3.111c0 .141.141.212.212.212h1.131c1.202 0 1.838-.354 1.838-1.838 0-1.343-.707-1.767-1.838-1.767zm6.291 5.584h2.332c.142 0 .212-.142.212-.212v-11.168c0-.142-.141-.212-.212-.212h-2.332c-.142 0-.212.141-.212.212v11.097c0 .141.07.283.212.283z"/>
        <path d="M113.306 122.071h8.482c.141 0 .212.141.212.212v1.837c0 .142-.141.212-.212.212h-2.545c-.141 0-.212.142-.212.213v8.764c0 .142-.141.212-.212.212h-2.332c-.142 0-.212-.141-.212-.212v-8.764c0-.142-.142-.213-.212-.213h-2.545c-.141 0-.212-.141-.212-.212v-1.837c-.283-.142-.141-.212 0-.212z"/>
        <path d="M37.674 12.935C44.036 9.26 55.628 2.615 59.657.353a3.015 3.015 0 0 1 2.898 0l47.57 27.002c.919.494 1.484 1.484 1.484 2.544v54.002c0 1.06-.565 1.98-1.484 2.545l-21.77 12.44c-1.909 1.131-4.383-.282-4.383-2.544v-50.61c0-1.06-.565-2.05-1.484-2.544L37.745 18.024c-1.98-1.13-1.98-3.958-.07-5.089z"/>
        <path d="M36.968 30.818l33.998 18.873c.92.494 1.485 1.484 1.485 2.544v38.31c0 1.061-.566 1.98-1.414 2.475L51.6 104.47c-1.908 1.131-4.382-.282-4.382-2.473V66.443c0-1.06-.566-1.98-1.485-2.545L14.985 46.439c-1.98-1.13-1.98-3.958 0-5.09L34.14 30.748c.848-.424 1.909-.424 2.828.071z"/>
        <path d="M10.461 61.919v22.265c0 1.06.566 1.98 1.484 2.545l19.58 11.168c1.908 1.13 4.312-.283 4.312-2.545V73.087c0-1.06-.566-1.98-1.485-2.545l-19.58-11.097c-1.908-1.131-4.31.283-4.31 2.474z"/>
    </g>
    
</symbol><symbol id="ico-color-brandCard_2" viewBox="0 0 85 117">
    <path d="M.176 115.594V95.112c0-.352 0-.615.087-.791.176-.264.527-.352.966-.352h10.274c.527 0 .79.088.966.264.088.176.176.44.176.879v2.461c0 .264-.088.44-.264.528-.175.175-.439.175-.79.175H5.444c-.351 0-.614.176-.614.528v3.428c0 .352.087.615.35.615h5.094c.175 0 .351.088.527.176.175.088.175.264.175.44v2.989c0 .439-.175.615-.615.615H5.444c-.263 0-.439.176-.439.527v7.912c0 .527-.088.791-.263.967-.176.087-.44.175-.878.175H1.317c-.351 0-.615 0-.79-.088-.176-.175-.351-.439-.351-.966z" fill="#30469C"/>
    <path d="M14.664 108.473v-6.153c0-2.198.264-3.868.878-5.098 1.054-2.286 3.161-3.517 6.235-3.517 2.898 0 4.917 1.055 5.97 3.077.703 1.319 1.055 3.165 1.055 5.45v6.153c0 2.11-.264 3.78-.878 5.011-1.054 2.373-3.162 3.516-6.235 3.516-2.37 0-4.215-.703-5.356-2.11-1.054-1.318-1.669-3.428-1.669-6.329zm9.396-.615v-5.011c0-1.67-.088-2.812-.263-3.428-.264-.967-.966-1.406-2.02-1.406s-1.669.44-2.02 1.406c-.175.616-.263 1.758-.263 3.516v5.099c0 1.67.088 2.813.263 3.428.264.967.966 1.406 2.02 1.406s1.668-.439 2.02-1.406c.175-.703.263-1.846.263-3.604z" fill="#30469C"/>
    <path d="M32.402 93.97h5.97c2.723 0 4.83.702 6.148 2.109 1.141 1.143 1.668 2.55 1.668 4.219 0 1.583-.351 2.813-1.142 3.868-.614.879-1.317 1.406-2.195 1.758-.175 0-.263.176-.263.264 0 .088.088.264.175.527l4.04 8.791c.088.175.088.351.088.439 0 .44-.264.703-.79.703h-3.338c-.439 0-.79-.088-.965-.263-.088-.088-.176-.176-.264-.352l-3.864-8.439c-.175-.263-.35-.439-.702-.439h-.615c-.263 0-.351.088-.351.351v8.088c0 .527-.088.791-.263.966-.176.088-.44.176-.878.176h-2.547c-.351 0-.615 0-.79-.088-.264-.175-.352-.527-.352-.967V95.2c0-.352 0-.615.088-.791.351-.264.615-.44 1.142-.44zm3.688 4.746v3.956c0 .351.175.527.439.527h1.493c.878 0 1.668-.264 2.195-.703.527-.44.79-1.055.79-1.846 0-.703-.175-1.23-.614-1.67-.527-.528-1.318-.791-2.371-.791h-1.405c-.351 0-.527.175-.527.527z" fill="#30469C"/>
    <path d="M53.388 103.639v11.955c0 .527-.087.791-.263.966-.176.088-.44.176-.878.176H49.7c-.35 0-.614 0-.79-.088-.263-.175-.351-.527-.351-.967V95.2c0-.352 0-.615.088-.791.175-.264.526-.352.966-.352h3.073c.351 0 .615.088.878.352.088.088.263.263.351.44l3.513 7.032c0 .087.087.263.175.351l.176.176c.088 0 .175-.088.263-.264.088-.176.088-.263.088-.263l3.512-6.945c.176-.352.352-.527.527-.703.176-.088.44-.176.703-.176h2.722c.527 0 .79.088.966.264.088.176.175.44.175.879v20.481c0 .528-.087.792-.263.967-.176.088-.439.176-.878.176h-2.546c-.527 0-.79-.088-.966-.264-.088-.175-.176-.439-.176-.879v-11.515c0-.088-.088-.176-.088-.176l-.088.088-2.546 6.065c-.088.352-.264.616-.351.704-.088.088-.264.176-.527.176h-1.23c-.35 0-.702-.264-.878-.88l-2.634-6.329c0-.175-.088-.175-.176-.175z" fill="#30469C"/>
    <path d="M74.287 93.97h4.127c.264 0 .527.087.703.175.175.088.263.352.439.703l5.268 20.833c0 .088.088.264.088.44 0 .352-.263.527-.702.527h-3.161c-.352 0-.527-.088-.703-.263-.176-.176-.263-.352-.351-.616l-.615-2.461c-.088-.352-.263-.527-.614-.527h-4.479c-.351 0-.615.175-.615.527l-.614 2.549c0 .176-.176.44-.264.528-.175.175-.35.263-.702.263H68.93c-.44 0-.615-.175-.615-.615v-.176c0-.088.088-.176.088-.176l5.005-20.833c.088-.351.176-.615.351-.703 0-.088.264-.176.527-.176zm.703 14.503h2.722c.263 0 .351-.176.263-.527l-1.405-5.714c0-.088-.088-.176-.088-.176l-.087-.088c-.088.088-.176.264-.264.352l-1.23 5.714c-.175.351-.087.439.089.439z" fill="#30469C"/>
    <path d="M10.976 21.976c6.062 0 10.976-4.92 10.976-10.988C21.953 4.919 17.038 0 10.976 0 4.914 0 0 4.92 0 10.988c0 6.069 4.914 10.988 10.976 10.988z" fill="#30469C"/>
    <path d="M42.5 21.976c6.062 0 10.976-4.92 10.976-10.988C53.476 4.919 48.562 0 42.5 0c-6.062 0-10.976 4.92-10.976 10.988 0 6.069 4.914 10.988 10.976 10.988z" fill="#30469C"/>
    <path d="M74.024 21.976c6.062 0 10.976-4.92 10.976-10.988C85 4.919 80.086 0 74.024 0c-6.062 0-10.977 4.92-10.977 10.988 0 6.069 4.915 10.988 10.977 10.988z" fill="#30469C"/>
    <path d="M10.976 53.446c6.062 0 10.976-4.92 10.976-10.988 0-6.069-4.914-10.988-10.976-10.988C4.914 31.47 0 36.389 0 42.457c0 6.068 4.914 10.988 10.976 10.988z" fill="#30469C"/>
    <path d="M42.5 53.446c6.062 0 10.976-4.92 10.976-10.988 0-6.069-4.914-10.988-10.976-10.988-6.062 0-10.976 4.919-10.976 10.988 0 6.068 4.914 10.988 10.976 10.988z" fill="#30469C"/>
    <path d="M10.976 85.003c6.062 0 10.976-4.92 10.976-10.988 0-6.069-4.914-10.988-10.976-10.988C4.914 63.027 0 67.947 0 74.015c0 6.069 4.914 10.988 10.976 10.988z" fill="#30469C"/>
    <path d="M74.024 53.446c6.062 0 10.976-4.92 10.976-10.988 0-6.069-4.914-10.988-10.976-10.988-6.062 0-10.977 4.919-10.977 10.988 0 6.068 4.915 10.988 10.977 10.988z" fill="#9ACA3E"/>
    <path d="M42.5 85.003c6.062 0 10.976-4.92 10.976-10.988 0-6.069-4.914-10.988-10.976-10.988-6.062 0-10.976 4.92-10.976 10.988 0 6.069 4.914 10.988 10.976 10.988z" fill="#9ACA3E"/>
    <path d="M74.024 85.003c6.062 0 10.976-4.92 10.976-10.988 0-6.069-4.914-10.988-10.976-10.988-6.062 0-10.977 4.92-10.977 10.988 0 6.069 4.915 10.988 10.977 10.988z" fill="#9ACA3E"/>
</symbol><symbol id="ico-color-contact-1" viewBox="0 0 81 82">
    <path d="M20.5 47a1 1 0 1 0 0 2v-2zm34 2a1 1 0 1 0 0-2v2zM74 18.5h1v-1h-1v1zM20.5 49h34v-2h-34v2zM9 19.5h39.5v-2H9v2zm53 0h12v-2H62v2zm11-1v27h2v-27h-2zM47.5 71H11v2h36.5v-2zM2 62V12.7H0V62h2zM8 6.3V56h2V6.3H8zm.2.2a.2.2 0 0 1-.2-.2h2c0-1-.8-1.8-1.8-1.8v2zM2 12.7a6.2 6.2 0 0 1 6.2-6.2v-2A8.2 8.2 0 0 0 0 12.7h2zM11 71a9 9 0 0 1-9-9H0a11 11 0 0 0 11 11v-2z" fill="#A01E25"/>
    <path d="M30.5 36l6.5 7m20-33l6.5 7M61 6l6.5 7m11.66 27.84L39.84 80.16a.2.2 0 0 0 .14.34H78.5a1 1 0 0 0 1-1V40.98a.2.2 0 0 0-.34-.14z" stroke="#A01E25" stroke-width="2"/>
    <path d="M70.66 59.34L58.34 71.66a.2.2 0 0 0 .14.34H70a1 1 0 0 0 1-1V59.48a.2.2 0 0 0-.34-.14z" stroke="#A01E25" stroke-width="2"/>
    <path d="M76 53.5a1 1 0 1 0 0 2v-2zm3.5 0H76v2h3.5v-2zM76 60a1 1 0 1 0 0 2v-2zm3.5 0H76v2h3.5v-2zM76 66.5a1 1 0 1 0 0 2v-2zm3.5 0H76v2h3.5v-2zM76 73a1 1 0 1 0 0 2v-2zm3.5 0H76v2h3.5v-2z" fill="#A01E25"/>
    <path d="M1 63c0-3 2.5-8 8-8m21-18.5l-3.85 11.08a.2.2 0 0 0 .26.25L37 43.5 71.14 9.36a2 2 0 0 0 .05-2.77L67.4 2.5a2 2 0 0 0-2.87-.06L30 36.5z" stroke="#A01E25" stroke-width="2"/>
</symbol><symbol id="ico-color-contact-2" viewBox="0 0 80 75">
    <rect x="44" y="21" width="18" height="18" rx="1" stroke="#A01E25" stroke-width="2"/>
    <rect x="22.87" y="15.41" width="10.54" height="10.54" rx="1" transform="rotate(45 22.87 15.41)" stroke="#A01E25" stroke-width="2"/>
    <path d="M22.02 8.12a1 1 0 0 1 1.42 0l9.46 9.46a1 1 0 0 1-.21 1.58l-9.46 5.4a1 1 0 0 1-1 0l-9.46-5.4a1 1 0 0 1-.2-1.58l9.45-9.46z" stroke="#A01E25" stroke-width="2"/>
    <rect x="52" y="11" width="18" height="18" rx="9" stroke="#A01E25" stroke-width="2"/>
    <path d="M12 36a1 1 0 1 0 0 2v-2zm6.5 2a1 1 0 1 0 0-2v2zm5-2a1 1 0 1 0 0 2v-2zm4 2a1 1 0 1 0 0-2v2zM12 38h6.5v-2H12v2zm11.5 0h4v-2h-4v2z" fill="#A01E25"/>
    <rect x="1" y="1" width="78" height="54" rx="3" stroke="#A01E25" stroke-width="2"/>
    <rect x="1" y="-1" width="38" height="4" rx="2" transform="matrix(1 0 0 -1 20 73)" stroke="#A01E25" stroke-width="2"/>
    <path d="M34.69 55l-2.5 15h15.63l-2.5-15H34.68zM1 47.5h78" stroke="#A01E25" stroke-width="2"/>
</symbol><symbol id="ico-color-contact-3" viewBox="0 0 77 80">
    <path d="M75 43.5a1 1 0 1 0 2 0h-2zm2 5a1 1 0 1 0-2 0h2zM59.51 67.13a1 1 0 0 0 .98 1.74l-.98-1.74zm-3.03 3.75a1 1 0 0 0-.96-1.76l.96 1.76zm-34-1.26a1 1 0 0 0-.96 1.76l.96-1.76zm-4.97-.25a1 1 0 1 0 .98-1.74l-.98 1.74zm22.9 9.1l-.47-.89.47.88zm-3.82-.01l-.48.88.48-.88zm37.33-58.1l-.48.88.48-.88zM36.58 2.05l-.48-.88.48.88zM3.05 60.15l-.49.87.49-.88zm.03-39.79l-.48-.88.48.88zm.48.88l33.5-18.31-.96-1.76L2.6 19.48l.96 1.76zM39.94 2.93l33.5 18.31.96-1.76-33.5-18.3-.96 1.75zM75 23.87V43.5h2V23.87h-2zm0 24.63v8.16h2V48.5h-2zm-1.53 10.78l-13.96 7.85.98 1.74 13.96-7.85-.98-1.74zm-17.95 9.84l-15.58 8.46.95 1.76 15.59-8.46-.96-1.76zm-18.45 8.46l-14.6-7.96-.95 1.76 14.59 7.96.96-1.76zm-18.58-9.95L3.54 59.27l-.98 1.75 14.95 8.35.98-1.74zM2 56.65V23.87H0v32.78h2zm37.94 20.93a3 3 0 0 1-2.87 0l-.96 1.76a5 5 0 0 0 4.78 0l-.95-1.76zm33.5-56.34A3 3 0 0 1 75 23.87h2a5 5 0 0 0-2.6-4.39l-.96 1.76zM37.06 2.93a3 3 0 0 1 2.88 0l.96-1.76a5 5 0 0 0-4.8 0l.96 1.76zM75 56.66a3 3 0 0 1-1.53 2.62l.98 1.74A5 5 0 0 0 77 56.66h-2zM3.54 59.27A3 3 0 0 1 2 56.65H0a5 5 0 0 0 2.56 4.37l.98-1.75zM2.6 19.48a5 5 0 0 0-2.6 4.4h2a3 3 0 0 1 1.56-2.64l-.96-1.76z" fill="#A01E25"/>
    <path d="M38.5 16.5L15 29.5V53l23.5 13L62 53V29.5l-23.5-13zM15 53L1.5 59M62 52.5L76 59M38.5 16.5V1" stroke="#A01E25" stroke-width="2"/>
    <path d="M1 21.5l37.5 21 37.5-21m-37.5 21v37" stroke="#A01E25" stroke-width="2"/>
</symbol><symbol id="ico-color-contact-4" viewBox="0 0 85 80">
    <path d="M1 20l-.5-.86-.5.29V20h1zm65 0h1v-.58l-.5-.29-.5.87zM33.5 76.5l-.5.86.5.3.5-.3-.5-.86zm38-29.5a1 1 0 1 0 0 2v-2zm7 2a1 1 0 1 0 0-2v2zm-7 9a1 1 0 1 0 0 2v-2zm7 2a1 1 0 1 0 0-2v2zm0 11.5a1 1 0 1 0 0-2v2zm-7-2a1 1 0 1 0 0 2v-2zM59.2 47.3a1 1 0 0 0-1.4 1.4l1.4-1.4zm1.8 3.2l-.7.7.7.71.7-.7-.7-.71zm5.2-3.8a1 1 0 0 0-1.4-1.4l1.4 1.4zm-7 22.6a1 1 0 0 0-1.4 1.4l1.4-1.4zm1.8 3.2l-.7.7.7.71.7-.7-.7-.71zm5.2-3.8a1 1 0 0 0-1.4-1.4l1.4 1.4zm-7-10.4a1 1 0 0 0-1.4 1.4l1.4-1.4zm1.8 3.2l-.7.7.7.71.7-.7-.7-.71zm5.2-3.8a1 1 0 0 0-1.4-1.4l1.4 1.4zM32.49 1.6l-.5-.87.5.86zm2.03 0l.51-.86-.5.86zM2 58.08l.5-.86-.5.86zm-.5-37.22L33 2.46 31.98.73.5 19.13l1 1.73zM65 20v12h2V20h-2zM0 20v36.35h2V20H0zm1.49 38.94l31.5 18.42L34 75.64 2.5 57.22l-1.01 1.72zM34 77.37l19-11-1-1.74-19 11 1 1.74zm0-37.5l32.5-19-1-1.73-32.5 19 1 1.72zM32.5 39v37.5h2V39h-2zM.51 20.87l16 9 .98-1.74-16-9-.98 1.74zm15.97 8.99l16.5 10 1.04-1.72-16.5-10-1.04 1.72zM34 2.46l15 8.9 1.02-1.72-15-8.9L34 2.46zm15 8.9l16.5 9.5 1-1.73L50 9.63l-1 1.74zm-31.5 18.5L50 11.37l-1-1.73-32.5 18.5 1 1.74zM66 31h-2v2h2v-2zm-2 9h8.5v-2H64v2zm8.5-9H66v2h6.5v-2zm3 6v-1.5h-2V37h2zm0-1.5V34h-2v1.5h2zm-1 1H80v-2h-5.5v2zm8.5 3V75h2V39.5h-2zM80 78H56.5v2H80v-2zm-26.5-3V39.5h-2V75h2zM61 34v1.5h2V34h-2zm0 1.5V37h2v-1.5h-2zm-4.5 1H62v-2h-5.5v2zm15 12.5h7v-2h-7v2zm0 11h7v-2h-7v2zm7 9.5h-7v2h7v-2zM57.8 48.7l2.5 2.5 1.4-1.4-2.5-2.5-1.4 1.4zm3.9 2.5l4.5-4.5-1.4-1.4-4.5 4.5 1.4 1.4zm-3.9 19.5l2.5 2.5 1.4-1.4-2.5-2.5-1.4 1.4zm3.9 2.5l4.5-4.5-1.4-1.4-4.5 4.5 1.4 1.4zm-3.9-13.5l2.5 2.5 1.4-1.4-2.5-2.5-1.4 1.4zm3.9 2.5l4.5-4.5-1.4-1.4-4.5 4.5 1.4 1.4zm-8.2-22.7a3 3 0 0 1 3-3v-2a5 5 0 0 0-5 5h2zm3 38.5a3 3 0 0 1-3-3h-2a5 5 0 0 0 5 5v-2zM83 75a3 3 0 0 1-3 3v2a5 5 0 0 0 5-5h-2zM72.5 33a1 1 0 0 1 1 1h2a3 3 0 0 0-3-3v2zM32.99 2.46a1 1 0 0 1 1.01 0L35.02.74a3 3 0 0 0-3.04 0l1 1.72zM72.5 40a3 3 0 0 0 3-3h-2a1 1 0 0 1-1 1v2zM64 31a3 3 0 0 0-3 3h2a1 1 0 0 1 1-1v-2zm16 5.5a3 3 0 0 1 3 3h2a5 5 0 0 0-5-5v2zM0 56.35a3 3 0 0 0 1.49 2.6l1-1.73a1 1 0 0 1-.49-.87H0zM64 38a1 1 0 0 1-1-1h-2a3 3 0 0 0 3 3v-2z" fill="#A01E25"/>
</symbol><symbol id="ico-color-example" viewBox="0 0 51.9 51.9">
    <circle cx="26" cy="26" r="26" fill="#fc2c38"/>
    <path d="M40 21.9h-.8l-3.1-8.7H16l-3.1 8.7H8.8v2.8h3.1v14h5.4v-4.4h17.3v4.4H40V24.6h3.1v-2.8H40zm-22.1-6.5h16.5l2.4 6.5H15.5l2.4-6.5zm3.9 13.7h-6.5v-2.8h6.5v2.8zm15.3 0h-6.5v-2.8h6.5v2.8z" fill-rule="evenodd" clip-rule="evenodd" fill="#fff"/>
</symbol><symbol id="ico-color-graph-bg-xl" viewBox="0 0 1045 518">
    <path d="M339 0a2 2 0 1 0 0 4V0zm443 517.5a2 2 0 1 0 0-4v4zM0 387a2 2 0 1 0 4 0H0zM339 4h4.96V0H339v4zm14.88 0h9.92V0h-9.92v4zm19.83 0h9.92V0h-9.92v4zm19.84 0h9.92V0h-9.92v4zm19.84 0h9.91V0h-9.91v4zm19.83 0h9.92V0h-9.92v4zm19.84 0h9.92V0h-9.92v4zm19.83 0h9.92V0h-9.92v4zm19.84 0h9.92V0h-9.92v4zm19.84 0h9.91V0h-9.91v4zm19.83 0h9.92V0h-9.92v4zm19.84 0h9.92V0h-9.92v4zm19.84 0h9.91V0h-9.91v4zm19.83 0h9.92V0h-9.92v4zm19.84 0h9.92V0h-9.92v4zm19.83 0h9.92V0h-9.92v4zm19.84 0h9.92V0h-9.92v4zm19.84 0h9.91V0h-9.91v4zm19.83 0h9.92V0h-9.92v4zm19.84 0h9.92V0h-9.92v4zm19.84 0h9.91V0h-9.91v4zm19.83 0h9.92V0h-9.92v4zm19.84 0h9.91V0h-9.91v4zm19.83 0h9.92V0h-9.92v4zm19.84 0h9.92V0h-9.92v4zm19.84 0h9.91V0h-9.91v4zm19.83 0h9.92V0h-9.92v4zm19.84 0h9.92V0h-9.92v4zm19.83 0h9.92V0h-9.92v4zm19.84 0h4.96V0h-4.96v4zm4.96 0c1.66 0 3.32.03 4.97.1l.15-4c-1.7-.07-3.4-.1-5.12-.1v4zm14.85.86c3.3.4 6.57.9 9.8 1.54l.77-3.92c-3.33-.66-6.7-1.19-10.1-1.59l-.47 3.97zm19.43 3.85c3.2.9 6.34 1.92 9.43 3.06l1.38-3.75a129.18 129.18 0 0 0-9.72-3.16l-1.09 3.85zm18.59 6.86c3 1.39 5.95 2.9 8.83 4.5l1.95-3.48c-2.96-1.67-6-3.22-9.1-4.65l-1.68 3.63zm17.27 9.7a121.5 121.5 0 0 1 8.02 5.83l2.48-3.14a130.59 130.59 0 0 0-8.27-6.02l-2.23 3.32zm15.56 12.27c2.43 2.25 4.76 4.58 7.01 7.01l2.94-2.71c-2.32-2.5-4.73-4.92-7.24-7.24l-2.71 2.94zm13.45 14.55c2.05 2.59 3.99 5.26 5.84 8.01l3.32-2.22c-1.9-2.84-3.91-5.6-6.02-8.27l-3.14 2.48zm11.02 16.46c1.62 2.88 3.12 5.82 4.51 8.83l3.63-1.68c-1.43-3.1-2.98-6.14-4.65-9.1l-3.49 1.95zm8.31 18c1.14 3.08 2.16 6.22 3.06 9.42l3.85-1.09a128.1 128.1 0 0 0-3.16-9.72l-3.75 1.38zm5.37 19.06a131 131 0 0 1 1.54 9.79l3.97-.47c-.4-3.4-.93-6.77-1.59-10.1l-3.92.78zm2.3 19.67c.07 1.65.1 3.3.1 4.97h4c0-1.71-.03-3.42-.1-5.12l-4 .16zm.1 4.97c0 1.66-.03 3.32-.1 4.97l4 .15c.07-1.7.1-3.4.1-5.12h-4zm-.86 14.85a131 131 0 0 1-1.54 9.8l3.92.77c.66-3.33 1.19-6.7 1.59-10.1l-3.97-.47zm-3.85 19.44c-.9 3.19-1.92 6.33-3.06 9.42l3.75 1.38c1.18-3.18 2.23-6.43 3.16-9.72l-3.85-1.09zm-6.86 18.58c-1.39 3-2.89 5.95-4.51 8.83l3.49 1.96c1.67-2.97 3.22-6.01 4.65-9.12l-3.63-1.67zm-9.69 17.28a128.5 128.5 0 0 1-5.84 8.01l3.14 2.48c2.11-2.67 4.12-5.43 6.02-8.27l-3.32-2.22zm-12.28 15.55a126.69 126.69 0 0 1-7.01 7l2.71 2.95c2.51-2.32 4.92-4.73 7.24-7.24l-2.94-2.71zm-14.55 13.45c-2.59 2.05-5.26 4-8.01 5.84l2.22 3.32c2.84-1.9 5.6-3.9 8.27-6.02l-2.48-3.14zm-16.46 11.02a125.39 125.39 0 0 1-8.83 4.51l1.67 3.63c3.11-1.43 6.15-2.98 9.12-4.65l-1.96-3.49zm-18 8.3a125.6 125.6 0 0 1-9.42 3.07l1.09 3.85c3.3-.93 6.54-1.98 9.72-3.16l-1.38-3.75zm-19.06 5.38c-3.22.63-6.49 1.15-9.79 1.54l.47 3.97c3.4-.4 6.77-.93 10.1-1.59l-.78-3.92zm-19.67 2.3c-1.65.07-3.3.1-4.97.1v4c1.71 0 3.42-.03 5.12-.1l-.15-4zm-4.97.1h-5.02v4h5.02v-4zm-15.07 0h-10.05v4h10.05v-4zm-20.1 0h-10.05v4h10.05v-4zm-20.1 0h-10.04v4h10.05v-4zm-20.1 0h-10.04v4h10.05v-4zm-20.09 0h-10.04v4h10.04v-4zm-20.1 0h-10.04v4h10.05v-4zm-20.09 0h-10.05v4h10.05v-4zm-20.1 0h-10.04v4h10.04v-4zm-20.1 0h-10.04v4h10.05v-4zm-20.09 0h-10.05v4h10.05v-4zm-20.1 0h-10.04v4h10.05v-4zm-20.09 0h-10.05v4h10.05v-4zm-20.1 0h-10.04v4h10.04v-4zm-20.1 0h-10.04v4h10.05v-4zm-20.09 0h-10.05v4h10.05v-4zm-20.1 0H587.7v4h10.05v-4zm-20.1 0H567.6v4h10.05v-4zm-20.09 0H547.5v4h10.04v-4zm-20.1 0H527.4v4h10.05v-4zm-20.09 0H507.3v4h10.05v-4zm-20.1 0h-10.04v4h10.05v-4zm-20.1 0h-10.04v4h10.05v-4zm-20.09 0h-10.05v4h10.05v-4zm-20.1 0h-10.04v4h10.05v-4zm-20.09 0h-10.05v4h10.05v-4zm-20.1 0h-10.04v4h10.04v-4zm-20.1 0h-10.04v4h10.05v-4zm-20.09 0h-10.05v4h10.05v-4zm-20.1 0h-10.04v4h10.05v-4zm-20.09 0h-10.05v4h10.05v-4zm-20.1 0h-10.05v4h10.05v-4zm-20.1 0h-10.04v4h10.05v-4zm-20.09 0h-10.05v4h10.05v-4zm-20.1 0h-10.04v4H236v-4zm-20.1 0h-10.04v4h10.05v-4zm-20.09 0h-10.05v4h10.05v-4zm-20.1 0h-10.04v4h10.05v-4zm-20.09 0h-10.05v4h10.05v-4zm-20.1 0h-5.02v4h5.02v-4zm-5.02 0c-1.72 0-3.43.03-5.13.1l.16 4c1.64-.07 3.3-.1 4.97-.1v-4zm-15.35.9c-3.41.4-6.79.93-10.12 1.58l.78 3.93a126 126 0 0 1 9.81-1.54l-.47-3.98zm-20.09 3.97c-3.3.93-6.55 1.99-9.74 3.16l1.38 3.76a125.6 125.6 0 0 1 9.45-3.07l-1.09-3.85zm-19.21 7.09c-3.11 1.44-6.15 3-9.13 4.66l1.96 3.49c2.88-1.62 5.83-3.13 8.85-4.52l-1.68-3.63zm-17.86 10.02c-2.84 1.9-5.6 3.92-8.29 6.03l2.48 3.14c2.6-2.05 5.28-4 8.04-5.84l-2.23-3.33zm-16.07 12.69c-2.51 2.32-4.93 4.74-7.25 7.25l2.94 2.71a127.2 127.2 0 0 1 7.02-7.02l-2.71-2.94zm-13.9 15.03a130.91 130.91 0 0 0-6.04 8.3l3.33 2.22c1.84-2.76 3.8-5.44 5.84-8.04l-3.14-2.48zm-11.4 17.02a129.86 129.86 0 0 0-4.66 9.13l3.63 1.68c1.4-3.02 2.9-5.97 4.52-8.85l-3.49-1.96zm-8.59 18.6c-1.17 3.2-2.23 6.44-3.16 9.74l3.85 1.09c.9-3.2 1.92-6.35 3.07-9.45l-3.76-1.38zm-5.55 19.71c-.65 3.33-1.19 6.7-1.59 10.12l3.98.47c.38-3.31.9-6.58 1.54-9.81l-3.93-.78zM.1 381.87c-.07 1.7-.1 3.41-.1 5.13h4c0-1.67.03-3.32.1-4.98l-4-.15zM0 387c0 1.72.03 3.43.1 5.13l4-.15c-.07-1.66-.1-3.31-.1-4.98H0zm.9 15.35c.4 3.41.93 6.79 1.58 10.12l3.93-.78a126.2 126.2 0 0 1-1.54-9.81l-3.98.47zm3.97 20.09c.93 3.3 1.99 6.55 3.16 9.74l3.76-1.38c-1.15-3.1-2.17-6.25-3.07-9.45l-3.85 1.09zm7.09 19.21c1.44 3.11 3 6.16 4.66 9.13l3.49-1.96a125.99 125.99 0 0 1-4.52-8.85l-3.63 1.68zm10.02 17.86c1.9 2.84 3.92 5.6 6.03 8.29l3.14-2.48c-2.05-2.6-4-5.28-5.84-8.04l-3.33 2.23zm12.69 16.07c2.32 2.51 4.74 4.93 7.25 7.25l2.71-2.94a127.2 127.2 0 0 1-7.02-7.02l-2.94 2.71zm15.03 13.9c2.68 2.12 5.45 4.13 8.3 6.04l2.22-3.33c-2.76-1.84-5.44-3.8-8.04-5.84l-2.48 3.14zm17.02 11.4c2.98 1.67 6.02 3.22 9.13 4.66l1.68-3.63c-3.02-1.4-5.97-2.9-8.85-4.52l-1.96 3.49zm18.6 8.59a129.9 129.9 0 0 0 9.74 3.16l1.09-3.85c-3.2-.9-6.35-1.92-9.45-3.07l-1.38 3.76zm19.71 5.55c3.33.65 6.7 1.19 10.12 1.59l.47-3.98a126 126 0 0 1-9.81-1.54l-.78 3.93zm20.34 2.38c1.7.07 3.41.1 5.13.1v-4c-1.67 0-3.33-.03-4.97-.1l-.16 4zm5.13.1h4.94v-4h-4.94v4zm14.8 0h9.88v-4h-9.87v4zm19.75 0h9.87v-4h-9.87v4zm19.74 0h9.87v-4h-9.87v4zm19.74 0h9.88v-4h-9.88v4zm19.75 0h9.87v-4h-9.87v4zm19.74 0h9.87v-4h-9.87v4zm19.74 0h9.87v-4h-9.87v4zm19.74 0h9.88v-4h-9.88v4zm19.75 0h9.87v-4h-9.87v4zm19.74 0h9.87v-4h-9.87v4zm19.74 0h9.87v-4h-9.87v4zm19.74 0h9.88v-4h-9.88v4zm19.75 0h9.87v-4h-9.87v4zm19.74 0h9.87v-4h-9.87v4zm19.74 0h9.87v-4h-9.87v4zm19.74 0h9.87v-4h-9.87v4zm19.75 0h9.87v-4h-9.87v4zm19.74 0h9.87v-4h-9.87v4zm19.74 0h9.87v-4h-9.87v4zm19.74 0h9.87v-4h-9.87v4zm19.75 0h9.87v-4h-9.88v4zm19.74 0h9.87v-4h-9.87v4zm19.74 0h9.87v-4h-9.87v4zm19.74 0h9.87v-4h-9.87v4zm19.75 0H629v-4h-9.88v4zm19.74 0h9.87v-4h-9.87v4zm19.74 0h9.87v-4h-9.87v4zm19.74 0h9.87v-4h-9.87v4zm19.75 0h9.87v-4h-9.88v4zm19.74 0h9.87v-4h-9.87v4zm19.74 0h9.87v-4h-9.87v4zm19.74 0h9.87v-4h-9.87v4zm19.75 0H782v-4h-4.93v4z" fill="#E0E0E0"/>
</symbol><symbol id="ico-color-graph-bg" viewBox="0 0 1362 518">
    <path d="M359 0a2 2 0 1 0 0 4V0zm643 517.5a2 2 0 0 0 0-4v4zM0 387a2 2 0 1 0 4 0H0zM359 4h4.96V0H359v4zm14.88 0h9.91V0h-9.91v4zm19.83 0h9.92V0h-9.92v4zm19.84 0h9.91V0h-9.91v4zm19.83 0h9.92V0h-9.92v4zm19.84 0h9.91V0h-9.91v4zm19.83 0h9.92V0h-9.92v4zm19.84 0h9.92V0h-9.92v4zm19.83 0h9.92V0h-9.92v4zm19.84 0h9.92V0h-9.92v4zm19.83 0h9.92V0h-9.92v4zm19.84 0h9.92V0h-9.92v4zm19.83 0h9.92V0h-9.92v4zm19.84 0h9.92V0h-9.92v4zm19.83 0h9.92V0h-9.92v4zm19.84 0h9.92V0h-9.92v4zm19.83 0h9.92V0h-9.92v4zm19.84 0h9.92V0h-9.92v4zm19.84 0h9.91V0h-9.91v4zm19.83 0h9.92V0h-9.92v4zm19.84 0h9.91V0h-9.91v4zm19.83 0h9.92V0h-9.92v4zm19.84 0h9.91V0h-9.91v4zm19.83 0h9.92V0h-9.92v4zm19.84 0H840V0h-9.91v4zm19.83 0h9.92V0h-9.92v4zm19.84 0h9.91V0h-9.91v4zm19.83 0h9.92V0h-9.92v4zm19.84 0h9.92V0h-9.92v4zm19.83 0h9.92V0h-9.92v4zm19.84 0h9.9V0h-9.91v4zm19.83 0h9.92V0h-9.92v4zm19.84 0h9.92V0h-9.92v4zm19.83 0h9.92V0h-9.92v4zm19.84 0h9.92V0h-9.92v4zm19.83 0h9.92V0h-9.92v4zm19.84 0h9.92V0h-9.92v4zm19.83 0h9.92V0h-9.92v4zm19.84 0h9.92V0h-9.92v4zm19.83 0h9.92V0h-9.92v4zm19.84 0h9.92V0h-9.92v4zm19.83 0h9.92V0h-9.92v4zm19.84 0h9.92V0h-9.92v4zm19.84 0h9.91V0h-9.91v4zm19.83 0h4.96V0h-4.96v4zm4.96 0c1.66 0 3.32.03 4.97.1l.15-4c-1.7-.07-3.41-.1-5.12-.1v4zm14.85.86c3.31.4 6.57.9 9.79 1.54l.78-3.92c-3.33-.66-6.69-1.19-10.1-1.59l-.47 3.97zm19.43 3.85c3.2.9 6.34 1.92 9.43 3.06l1.38-3.75a127.87 127.87 0 0 0-9.72-3.16l-1.09 3.85zm18.59 6.86a126.6 126.6 0 0 1 8.83 4.5l1.96-3.48a131.59 131.59 0 0 0-9.11-4.65l-1.68 3.63zm17.28 9.7c2.75 1.84 5.42 3.78 8.01 5.83l2.48-3.14a128.87 128.87 0 0 0-8.27-6.02l-2.22 3.32zm15.55 12.27c2.43 2.25 4.76 4.58 7.01 7.01l2.94-2.71c-2.32-2.5-4.73-4.92-7.24-7.24l-2.71 2.94zm13.45 14.55c2.05 2.59 3.99 5.26 5.84 8.01l3.32-2.22c-1.9-2.84-3.91-5.6-6.02-8.27l-3.14 2.48zm11.02 16.46c1.62 2.88 3.12 5.82 4.51 8.83l3.63-1.68c-1.43-3.1-2.98-6.14-4.65-9.1l-3.49 1.95zm8.31 18c1.14 3.08 2.16 6.22 3.06 9.42l3.85-1.09a128.1 128.1 0 0 0-3.16-9.72l-3.75 1.38zm5.37 19.06a131 131 0 0 1 1.54 9.79l3.97-.47c-.4-3.4-.93-6.77-1.59-10.1l-3.92.78zm2.3 19.67c.07 1.65.1 3.3.1 4.97h4c0-1.71-.03-3.42-.1-5.12l-4 .16zm.1 4.97c0 1.66-.03 3.32-.1 4.97l4 .15c.07-1.7.1-3.4.1-5.12h-4zm-.86 14.85a131 131 0 0 1-1.54 9.8l3.92.77c.66-3.33 1.19-6.7 1.59-10.1l-3.97-.47zm-3.85 19.44c-.9 3.19-1.92 6.33-3.06 9.42l3.75 1.38c1.18-3.18 2.23-6.43 3.16-9.72l-3.85-1.09zm-6.86 18.58c-1.39 3-2.89 5.95-4.51 8.83l3.49 1.96c1.67-2.97 3.22-6.01 4.65-9.12l-3.63-1.67zm-9.69 17.28a128.5 128.5 0 0 1-5.84 8.01l3.14 2.48c2.11-2.67 4.12-5.43 6.02-8.27l-3.32-2.22zm-12.28 15.55a127.35 127.35 0 0 1-7.01 7l2.71 2.95c2.51-2.32 4.92-4.73 7.24-7.24l-2.94-2.71zm-14.55 13.45c-2.59 2.05-5.26 4-8.01 5.84l2.22 3.32c2.84-1.9 5.6-3.9 8.27-6.02l-2.48-3.14zm-16.46 11.02a126.3 126.3 0 0 1-8.83 4.51l1.68 3.63c3.1-1.43 6.14-2.98 9.11-4.65l-1.96-3.49zm-17.99 8.3a125.45 125.45 0 0 1-9.43 3.07l1.09 3.85c3.3-.93 6.54-1.98 9.72-3.16l-1.38-3.75zm-19.07 5.38a125.5 125.5 0 0 1-9.79 1.54l.47 3.97c3.41-.4 6.77-.93 10.1-1.59l-.78-3.92zm-19.67 2.3c-1.65.07-3.31.1-4.97.1v4c1.71 0 3.42-.03 5.12-.1l-.15-4zm-4.97.1h-5.01v4h5.01v-4zm-15.02 0h-10.01v4h10.01v-4zm-20.02 0h-10.01v4h10.01v-4zm-20.02 0h-10.01v4h10.01v-4zm-20.03 0h-10.01v4h10.01v-4zm-20.02 0h-10.01v4h10.01v-4zm-20.02 0h-10.01v4h10.01v-4zm-20.02 0h-10.01v4h10.01v-4zm-20.03 0h-10.01v4h10.01v-4zm-20.02 0h-10.01v4h10.01v-4zm-20.02 0h-10.01v4h10.01v-4zm-20.02 0h-10.02v4h10.02v-4zm-20.03 0h-10v4h10v-4zm-20.02 0h-10.01v4h10.01v-4zm-20.02 0h-10.01v4h10v-4zm-20.03 0h-10v4h10v-4zm-20.02 0h-10v4h10v-4zm-20.02 0h-10.01v4h10v-4zm-20.02 0h-10.01v4h10v-4zm-20.03 0h-10v4h10v-4zm-20.02 0h-10v4h10.01v-4zm-20.02 0h-10.01v4h10v-4zm-20.02 0h-10.02v4h10.02v-4zm-20.03 0h-10v4h10v-4zm-20.02 0H746.2v4h10.01v-4zm-20.02 0h-10.01v4h10v-4zm-20.03 0h-10v4h10v-4zm-20.02 0h-10v4h10v-4zm-20.02 0h-10.01v4h10.01v-4zm-20.02 0h-10.01v4h10v-4zm-20.03 0h-10v4h10v-4zm-20.02 0h-10.01v4h10.01v-4zm-20.02 0h-10.01v4h10v-4zm-20.02 0H566v4h10v-4zm-20.03 0h-10v4h10v-4zm-20.02 0h-10.01v4h10.01v-4zm-20.02 0h-10.01v4h10v-4zm-20.03 0h-10v4h10v-4zm-20.02 0h-10v4h10v-4zm-20.02 0h-10.01v4h10.01v-4zm-20.02 0h-10.01v4h10v-4zm-20.03 0h-10v4h10v-4zm-20.02 0h-10v4h10.01v-4zm-20.02 0h-10.01v4h10v-4zm-20.02 0h-10.01v4h10v-4zm-20.03 0h-10v4h10v-4zm-20.02 0H305.7v4h10.01v-4zm-20.02 0h-10.01v4h10v-4zm-20.02 0h-10.02v4h10.02v-4zm-20.03 0h-10v4h10v-4zm-20.02 0h-10.01v4h10.01v-4zm-20.02 0h-10.01v4h10v-4zm-20.03 0h-10v4h10v-4zm-20.02 0h-10v4h10v-4zm-20.02 0h-10.01v4h10v-4zm-20.02 0h-5.01v4h5v-4zm-5.01 0c-1.72 0-3.43.03-5.13.1l.16 4c1.64-.07 3.3-.1 4.97-.1v-4zm-15.35.9c-3.41.4-6.79.93-10.12 1.58l.78 3.93a126 126 0 0 1 9.81-1.54l-.47-3.98zm-20.09 3.97c-3.3.93-6.55 1.99-9.74 3.16l1.38 3.76a125.6 125.6 0 0 1 9.45-3.07l-1.09-3.85zm-19.21 7.09c-3.11 1.44-6.15 3-9.13 4.66l1.96 3.49c2.88-1.62 5.83-3.13 8.85-4.52l-1.68-3.63zm-17.86 10.02c-2.84 1.9-5.6 3.92-8.29 6.03l2.48 3.14c2.6-2.05 5.28-4 8.04-5.84l-2.23-3.33zm-16.07 12.69c-2.51 2.32-4.93 4.74-7.25 7.25l2.94 2.71c2.25-2.43 4.59-4.77 7.02-7.02l-2.71-2.94zm-13.9 15.03a130.95 130.95 0 0 0-6.04 8.3l3.33 2.22c1.84-2.76 3.8-5.44 5.84-8.04l-3.14-2.48zm-11.4 17.02a129.9 129.9 0 0 0-4.66 9.13l3.63 1.68c1.4-3.02 2.9-5.97 4.52-8.85l-3.49-1.96zm-8.59 18.6c-1.17 3.2-2.23 6.44-3.16 9.74l3.85 1.09c.9-3.2 1.92-6.35 3.07-9.45l-3.76-1.38zm-5.55 19.71c-.65 3.33-1.19 6.7-1.59 10.12l3.98.47c.38-3.31.9-6.58 1.54-9.81l-3.93-.78zM.1 381.87c-.07 1.7-.1 3.41-.1 5.13h4c0-1.67.03-3.32.1-4.98l-4-.15zM0 387c0 1.72.03 3.43.1 5.13l4-.15c-.07-1.66-.1-3.31-.1-4.98H0zm.9 15.35c.4 3.41.93 6.79 1.58 10.12l3.93-.78a126.2 126.2 0 0 1-1.54-9.81l-3.98.47zm3.97 20.09c.93 3.3 1.99 6.55 3.16 9.74l3.76-1.38c-1.15-3.1-2.17-6.25-3.07-9.45l-3.85 1.09zm7.09 19.21c1.44 3.11 3 6.16 4.66 9.13l3.49-1.96a125.99 125.99 0 0 1-4.52-8.85l-3.63 1.68zm10.02 17.86c1.9 2.84 3.92 5.6 6.03 8.29l3.14-2.48c-2.05-2.6-4-5.28-5.84-8.04l-3.33 2.23zm12.69 16.07c2.32 2.51 4.74 4.93 7.25 7.25l2.71-2.94a127.2 127.2 0 0 1-7.02-7.02l-2.94 2.71zm15.03 13.9c2.68 2.12 5.45 4.13 8.3 6.04l2.22-3.33c-2.76-1.84-5.44-3.8-8.04-5.84l-2.48 3.14zm17.02 11.4c2.98 1.67 6.02 3.22 9.13 4.66l1.68-3.63c-3.02-1.4-5.97-2.9-8.85-4.52l-1.96 3.49zm18.6 8.59a129.9 129.9 0 0 0 9.74 3.16l1.09-3.85c-3.2-.9-6.35-1.92-9.45-3.07l-1.38 3.76zm19.71 5.55c3.33.65 6.7 1.19 10.12 1.59l.47-3.98a126 126 0 0 1-9.81-1.54l-.78 3.93zm20.34 2.38c1.7.07 3.41.1 5.13.1v-4c-1.67 0-3.33-.03-4.97-.1l-.16 4zm5.13.1h4.95v-4h-4.95v4zm14.85 0h9.9v-4h-9.9v4zm19.81 0h9.9v-4h-9.9v4zm19.8 0h9.91v-4h-9.9v4zm19.82 0h9.9v-4h-9.9v4zm19.8 0h9.9v-4h-9.9v4zm19.8 0h9.91v-4h-9.9v4zm19.82 0h9.9v-4h-9.9v4zm19.8 0h9.9v-4H284v4zm19.81 0h9.9v-4h-9.9v4zm19.8 0h9.91v-4h-9.9v4zm19.81 0h9.9v-4h-9.9v4zm19.81 0h9.9v-4h-9.9v4zm19.8 0h9.91v-4h-9.9v4zm19.81 0h9.9v-4h-9.9v4zm19.81 0h9.9v-4h-9.9v4zm19.8 0h9.91v-4h-9.9v4zm19.81 0h9.9v-4h-9.9v4zm19.81 0h9.9v-4h-9.9v4zm19.8 0h9.91v-4h-9.9v4zm19.81 0h9.9v-4h-9.9v4zm19.81 0h9.9v-4h-9.9v4zm19.8 0h9.91v-4h-9.9v4zm19.82 0h9.9v-4h-9.9v4zm19.8 0h9.9v-4h-9.9v4zm19.8 0h9.91v-4h-9.9v4zm19.82 0h9.9v-4h-9.9v4zm19.8 0h9.9v-4h-9.9v4zm19.8 0h9.91v-4h-9.9v4zm19.82 0h9.9v-4h-9.9v4zm19.8 0h9.9v-4h-9.9v4zm19.81 0h9.9v-4h-9.9v4zm19.8 0h9.91v-4h-9.9v4zm19.81 0h9.9v-4h-9.9v4zm19.81 0h9.9v-4h-9.9v4zm19.8 0h9.91v-4h-9.9v4zm19.81 0h9.9v-4h-9.9v4zm19.81 0h9.9v-4h-9.9v4zm19.8 0h9.91v-4h-9.9v4zm19.81 0h9.9v-4h-9.9v4zm19.81 0h9.9v-4h-9.9v4zm19.8 0h9.91v-4h-9.9v4zm19.81 0h9.9v-4h-9.9v4zm19.81 0h9.9v-4h-9.9v4zm19.8 0h4.96v-4h-4.95v4z" fill="#E0E0E0"/>
</symbol><symbol id="ico-color-home-design" viewBox="0 0 73 82">
    <path d="M9.824 19.823l-.84-.543-.16.248v.296h1zm52.94 0h1v-.295l-.16-.248-.84.543zM41 47.471l-.707.707.293.293H41v-1zm5.294 0v1h.414l.293-.293-.707-.707zm16.47 22.176a1 1 0 0 0 0-2v2zm-18.235-2a1 1 0 1 0 0 2v-2zm-1.588-29a1 1 0 0 0 2 0h-2zm6.34 5.837l-.707-.707.707.707zm8.195-32.834l-.84.544.84-.544zm-42.364 0l-.84-.543.84.543zm47.053-8.708l.858-.514-.858.514zM38.054 44.525l.707-.708-.707.708zm32.964-26.828l-.857.515.857-.515zm-69.448 0l-.857-.514.857.514zM0 19.755v50.657h2V19.755H0zm72.588 50.186V19.755h-2v50.186h2zm-.712-52.758L63.023 2.428l-1.715 1.029 8.853 14.755 1.715-1.03zM58.736 0H13.852v2h44.882V0zM9.565 2.428L.713 17.183l1.715 1.029L11.28 3.457l-1.715-1.03zM3.529 73.94V79h2v-5.059h-2zm3 8.059h9.53v-2h-9.53v2zm-2-7.059h13.53v-2H4.529v2zM19.06 79v-5.059h-2V79h2zm46.059-4.059h2.47v-2h-2.47v2zm-1-1V79h2v-5.059h-2zm-1 6.059h-9.53v2h9.53v-2zm-45.06-5.059h33.53v-2h-33.53v2zm33.53 0h13.53v-2h-13.53v2zm1 4.059v-5.059h-2V79h2zM10.663 20.367l5.288-8.173-1.679-1.087-5.288 8.173 1.68 1.087zm7.807-9.544h35.648v-2H18.47v2zm38.167 1.37l5.288 8.174 1.68-1.087-5.29-8.173-1.678 1.087zm2.128 48.983H13.824v2h44.94v-2zm-47.941-35.47v-5.883h-2v5.883h2zm50.94-5.883v5.883h2v-5.883h-2zm0 5.883v29.412h2V25.706h-2zm0 29.412v3.058h2v-3.058h-2zm-50.94 3.058v-3.058h-2v3.058h2zm0-3.058V25.706h-2v29.412h2zm16.058-1H9.824v2h17.058v-2zm1 1v-9.765h-2v9.765h2zm1-10.765h6.343v-2h-6.343v2zm8.465.879l2.946 2.946 1.414-1.414-2.946-2.947-1.414 1.415zM41 48.47h5.294v-2H41v2zm6.001-.293l2.987-2.987-1.414-1.414-2.987 2.986 1.414 1.415zm15.764 5.94H53.94v2h8.824v-2zm-8.824 0H26.882v2h27.06v-2zm-1-8.835v9.835h2v-9.835h-2zm9.824 22.364H44.529v2h18.236v-2zm-33.941.647v.118h2v-.118h-2zm-1 1.118H16.529v2h11.294v-2zm-12.295-1v-.118h-2v.118h2zm1-1.118h11.294v-2H16.53v2zm23.883-50.823h-.765v2h.765v-2zm1 1v-.883h-2v.883h2zm6.823-1h-1.353v2h1.353v-2zm-1.353 0h-6.47v2h6.47v-2zm-1 .117v.883h2v-.883h-2zm1.589 14.824h.764v-2h-.764v2zm-1-1v2.53h2v-2.53h-2zm-6.824 1h.765v-2h-.765v2zm.765 0h7.059v-2h-7.06v2zm1 1.53v-2.53h-2v2.53h2zm5.059 0h-2.53v2h2.53v-2zm-2.53 0h-2.53v2h2.53v-2zm-1 1v4.705h2v-4.706h-2zm7.294-4.53v-3.706h-2v3.706h2zm-1-2.706h13.53v-2h-13.53v2zm1-1v-5.883h-2v5.883h2zm0-5.883v-1.352h-2v1.352h2zm12.53-1h-13.53v2h13.53v-2zm-25.118-.352v1.352h2v-1.352h-2zm1 .352H9.824v2h28.823v-2zm-1 1v5.883h2v-5.883h-2zm0 5.883v3.706h2v-3.706h-2zm-27.823 1h28.823v-2H9.824v2zm33.823-12.353c1.235 0 2.235 1 2.235 2.235h2a4.235 4.235 0 0 0-4.235-4.235v2zm-2.235 2.235c0-1.234 1-2.235 2.235-2.235v-2a4.235 4.235 0 0 0-4.235 4.235h2zm6.823 1.883h2a2 2 0 0 0-2-2v2zm0 12.94a2 2 0 0 0 2-2h-2v2zm-8.588-2h-2a2 2 0 0 0 2 2v-2zM15.53 68.295a1 1 0 0 1 1-1v-2a3 3 0 0 0-3 3h2zm1 1.118a1 1 0 0 1-1-1h-2a3 3 0 0 0 3 3v-2zM49.99 45.19a2.86 2.86 0 0 1 2.022-.838v-2a4.86 4.86 0 0 0-3.437 1.424l1.414 1.414zM13.822 61.176a3 3 0 0 1-3-3h-2a5 5 0 0 0 5 5v-2zm44.942 2a5 5 0 0 0 5-5h-2a3 3 0 0 1-3 3v2zm-4.647-52.352a3 3 0 0 1 2.519 1.37l1.679-1.087a5 5 0 0 0-4.198-2.283v2zM16.058 82a3 3 0 0 0 3-3h-2a1 1 0 0 1-1 1v2zm35.953-37.647a.93.93 0 0 1 .93.93h2a2.93 2.93 0 0 0-2.93-2.93v2zM3.529 79a3 3 0 0 0 3 3v-2a1 1 0 0 1-1-1h-2zM13.853 0a5 5 0 0 0-4.287 2.428l1.714 1.029A3 3 0 0 1 13.854 2V0zm25.794 16.47a2 2 0 0 0-2 2h2v-2zm-23.695-4.276a3 3 0 0 1 2.518-1.37v-2a5 5 0 0 0-4.198 2.283l1.68 1.087zm47.07-9.766A5 5 0 0 0 58.736 0v2a3 3 0 0 1 2.573 1.457l1.715-1.03zM35.226 44.353a3 3 0 0 1 2.122.879l1.414-1.415a5 5 0 0 0-3.536-1.464v2zm37.363-24.598a5 5 0 0 0-.712-2.572l-1.715 1.029a3 3 0 0 1 .427 1.543h2zM27.882 45.353a1 1 0 0 1 1-1v-2a3 3 0 0 0-3 3h2zM70.588 69.94a3 3 0 0 1-3 3v2a5 5 0 0 0 5-5h-2zm-41.764-1.53a1 1 0 0 1-1 1v2a3 3 0 0 0 3-3h-2zM53.587 80a1 1 0 0 1-1-1h-2a3 3 0 0 0 3 3v-2zM39.412 32.941a2 2 0 0 0 2 2v-2h-2zM0 70.411a4.53 4.53 0 0 0 4.53 4.53v-2A2.53 2.53 0 0 1 2 70.411H0zm30.823-2.117a3 3 0 0 0-3-3v2a1 1 0 0 1 1 1h2zM64.118 79a1 1 0 0 1-1 1v2a3 3 0 0 0 3-3h-2zM46.47 32.941v2a2 2 0 0 0 2-2h-2zM2 19.755a3 3 0 0 1 .428-1.543l-1.715-1.03A5 5 0 0 0 0 19.756h2z" fill="#A01E25"/>
</symbol><symbol id="ico-color-home-eco" viewBox="0 0 89 81">
    <path d="M3.05 53.15a1 1 0 0 0 .65 1.9l-.65-1.9zm21.3-6.18l.12-.99-.23-.03-.22.08.32.94zm9.46 12.06a1 1 0 1 0 .06 2l-.06-2zM3.7 55.04l20.96-7.12-.64-1.9-20.97 7.13.65 1.9zm20.51-7.07l35.58 4.62.26-1.98-35.58-4.63-.26 1.99zM59.5 58.33l-25.69.7.06 2 25.68-.7-.05-2zm2.76-2.4a2.88 2.88 0 0 1-2.76 2.4l.05 2a4.88 4.88 0 0 0 4.68-4.08l-1.97-.33zm-2.47-3.34a2.88 2.88 0 0 1 2.47 3.33l1.97.33a4.88 4.88 0 0 0-4.18-5.64l-.26 1.98z" fill="#A01E25"/>
    <path d="M1 74.67l10.8-5.23a4 4 0 0 1 3-.2l30.28 10.1a10 10 0 0 0 9.17-1.5l31.33-23.57a3.9 3.9 0 0 0-4.4-6.41L54.3 64.64a3 3 0 0 1-3 .1l-9.55-5.11" stroke="#A01E25" stroke-width="2"/>
    <path d="M58.76 51.33l11.56-4.57a6 6 0 0 1 6.24 1.15l1.59 1.44" stroke="#A01E25" stroke-width="2"/>
    <path d="M14.4 14.78a1 1 0 1 0-.68 1.88l.67-1.88zm46.95 3.1a1 1 0 1 0-.43-1.95l.43 1.95zm-47.63-1.22c6.76 2.43 25.6 6.01 47.63 1.22l-.43-1.95c-21.64 4.7-40.1 1.16-46.53-1.15l-.67 1.88z" fill="#A01E25"/>
    <path d="M52.21 11.17a1 1 0 1 0-.35-1.97l.35 1.97zM40.6 19.85a28.17 28.17 0 0 1 4.64-4.99c2.1-1.78 4.54-3.26 6.98-3.7l-.35-1.96c-2.94.51-5.7 2.26-7.93 4.13a30.16 30.16 0 0 0-4.98 5.38l1.64 1.14zm9.1 8.74a1 1 0 1 0-.07-2l.07 2zm27.26-19.6l.97.26.3-1.15-1.18-.1-.09 1zM42.15 37.88l.1.99-.1-1zM22.76 17.7l-1-.1 1 .1zM38.19 1.08l-.06-1 .06 1zm23.34 5.14l.4-.92-.4.92zM33.33 19.7c1.45 3.2 6.71 9.23 16.37 8.9l-.07-2c-8.7.3-13.3-5.12-14.49-7.72l-1.82.82zM76 8.74c-2.31 8.72-12.4 26.05-33.95 28.14l.2 1.99c22.66-2.2 33.24-20.41 35.68-29.62L76 8.74zM42.05 36.88c-5.7.55-10.45-2.29-13.72-6.31-3.29-4.05-4.94-9.14-4.57-12.77l-2-.2c-.42 4.28 1.48 9.87 5.02 14.23 3.56 4.38 8.9 7.68 15.46 7.04l-.19-1.99zM23.75 17.8c.26-2.5 1.3-6.33 3.59-9.58a13.85 13.85 0 0 1 10.9-6.14l-.1-2c-5.9.34-9.9 3.38-12.44 7a23.21 23.21 0 0 0-3.93 10.52l1.99.2zm14.5-15.72c6.78-.39 12.11.71 15.93 1.98 3.9 1.3 6 2.67 6.96 3.08l.79-1.84c-.55-.23-3.19-1.82-7.12-3.13A44.39 44.39 0 0 0 38.13.08l.12 2zm22.89 5.06C64.06 8.4 67.36 9.2 76.88 10l.17-2c-9.48-.78-12.5-1.56-15.12-2.69l-.8 1.84z" fill="#A01E25"/>
</symbol><symbol id="ico-color-home-tech" viewBox="0 0 80.3 80.4">
    <path fill="none" stroke="#A01E25" stroke-width="2" d="M48 34.6V5c0-2.2-1.8-4-4-4H5C2.8 1 1 2.8 1 5v50c0 2.2 1.8 4 4 4h34.8"/>
    <path fill="#A01E25" d="M30 5.2c-.6 0-1 .4-1 1s.4 1 1 1v-2zm0 2h29v-2H30v2z"/>
    <path fill="none" stroke="#A01E25" stroke-width="2" d="M63 15.5v5.2l4.1 3.5 4.1-3.5v-5.2m-4.1 8.7v2.6a2 2 0 0 1-2 2h-3.5a2 2 0 0 0-2 2V34M9.1 21.3l15.1-8.7 15.1 8.7v16.8l-15.1 9.3-15.1-9.3V21.3z"/>
    <path fill="none" stroke="#A01E25" stroke-width="2" d="M39.8 45.1l19.7-11.6 19.7 11.6v22L59.6 79.3 39.8 67.1v-22z"/>
    <path fill="none" stroke="#A01E25" stroke-width="2" d="M40.4 45.1l19.1 11.6v22.6"/>
    <path fill="#A01E25" d="M79.3 7.2c.6 0 1-.4 1-1s-.4-1-1-1v2zm-4.7 0h4.6v-2h-4.6v2z"/>
    <circle fill="#A01E25" cx="23.6" cy="6.2" r="1.2"/>
    <circle fill="#A01E25" cx="68.8" cy="50.3" r="1.2"/>
    <path fill="none" stroke="#A01E25" stroke-width="2" stroke-linecap="round" d="M59.6 56.7l4.1-2.9m9.8-5.8l5.2-2.9"/>
    <path fill="none" stroke="#A01E25" stroke-width="2" d="M9.1 21.3l15.1 8.1 14.5-8.1m-14.5 8.1v18M74.8 9.9V2.1c0-.6-.6-1.1-1.3-1.1H60.7c-.7 0-1.3.5-1.3 1.1v13.3c0 .6.6 1.1 1.3 1.1h11.4"/>
    <path fill="none" stroke="#A01E25" stroke-width="2" d="M72.8 16.4H61.4a2 2 0 0 1-2-2V3c0-1.1.9-2 2-2h11.4a2 2 0 0 1 2 2v11.4a2 2 0 0 1-2 2z"/>
</symbol><symbol id="ico-color-icon-2tech" viewBox="0 0 80.3 80.4">
    <path fill="none" stroke="#A01E25" stroke-width="2" d="M48 34.6V5c0-2.2-1.8-4-4-4H5C2.8 1 1 2.8 1 5v50c0 2.2 1.8 4 4 4h34.8"/>
    <path fill="#A01E25" d="M30 5.2c-.6 0-1 .4-1 1s.4 1 1 1v-2zm0 2h29v-2H30v2z"/>
    <path fill="none" stroke="#A01E25" stroke-width="2" d="M63 15.5v5.2l4.1 3.5 4.1-3.5v-5.2m-4.1 8.7v2.6a2 2 0 0 1-2 2h-3.5a2 2 0 0 0-2 2V34M9.1 21.3l15.1-8.7 15.1 8.7v16.8l-15.1 9.3-15.1-9.3V21.3z"/>
    <path fill="none" stroke="#A01E25" stroke-width="2" d="M39.8 45.1l19.7-11.6 19.7 11.6v22L59.6 79.3 39.8 67.1v-22z"/>
    <path fill="none" stroke="#A01E25" stroke-width="2" d="M40.4 45.1l19.1 11.6v22.6"/>
    <path fill="#A01E25" d="M79.3 7.2c.6 0 1-.4 1-1s-.4-1-1-1v2zm-4.7 0h4.6v-2h-4.6v2z"/>
    <circle fill="#A01E25" cx="23.6" cy="6.2" r="1.2"/>
    <circle fill="#A01E25" cx="68.8" cy="50.3" r="1.2"/>
    <path fill="none" stroke="#A01E25" stroke-width="2" stroke-linecap="round" d="M59.6 56.7l4.1-2.9m9.8-5.8l5.2-2.9"/>
    <path fill="none" stroke="#A01E25" stroke-width="2" d="M9.1 21.3l15.1 8.1 14.5-8.1m-14.5 8.1v18M74.8 9.9V2.1c0-.6-.6-1.1-1.3-1.1H60.7c-.7 0-1.3.5-1.3 1.1v13.3c0 .6.6 1.1 1.3 1.1h11.4"/>
    <path fill="none" stroke="#A01E25" stroke-width="2" d="M72.8 16.4H61.4a2 2 0 0 1-2-2V3c0-1.1.9-2 2-2h11.4a2 2 0 0 1 2 2v11.4a2 2 0 0 1-2 2z"/>
</symbol><symbol id="ico-color-icon-assort" viewBox="0 0 130 129">
    <path d="M1.8 100.63a1.5 1.5 0 0 0 0 3v-3zm125.42 3a1.5 1.5 0 1 0 0-3v3zm-125.43 0h125.42v-3H1.8v3zm.01 22.09a1.5 1.5 0 0 0 0 3v-3zm125.42 3a1.5 1.5 0 1 0 0-3v3zm-125.43 0h125.42v-3H1.8v3z" fill="#A01E25"/>
    <circle cx="13.61" cy="114.39" r="12.11" stroke="#A01E25" stroke-width="3"/>
    <circle cx="14.11" cy="114.9" r="2.02" fill="#A01E25"/>
    <circle cx="65.01" cy="114.39" r="12.11" stroke="#A01E25" stroke-width="3"/>
    <circle cx="64.73" cy="114.9" r="2.02" fill="#A01E25"/>
    <circle cx="114.39" cy="114.39" r="12.11" stroke="#A01E25" stroke-width="3"/>
    <circle cx="114.9" cy="114.9" r="2.02" fill="#A01E25"/>
    <path fill-rule="evenodd" clip-rule="evenodd" d="M35.27 78.61H15.12a1 1 0 0 0-1.01 1.01v19.15a1 1 0 0 0 1 1.01h20.16a1 1 0 0 0 1.01-1V79.61a1 1 0 0 0-1-1zM15.12 75.6a4.03 4.03 0 0 0-4.03 4.03v19.15c0 2.23 1.8 4.03 4.03 4.03h20.15c2.23 0 4.04-1.8 4.04-4.03V79.62c0-2.22-1.8-4.03-4.04-4.03H15.12z" fill="#A01E25"/>
    <path fill-rule="evenodd" clip-rule="evenodd" d="M36.9 79.9l-21.5 21.5-2.14-2.13 21.5-21.5 2.14 2.14z" fill="#A01E25"/>
    <path fill-rule="evenodd" clip-rule="evenodd" d="M34.77 101.4l-21.5-21.5 2.13-2.13 21.5 21.5-2.13 2.14zm79.12-48.99H94.74a1 1 0 0 0-1 1v19.16a1 1 0 0 0 1 1h19.15a1 1 0 0 0 1-1V53.42a1 1 0 0 0-1-1.01zm-19.15-3.02a4.03 4.03 0 0 0-4.03 4.03v19.15c0 2.22 1.8 4.03 4.03 4.03h19.15c2.23 0 4.03-1.8 4.03-4.03V53.42c0-2.23-1.8-4.03-4.03-4.03H94.74z" fill="#A01E25"/>
    <path fill-rule="evenodd" clip-rule="evenodd" d="M115.74 53.03l-21.5 21.5-2.14-2.14 21.5-21.5 2.14 2.14z" fill="#A01E25"/>
    <path fill-rule="evenodd" clip-rule="evenodd" d="M113.6 74.53l-21.5-21.5 2.14-2.14 21.5 21.5-2.13 2.14z" fill="#A01E25"/>
    <rect x="1.5" y="1.5" width="126.01" height="13.13" rx="4.5" stroke="#A01E25" stroke-width="3"/>
    <mask id="a" fill="#fff">
        <rect x="14.34" width="21.5" height="19.71" rx="2"/>
    </mask>
    <rect x="14.34" width="21.5" height="19.71" rx="2" fill="#F9F9F9" stroke="#A01E25" stroke-width="6" mask="url(#a)"/>
    <circle cx="25.31" cy="9.18" r="2.02" fill="#A01E25"/>
    <mask id="b" fill="#fff">
        <rect x="93.17" width="21.5" height="19.71" rx="2"/>
    </mask>
    <rect x="93.17" width="21.5" height="19.71" rx="2" fill="#F9F9F9" stroke="#A01E25" stroke-width="6" mask="url(#b)"/>
    <circle cx="104.15" cy="9.18" r="2.02" fill="#A01E25"/>
    <path fill-rule="evenodd" clip-rule="evenodd" d="M23.57 32.25V17.92h3.03v14.33h-3.03z" fill="#A01E25"/>
    <path fill-rule="evenodd" clip-rule="evenodd" d="M25.08 30.34l19.46 15.04a4.54 4.54 0 0 1 1.77 3.59V66.3a1.51 1.51 0 0 1-3.03 0V48.97c0-.47-.22-.91-.59-1.2l-17.6-13.6-17.62 13.6c-.37.29-.58.73-.58 1.2V66.3a1.51 1.51 0 0 1-3.03 0V48.97c0-1.4.65-2.73 1.76-3.6l19.46-15.03zm77.33 1.91V17.92h3.03v14.33h-3.03z" fill="#A01E25"/>
    <path fill-rule="evenodd" clip-rule="evenodd" d="M103.92 30.34l19.46 15.04a4.54 4.54 0 0 1 1.77 3.59V66.3a1.51 1.51 0 0 1-3.03 0V48.97c0-.47-.22-.91-.59-1.2l-17.6-13.6-17.62 13.6c-.37.29-.58.73-.58 1.2V66.3a1.51 1.51 0 1 1-3.03 0V48.97c0-1.4.65-2.73 1.77-3.6l19.45-15.03z" fill="#A01E25"/>
</symbol><symbol id="ico-color-icon-dist" viewBox="0 0 85 80">
    <path d="M1 61v16c0 1.1.9 2 2 2h8.04a2 2 0 0 0 1.56-.75l2.8-3.5a2 2 0 0 1 1.56-.75h51.08a2 2 0 0 1 1.56.75l2.8 3.5a2 2 0 0 0 1.56.75H82a2 2 0 0 0 2-2V61a4 4 0 0 0-4-4H5a4 4 0 0 0-4 4z" stroke="#A01E25" stroke-width="2"/>
    <path d="M69 63H16a3 3 0 1 0 0 6h53a3 3 0 1 0 0-6zM6 26v31h41.5V26a2 2 0 0 0-2-2H8a2 2 0 0 0-2 2zM19 3v21h22V3a2 2 0 0 0-2-2H21a2 2 0 0 0-2 2z" stroke="#A01E25" stroke-width="2"/>
    <path stroke="#A01E25" stroke-width="2" d="M17 31h20v7H17z"/>
    <rect x="11" y="48" width="4" height="4" rx="2" stroke="#A01E25" stroke-width="2"/>
    <path d="M32 45a1 1 0 1 0 0 2v-2zm8 2a1 1 0 1 0 0-2v2zm-8 0h8v-2h-8v2zm0 3a1 1 0 1 0 0 2v-2zm11 2a1 1 0 1 0 0-2v2zm-11 0h11v-2H32v2z" fill="#A01E25"/>
    <path d="M52 16v41h28V16a2 2 0 0 0-2-2H54a2 2 0 0 0-2 2z" stroke="#A01E25" stroke-width="2"/>
    <path stroke="#A01E25" stroke-width="2" d="M58 20h16v5H58z"/>
    <rect x="57" y="48" width="4" height="4" rx="2" stroke="#A01E25" stroke-width="2"/>
    <path d="M65 45a1 1 0 1 0 0 2v-2zm8 2a1 1 0 1 0 0-2v2zm-8 0h8v-2h-8v2zm0 3a1 1 0 1 0 0 2v-2zm11 2a1 1 0 1 0 0-2v2zm-11 0h11v-2H65v2z" fill="#A01E25"/>
    <path d="M19 6h22" stroke="#A01E25" stroke-width="2"/>
    <path d="M29 10a1 1 0 1 0 2 0h-2zm0-9v9h2V1h-2z" fill="#A01E25"/>
</symbol><symbol id="ico-color-icon-doc-down" viewBox="0 0 32 32">
    <circle cx="16" cy="16" r="15.5" stroke="#A01E25"/>
    <path d="M18.5 9h-5v5H10l6 6 6-6h-3.5V9z" fill="#A01E25"/>
    <path d="M10 22h12" stroke="#A01E25" stroke-width="2"/>
</symbol><symbol id="ico-color-icon-doc" viewBox="0 0 32 32">
    <circle cx="16" cy="16" r="15.5" stroke="#A01E25"/>
    <path d="M11 11a1 1 0 0 1 1-1h5v4h4v7a1 1 0 0 1-1 1h-8a1 1 0 0 1-1-1V11z" fill="#A01E25"/>
    <path d="M18 10v3h3l-1.5-1.5L18 10z" fill="#A01E25"/>
</symbol><symbol id="ico-color-icon-gr1" viewBox="0 0 81 82">
    <path d="M20.5 47a1 1 0 1 0 0 2v-2zm34 2a1 1 0 1 0 0-2v2zM74 18.5h1v-1h-1v1zM20.5 49h34v-2h-34v2zM9 19.5h39.5v-2H9v2zm53 0h12v-2H62v2zm11-1v27h2v-27h-2zM47.5 71H11v2h36.5v-2zM2 62V12.7H0V62h2zM8 6.3V56h2V6.3H8zm.2.2a.2.2 0 0 1-.2-.2h2c0-1-.8-1.8-1.8-1.8v2zM2 12.7a6.2 6.2 0 0 1 6.2-6.2v-2A8.2 8.2 0 0 0 0 12.7h2zM11 71a9 9 0 0 1-9-9H0a11 11 0 0 0 11 11v-2z" fill="#A01E25"/>
    <path d="M30.5 36l6.5 7m20-33l6.5 7M61 6l6.5 7m11.66 27.84L39.84 80.16a.2.2 0 0 0 .14.34H78.5a1 1 0 0 0 1-1V40.98a.2.2 0 0 0-.34-.14z" stroke="#A01E25" stroke-width="2"/>
    <path d="M70.66 59.34L58.34 71.66a.2.2 0 0 0 .14.34H70a1 1 0 0 0 1-1V59.48a.2.2 0 0 0-.34-.14z" stroke="#A01E25" stroke-width="2"/>
    <path d="M76 53.5a1 1 0 1 0 0 2v-2zm3.5 0H76v2h3.5v-2zM76 60a1 1 0 1 0 0 2v-2zm3.5 0H76v2h3.5v-2zM76 66.5a1 1 0 1 0 0 2v-2zm3.5 0H76v2h3.5v-2zM76 73a1 1 0 1 0 0 2v-2zm3.5 0H76v2h3.5v-2z" fill="#A01E25"/>
    <path d="M1 63c0-3 2.5-8 8-8m21-18.5l-3.85 11.08a.2.2 0 0 0 .26.25L37 43.5 71.14 9.36a2 2 0 0 0 .05-2.77L67.4 2.5a2 2 0 0 0-2.87-.06L30 36.5z" stroke="#A01E25" stroke-width="2"/>
</symbol><symbol id="ico-color-icon-gr2" viewBox="0 0 80 75">
    <rect x="44" y="21" width="18" height="18" rx="1" stroke="#A01E25" stroke-width="2"/>
    <rect x="22.87" y="15.41" width="10.54" height="10.54" rx="1" transform="rotate(45 22.87 15.41)" stroke="#A01E25" stroke-width="2"/>
    <path d="M22.02 8.12a1 1 0 0 1 1.42 0l9.46 9.46a1 1 0 0 1-.21 1.58l-9.46 5.4a1 1 0 0 1-1 0l-9.46-5.4a1 1 0 0 1-.2-1.58l9.45-9.46z" stroke="#A01E25" stroke-width="2"/>
    <rect x="52" y="11" width="18" height="18" rx="9" stroke="#A01E25" stroke-width="2"/>
    <path d="M12 36a1 1 0 1 0 0 2v-2zm6.5 2a1 1 0 1 0 0-2v2zm5-2a1 1 0 1 0 0 2v-2zm4 2a1 1 0 1 0 0-2v2zM12 38h6.5v-2H12v2zm11.5 0h4v-2h-4v2z" fill="#A01E25"/>
    <rect x="1" y="1" width="78" height="54" rx="3" stroke="#A01E25" stroke-width="2"/>
    <rect x="1" y="-1" width="38" height="4" rx="2" transform="matrix(1 0 0 -1 20 73)" stroke="#A01E25" stroke-width="2"/>
    <path d="M34.69 55l-2.5 15h15.63l-2.5-15H34.68zM1 47.5h78" stroke="#A01E25" stroke-width="2"/>
</symbol><symbol id="ico-color-icon-gr3" viewBox="0 0 80 81">
    <path d="M30 4a3 3 0 0 1 3-3h43a3 3 0 0 1 3 3v68H30V4z" fill="#F9F9F9" stroke="#A01E25" stroke-width="2"/>
    <path d="M30 9.5h49M30 72h49v5a3 3 0 0 1-3 3H33a3 3 0 0 1-3-3v-5zm26-18a3 3 0 0 1 3-3h11a3 3 0 0 1 3 3v18H56V54z" stroke="#A01E25" stroke-width="2"/>
    <path d="M61 54a1 1 0 1 0 0 2v-2zm7.02 2a1 1 0 1 0 0-2v2zM61 56h7.02v-2H61v2zm0 2.1a1 1 0 1 0 0 2v-2zm7.02 2a1 1 0 1 0 0-2v2zm-7.02 0h7.02v-2H61v2z" fill="#A01E25"/>
    <path d="M36 23a3 3 0 0 1 3-3h10a3 3 0 0 1 3 3v11a3 3 0 0 1-3 3H39a3 3 0 0 1-3-3V23zm0 9h15" stroke="#A01E25" stroke-width="2"/>
    <circle cx="40" cy="55" r="3" stroke="#A01E25" stroke-width="2"/>
    <circle cx="40" cy="61" r="3" stroke="#A01E25" stroke-width="2"/>
    <path d="M59.5 23a1 1 0 1 0 0 2v-2zm12 2a1 1 0 1 0 0-2v2zm-12 0h12v-2h-12v2zm0 2a1 1 0 1 0 0 2v-2zm7.5 2a1 1 0 1 0 0-2v2zm-7.5 0H67v-2h-7.5v2z" fill="#A01E25"/>
    <path fill-rule="evenodd" clip-rule="evenodd" d="M20.83 40.91H8.07a.64.64 0 0 0-.63.64v12.12c0 .35.28.64.63.64h12.76c.35 0 .64-.29.64-.64V41.55a.64.64 0 0 0-.64-.64zM8.07 39a2.55 2.55 0 0 0-2.55 2.55v12.12c0 1.4 1.15 2.55 2.55 2.55h12.76c1.41 0 2.55-1.14 2.55-2.55V41.55c0-1.4-1.14-2.55-2.55-2.55H8.07z" fill="#A01E25"/>
    <path fill-rule="evenodd" clip-rule="evenodd" d="M21.86 41.73l-13.6 13.6-1.36-1.35 13.6-13.6 1.36 1.35z" fill="#A01E25"/>
    <path fill-rule="evenodd" clip-rule="evenodd" d="M20.5 55.34L6.9 41.74l1.36-1.36 13.6 13.6-1.35 1.36z" fill="#A01E25"/>
    <path d="M1 55a1 1 0 1 0 0 2v-2zm28.5 2a1 1 0 1 0 0-2v2zM1 57h28.5v-2H1v2zm.5 11a1 1 0 1 0 0 2v-2zm28 2a1 1 0 1 0 0-2v2zm-28 0h28v-2h-28v2z" fill="#A01E25"/>
    <circle cx="18.5" cy="62.5" r="1.5" fill="#A01E25"/>
    <circle cx="18.5" cy="62.5" r="6.5" stroke="#A01E25" stroke-width="2"/>
</symbol><symbol id="ico-color-icon-gr4" viewBox="0 0 80 81">
    <path d="M1 4a3 3 0 0 1 3-3h43a3 3 0 0 1 3 3v68H1V4z" fill="#F9F9F9" stroke="#A01E25" stroke-width="2"/>
    <path d="M1 9.5h49M1 72h49v5a3 3 0 0 1-3 3H4a3 3 0 0 1-3-3v-5zm26-18a3 3 0 0 1 3-3h11a3 3 0 0 1 3 3v18H27V54z" stroke="#A01E25" stroke-width="2"/>
    <path d="M32 54a1 1 0 1 0 0 2v-2zm7.02 2a1 1 0 1 0 0-2v2zM32 56h7.02v-2H32v2zm0 2.1a1 1 0 1 0 0 2v-2zm7.02 2a1 1 0 1 0 0-2v2zm-7.02 0h7.02v-2H32v2z" fill="#A01E25"/>
    <path d="M7 23a3 3 0 0 1 3-3h10a3 3 0 0 1 3 3v11a3 3 0 0 1-3 3H10a3 3 0 0 1-3-3V23zm0 9h15" stroke="#A01E25" stroke-width="2"/>
    <circle cx="11" cy="55" r="3" stroke="#A01E25" stroke-width="2"/>
    <circle cx="11" cy="61" r="3" stroke="#A01E25" stroke-width="2"/>
    <path d="M30.5 23a1 1 0 1 0 0 2v-2zm12 2a1 1 0 1 0 0-2v2zm-12 0h12v-2h-12v2zm0 2a1 1 0 1 0 0 2v-2zm7.5 2a1 1 0 1 0 0-2v2zm-7.5 0H38v-2h-7.5v2z" fill="#A01E25"/>
    <path d="M50 49h28.38c.34 0 .62.28.62.62C79 58.12 72.11 65 63.62 65H50" stroke="#A01E25" stroke-width="2"/>
    <circle cx="64" cy="38" r="1" fill="#A01E25"/>
    <circle cx="67" cy="41" r="1" fill="#A01E25"/>
    <circle cx="72" cy="37" r="1" fill="#A01E25"/>
    <circle cx="68" cy="36" r="1" fill="#A01E25"/>
    <circle cx="64" cy="34" r="1" fill="#A01E25"/>
    <circle cx="69" cy="32" r="1" fill="#A01E25"/>
    <circle cx="74" cy="33" r="1" fill="#A01E25"/>
    <circle cx="64" cy="30" r="1" fill="#A01E25"/>
    <circle cx="60" cy="29" r="1" fill="#A01E25"/>
    <circle cx="59" cy="34" r="1" fill="#A01E25"/>
    <circle cx="60" cy="39" r="1" fill="#A01E25"/>
    <circle cx="63" cy="43" r="1" fill="#A01E25"/>
    <circle cx="69" cy="44" r="1" fill="#A01E25"/>
    <circle cx="72" cy="41" r="1" fill="#A01E25"/>
    <circle cx="66" cy="46" r="1" fill="#A01E25"/>
</symbol><symbol id="ico-color-icon-gr5" viewBox="0 0 81 81">
    <path d="M9.26 44.89v-1H8.7l-.29.47.85.53zM42.31 58.3l-.84.55.3.45h.54v-1zm24.78 17.53a1 1 0 1 0 0-2v2zm-8.78-2a1 1 0 1 0 0 2v-2zm-4.13 2a1 1 0 1 0 0-2v2zm-5.16-2a1 1 0 1 0 0 2v-2zm-26.85-40.8a1 1 0 0 0 0 2v-2zm26.33 2a1 1 0 0 0 0-2v2zm4.65-2a1 1 0 1 0 0 2v-2zm5.68 2a1 1 0 0 0 0-2v2zM22.17 38.2a1 1 0 0 0 0 2v-2zm26.33 2a1 1 0 0 0 0-2v2zm4.65-2a1 1 0 1 0 0 2v-2zm5.68 2a1 1 0 0 0 0-2v2zm-9.3-21.1a1 1 0 0 0 0 2v-2zm9.82 2a1 1 0 1 0 0-2v2zm-16.01 3.16a1 1 0 1 0 0 2v-2zm16 2a1 1 0 1 0 0-2v2zm6.88-24.82l-.78-.63.78.63zM62.29 6l.7-.71-.7.7zm.3-.02l-.79-.63.78.63zm-5.45-4.86l-.67-.74.67.74zm.28 0l-.71.71.7-.7zm-5.95 4.9l.7-.7-.7.7zm.27 0l.68.75-.68-.74zm-5.44-4.9l-.68-.74.68.74zm.27 0l-.7.71.7-.7zm-5.95 4.91l-.67.74.67-.74zm.27 0l.68.74-.68-.74zM24.1 1.14l-.7-.71.7.7zm.28-.01l-.68.74.68-.74zm10.56 0l.71.71-.7-.7zm.28 0l.67-.74-.67.74zm-5.45 4.9l.68-.73-.68.74zm.28 0l.7.7-.7-.7zM1.47 57.55l.85.53-.85-.53zM18.93 6.01l-.74.67.74-.67zm60.64 51.55l-.87.5.87-.5zM14.77 1.4l.75-.67-.75.67zm57.77 44l-.86.5.86-.5zm-.86.5l7.02 12.17 1.73-1-7.02-12.17-1.73 1zm7.45 11.42h-6.88v2h6.88v-2zm-7.88 1V78h2V58.31h-2zM10.26 78V58.31h-2V78h2zm-1-20.69H1.9v2h7.37v-2zm-6.94.77l7.8-12.67-1.71-1.05-7.8 12.67 1.71 1.05zm5.94-13.2v13.43h2V44.9h-2zm64 12.43H42.3v2h29.94v-2zm-29.12.46l-8.77-13.43-1.68 1.1 8.78 13.42 1.67-1.1zM70.25 79H33.53v2h36.72v-2zm-36.72 0H11.26v2h22.27v-2zm1 1V44.89h-2V80h2zM9.26 45.89h5.16v-2H9.26v2zm5.16 0h19.1v-2h-19.1v2zm1-1V1.52h-2V44.9h2zM14.03 2.06l4.16 4.62 1.48-1.34L15.52.72l-1.49 1.34zm5.9 4.66l4.88-4.88L23.39.43 18.51 5.3l1.42 1.41zm3.77-4.85l5.4 4.9 1.35-1.47-5.4-4.91-1.35 1.48zm7.06 4.87l4.9-4.9L34.23.43l-4.9 4.9 1.42 1.4zm3.79-4.87l5.4 4.91L41.3 5.3 35.9.4l-1.35 1.48zm7.02 4.91l5.4-4.91L45.62.39l-5.4 4.91 1.35 1.48zm4.3-4.94l4.89 4.9 1.41-1.42-4.89-4.9-1.41 1.42zm6.55 4.94l5.4-4.91L56.46.39l-5.4 4.9 1.35 1.49zm4.29-4.94l4.87 4.87 1.41-1.41L58.12.43l-1.41 1.41zm6.65 4.77L67 2.07 65.44.82 61.8 5.36l1.56 1.25zM33.53 45.9h33.05v-2H33.53v2zm33.05 0h5.1v-2h-5.1v2zm-1-44.32V44.9h2V1.57h-2zm1.51 72.27h-8.78v2h8.78v-2zm-12.9 0h-5.17v2h5.16v-2zm-32.02-38.8H48.5v-2H22.17v2zm30.98 0h5.68v-2h-5.68v2zm-30.98 5.17H48.5v-2H22.17v2zm30.98 0h5.68v-2h-5.68v2zm-3.61-19.1h9.8v-2h-9.8v2zm-6.2 5.16h16v-2h-16v2zM67 2.07a.8.8 0 0 1-1.42-.5h2a1.2 1.2 0 0 0-2.14-.75L67 2.07zm-5.42 4.64c.5.5 1.34.46 1.78-.1L61.8 5.36A.8.8 0 0 1 63 5.3l-1.43 1.4zM57.8 1.87a.8.8 0 0 1-1.1-.03L58.12.43a1.2 1.2 0 0 0-1.65-.04l1.34 1.48zm-7.05 4.87a1.2 1.2 0 0 0 1.66.04L51.07 5.3a.8.8 0 0 1 1.1.02l-1.41 1.42zm-3.8-4.87a.8.8 0 0 1-1.1-.03L47.29.43a1.2 1.2 0 0 0-1.66-.04l1.35 1.48zm-7 4.91a1.2 1.2 0 0 0 1.6 0L40.23 5.3a.8.8 0 0 1 1.08 0l-1.35 1.48zM24.8 1.84a.8.8 0 0 1-1.1.03L25.04.39a1.2 1.2 0 0 0-1.66.04l1.42 1.41zm10.84 0a.8.8 0 0 1-1.1.03L35.89.39a1.2 1.2 0 0 0-1.65.04l1.41 1.41zM8.26 78a3 3 0 0 0 3 3v-2a1 1 0 0 1-1-1h-2zM29.1 6.78c.48.43 1.2.4 1.66-.04l-1.42-1.42a.8.8 0 0 1 1.1-.02L29.1 6.78zM71.25 78a1 1 0 0 1-1 1v2a3 3 0 0 0 3-3h-2zM1.9 57.31c.4 0 .64.43.43.77l-1.7-1.05a1.5 1.5 0 0 0 1.27 2.28v-2zM18.2 6.68a1.2 1.2 0 0 0 1.74.04L18.5 5.31a.8.8 0 0 1 1.16.03L18.2 6.68zm60.5 51.38a.5.5 0 0 1 .43-.75v2a1.5 1.5 0 0 0 1.3-2.25l-1.73 1zM15.42 1.52a.8.8 0 0 1-1.39.54L15.52.72a1.2 1.2 0 0 0-2.1.8h2zM73.41 44.9a2 2 0 0 0-1.73-1v2l1.73-1zM22 19.92h1.58v-6.58c.56-.1 1.14-.19 1.74-.24.6-.07 1.23-.1 1.9-.1.7 0 1.36.06 2 .18.64.12 1.2.34 1.68.66s.86.76 1.14 1.32c.3.56.44 1.28.44 2.16 0 .81-.15 1.5-.44 2.08a3.85 3.85 0 0 1-1.14 1.38c-.47.36-1 .62-1.6.78-.6.16-1.21.24-1.84.24h-.72c-.28-.01-.5-.03-.64-.06v1.16h3.2v1.82h-3.2v2.48h-2.52v-2.48H22V22.9h1.58v-1.16H22v-1.82zm5.44-4.72c-.27 0-.52.01-.76.04-.24.01-.43.03-.58.06v4.52a4.4 4.4 0 0 0 2.06-.04c.33-.1.62-.24.86-.44s.43-.45.56-.76c.15-.32.22-.7.22-1.14 0-.81-.22-1.39-.66-1.72-.44-.35-1-.52-1.7-.52z" fill="#A01E25"/>
</symbol><symbol id="ico-color-icon-gr6" viewBox="0 0 77 80">
    <path d="M75 43.5a1 1 0 1 0 2 0h-2zm2 5a1 1 0 1 0-2 0h2zM59.51 67.13a1 1 0 0 0 .98 1.74l-.98-1.74zm-3.03 3.75a1 1 0 0 0-.96-1.76l.96 1.76zm-34-1.26a1 1 0 0 0-.96 1.76l.96-1.76zm-4.97-.25a1 1 0 1 0 .98-1.74l-.98 1.74zm22.9 9.1l-.47-.89.47.88zm-3.82-.01l-.48.88.48-.88zm37.33-58.1l-.48.88.48-.88zM36.58 2.05l-.48-.88.48.88zM3.05 60.15l-.49.87.49-.88zm.03-39.79l-.48-.88.48.88zm.48.88l33.5-18.31-.96-1.76L2.6 19.48l.96 1.76zM39.94 2.93l33.5 18.31.96-1.76-33.5-18.3-.96 1.75zM75 23.87V43.5h2V23.87h-2zm0 24.63v8.16h2V48.5h-2zm-1.53 10.78l-13.96 7.85.98 1.74 13.96-7.85-.98-1.74zm-17.95 9.84l-15.58 8.46.95 1.76 15.59-8.46-.96-1.76zm-18.45 8.46l-14.6-7.96-.95 1.76 14.59 7.96.96-1.76zm-18.58-9.95L3.54 59.27l-.98 1.75 14.95 8.35.98-1.74zM2 56.65V23.87H0v32.78h2zm37.94 20.93a3 3 0 0 1-2.87 0l-.96 1.76a5 5 0 0 0 4.78 0l-.95-1.76zm33.5-56.34A3 3 0 0 1 75 23.87h2a5 5 0 0 0-2.6-4.39l-.96 1.76zM37.06 2.93a3 3 0 0 1 2.88 0l.96-1.76a5 5 0 0 0-4.8 0l.96 1.76zM75 56.66a3 3 0 0 1-1.53 2.62l.98 1.74A5 5 0 0 0 77 56.66h-2zM3.54 59.27A3 3 0 0 1 2 56.65H0a5 5 0 0 0 2.56 4.37l.98-1.75zM2.6 19.48a5 5 0 0 0-2.6 4.4h2a3 3 0 0 1 1.56-2.64l-.96-1.76z" fill="#A01E25"/>
    <path d="M38.5 16.5L15 29.5V53l23.5 13L62 53V29.5l-23.5-13zM15 53L1.5 59M62 52.5L76 59M38.5 16.5V1" stroke="#A01E25" stroke-width="2"/>
    <path d="M1 21.5l37.5 21 37.5-21m-37.5 21v37" stroke="#A01E25" stroke-width="2"/>
</symbol><symbol id="ico-color-icon-gr7" viewBox="0 0 85 81">
    <path d="M1 20.5l-.5-.86-.5.29v.57h1zm65 0h1v-.58l-.5-.29-.5.87zM33.5 77l-.5.86.5.3.5-.3-.5-.86zm38-29.5a1 1 0 1 0 0 2v-2zm7 2a1 1 0 1 0 0-2v2zm-7 9a1 1 0 1 0 0 2v-2zm7 2a1 1 0 1 0 0-2v2zm0 11.5a1 1 0 1 0 0-2v2zm-7-2a1 1 0 1 0 0 2v-2zM59.2 47.8a1 1 0 0 0-1.4 1.4l1.4-1.4zM61 51l-.7.7.7.71.7-.7L61 51zm5.2-3.8a1 1 0 0 0-1.4-1.4l1.4 1.4zm-7 22.6a1 1 0 0 0-1.4 1.4l1.4-1.4zM61 73l-.7.7.7.71.7-.7L61 73zm5.2-3.8a1 1 0 0 0-1.4-1.4l1.4 1.4zm-7-10.4a1 1 0 0 0-1.4 1.4l1.4-1.4zM61 62l-.7.7.7.71.7-.7L61 62zm5.2-3.8a1 1 0 0 0-1.4-1.4l1.4 1.4zM32.49 2.1l-.5-.87.5.86zm2.03 0l.51-.86-.5.86zM2 58.58l.5-.86-.5.86zm-.5-37.22L33 2.96l-1.01-1.73L.5 19.63l1 1.73zM65 20.5v12h2v-12h-2zm-65 0v36.35h2V20.5H0zm1.49 38.94l31.5 18.42L34 76.14 2.5 57.72l-1.01 1.72zM34 77.87l19-11-1-1.74-19 11 1 1.74zm0-37.5l32.5-19-1-1.73-32.5 19 1 1.72zm-1.5-.87V77h2V39.5h-2zM.51 21.37l16 9 .98-1.74-16-9-.98 1.74zm15.97 8.99l16.5 10 1.04-1.72-16.5-10-1.04 1.72zM34 2.96l15 8.9 1.02-1.72-14.99-8.9L34 2.96zm15 8.9l16.5 9.5 1-1.73-16.5-9.5-1 1.74zm-31.5 18.5L50 11.87l-1-1.73-32.5 18.5 1 1.74zM66 31.5h-2v2h2v-2zm-2 9h8.5v-2H64v2zm8.5-9H66v2h6.5v-2zm3 6V36h-2v1.5h2zm0-1.5v-1.5h-2V36h2zm-1 1H80v-2h-5.5v2zm8.5 3v35.5h2V40h-2zm-3 38.5H56.5v2H80v-2zm-26.5-3V40h-2v35.5h2zm7.5-41V36h2v-1.5h-2zm0 1.5v1.5h2V36h-2zm-4.5 1H62v-2h-5.5v2zm15 12.5h7v-2h-7v2zm0 11h7v-2h-7v2zm7 9.5h-7v2h7v-2zM57.8 49.2l2.5 2.5 1.4-1.4-2.5-2.5-1.4 1.4zm3.9 2.5l4.5-4.5-1.4-1.4-4.5 4.5 1.4 1.4zm-3.9 19.5l2.5 2.5 1.4-1.4-2.5-2.5-1.4 1.4zm3.9 2.5l4.5-4.5-1.4-1.4-4.5 4.5 1.4 1.4zm-3.9-13.5l2.5 2.5 1.4-1.4-2.5-2.5-1.4 1.4zm3.9 2.5l4.5-4.5-1.4-1.4-4.5 4.5 1.4 1.4zM53.5 40a3 3 0 0 1 3-3v-2a5 5 0 0 0-5 5h2zm3 38.5a3 3 0 0 1-3-3h-2a5 5 0 0 0 5 5v-2zm26.5-3a3 3 0 0 1-3 3v2a5 5 0 0 0 5-5h-2zm-10.5-42a1 1 0 0 1 1 1h2a3 3 0 0 0-3-3v2zM32.99 2.96a1 1 0 0 1 1.01 0l1.02-1.72a3 3 0 0 0-3.04 0l1 1.72zM72.5 40.5a3 3 0 0 0 3-3h-2a1 1 0 0 1-1 1v2zm-8.5-9a3 3 0 0 0-3 3h2a1 1 0 0 1 1-1v-2zM80 37a3 3 0 0 1 3 3h2a5 5 0 0 0-5-5v2zM0 56.85a3 3 0 0 0 1.49 2.6l1-1.73a1 1 0 0 1-.49-.87H0zM64 38.5a1 1 0 0 1-1-1h-2a3 3 0 0 0 3 3v-2z" fill="#A01E25"/>
</symbol><symbol id="ico-color-icon-gr8" viewBox="0 0 91 76">
    <circle cx="23" cy="66" r="9" stroke="#A01E25" stroke-width="2"/>
    <circle cx="23" cy="66" r="3" stroke="#A01E25" stroke-width="2"/>
    <path d="M32 66h30" stroke="#A01E25" stroke-width="2"/>
    <path d="M58.5 49.5a1 1 0 1 0 2 0h-2zm-43 12a1 1 0 1 0 0-2v2zm67.78-33.88l-.85.52.85-.52zM80 67h8v-2h-8v2zm11-6.5V43h-2v17.5h2zM91 43c0-1.08-.3-2.35-.73-3.66a37.7 37.7 0 0 0-1.73-4.2 94.34 94.34 0 0 0-4.4-8.04l-1.71 1.04a92.36 92.36 0 0 1 4.3 7.86c.67 1.4 1.24 2.75 1.65 3.97.4 1.24.62 2.27.62 3.03h2zM58.5 26v15h2V26h-2zm1 14h-55v2h55v-2zm-54 27h8v-2h-8v2zm71.22-44H67v2h9.72v-2zM67 23h-5.5v2H67v-2zm-1 1v15h2V24h-2zm5 20h19v-2H71v2zm-12.5-3v8.5h2V41h-2zm-58 3v16.5h2V44h-2zm0 16.5V62h2v-1.5h-2zm1 1h14v-2h-14v2zm87.5-1V64h2v-3.5h-2zm-58.5 1H64v-2H30.5v2zm48 0H90v-2H78.5v2zM66 39a5 5 0 0 0 5 5v-2a3 3 0 0 1-3-3h-2zM5.5 65a3 3 0 0 1-3-3h-2a5 5 0 0 0 5 5v-2zm-1-25a4 4 0 0 0-4 4h2c0-1.1.9-2 2-2v-2zm56-14a1 1 0 0 1 1-1v-2a3 3 0 0 0-3 3h2zm23.64 1.1a8.62 8.62 0 0 0-7.42-4.1v2a6.62 6.62 0 0 1 5.7 3.14l1.72-1.04zM88 67a3 3 0 0 0 3-3h-2a1 1 0 0 1-1 1v2z" fill="#A01E25"/>
    <circle cx="71" cy="66" r="9" stroke="#A01E25" stroke-width="2"/>
    <circle cx="71" cy="66" r="3" stroke="#A01E25" stroke-width="2"/>
    <path d="M29 31.5a1 1 0 1 0 2 0h-2zm.25-18a1 1 0 1 0 2 0h-2zm19 11.5a1 1 0 1 0 2 0h-2zM5.5 41V21.5h-2V41h2zm17-21.5v-8h-2v8h2zM40 9.5v-6h-2v6h2zm-19.5 10V27h2v-7.5h-2zm0 7.5v14h2V27h-2zm18-1H30v2h8.5v-2zM30 26h-8.5v2H30v-2zm-1 1v4.5h2V27h-2zm-5.5-16.5h6.75v-2H23.5v2zm6.75 0H39v-2h-8.75v2zm-1-1v4h2v-4h-2zM6.5 20.5H10v-2H6.5v2zm2.5-1V23h2v-3.5H9zm3 6.5h2v-2h-2v2zm5-3v-3.5h-2V23h2zM41 2.5h5.5v-2H41v2zm4.5-1v2h2v-2h-2zm3 5h2v-2h-2v2zm-2-4h6v-2h-6v2zm6 0h5v-2h-5v2zm1 1v-2h-2v2h2zM10 20.5h5.75v-2H10v2zm5.75 0h5.75v-2h-5.75v2zM38 9.5v10h2v-10h-2zm0 10V41h2V19.5h-2zm20.5-16v16h2v-16h-2zm0 16V27h2v-7.5h-2zm-19.5 1h10.25v-2H39v2zm10.25 0H59.5v-2H49.25v2zm-1-1V25h2v-5.5h-2zm2.25-13a3 3 0 0 0 3-3h-2a1 1 0 0 1-1 1v2zm-5-3a3 3 0 0 0 3 3v-2a1 1 0 0 1-1-1h-2zM14 26a3 3 0 0 0 3-3h-2a1 1 0 0 1-1 1v2zM57.5 2.5a1 1 0 0 1 1 1h2a3 3 0 0 0-3-3v2zM9 23a3 3 0 0 0 3 3v-2a1 1 0 0 1-1-1H9zM40 3.5a1 1 0 0 1 1-1v-2a3 3 0 0 0-3 3h2zm-17.5 8a1 1 0 0 1 1-1v-2a3 3 0 0 0-3 3h2zm-17 10a1 1 0 0 1 1-1v-2a3 3 0 0 0-3 3h2z" fill="#A01E25"/>
</symbol><symbol id="ico-color-icon-gr9" viewBox="0 0 141 104">
    <path d="M5 101.5h4.5m113 0H118m-108.5 0l66.5.14-56-.06 22 .02 76-.1m-108.5 0v-58m108.5 58v-58M2 30c.33 5.17 3.6 15.5 14 15.5 13.64 0 15.48-9.73 16.76-14.63.05-.2.34-.19.38.02.8 4.91 3.18 14.61 15.86 14.61 10.2 0 13.99-9.13 14.83-14.16.04-.22.42-.24.47-.02 1.21 5.02 4.25 14.18 15.2 14.18 11.22 0 14.13-9.61 15.28-14.54.05-.22.36-.21.4 0C96.23 35.9 99.33 45.5 111 45.5c10.8 0 14.83-10.33 15.5-15.5M2 30L16.28 4.56a6 6 0 0 1 5.23-3.06h84.58a6 6 0 0 1 5.16 2.93L126.5 30M2 30h124.5M42 72.75V62a2 2 0 0 0-2-2H22a2 2 0 0 0-2 2v10.75m22 0v4.75a2 2 0 0 1-2 2H22a2 2 0 0 1-2-2v-4.75m22 0H20M52.5 66c0-.28.22-.5.5-.5h19.5v19h-20V66zm20-.5h20v19h-20z" stroke="#A01E25" stroke-width="3"/>
    <path d="M92.5 65.5H125c.28 0 .5.22.5.5v18.5h-33v-19z" fill="#F9F9F9" stroke="#A01E25" stroke-width="3"/>
    <path fill="#F9F9F9" stroke="#A01E25" stroke-width="3" d="M92.5 80.5h33v21h-33z"/>
    <path stroke="#A01E25" stroke-width="3" d="M52.5 84.5h14v17h-14zm73 0H139c.28 0 .5.22.5.5v16.5h-14v-17z"/>
    <path d="M60.5 72a1.5 1.5 0 0 0 3 0h-3zm0-6.5V72h3v-6.5h-3zm21 6.5a1.5 1.5 0 0 0 3 0h-3zm0-6.5V72h3v-6.5h-3zm-2 24a1.5 1.5 0 0 0 3 0h-3zm0-6.5v6.5h3V83h-3zm-22 6.5a1.5 1.5 0 0 0 3 0h-3zm0-6.5v6.5h3V83h-3zm50 2.5a1.5 1.5 0 0 0 3 0h-3zm0-6.5v6.5h3V79h-3zm0-8.5a1.5 1.5 0 0 0 3 0h-3zm0-6.5v6.5h3V64h-3z" fill="#A01E25"/>
    <path stroke="#A01E25" stroke-width="3" d="M66.5 84.5h26v17h-26z"/>
</symbol><symbol id="ico-color-icon-high" viewBox="0 0 128 128">
    <rect x="1.5" y="1.5" width="125" height="11.22" rx="5.61" stroke="#A01E25" stroke-width="3"/>
    <path d="M23.5 82c0-.28.22-.5.5-.5h102c.28 0 .5.22.5.5v18.5H24a.5.5 0 0 1-.5-.5V82zm-18-50.5a9 9 0 1 1 18 0v69H6a.5.5 0 0 1-.5-.5V31.5zm-4 69.5c0-.28.22-.5.5-.5h124.5V124a2.5 2.5 0 0 1-2.5 2.5H4a2.5 2.5 0 0 1-2.5-2.5v-23zm26.94-1.44v26.66" stroke="#A01E25" stroke-width="3"/>
    <circle cx="15.11" cy="112.89" r="4.72" stroke="#A01E25" stroke-width="3"/>
    <circle cx="92.44" cy="108.44" r="1.78" fill="#A01E25"/>
    <circle cx="33.78" cy="90.67" r="1.78" fill="#A01E25"/>
    <circle cx="49.78" cy="90.67" r="1.78" fill="#A01E25"/>
    <circle cx="65.78" cy="90.67" r="1.78" fill="#A01E25"/>
    <circle cx="81.78" cy="90.67" r="1.78" fill="#A01E25"/>
    <circle cx="97.78" cy="90.67" r="1.78" fill="#A01E25"/>
    <circle cx="113.78" cy="90.67" r="1.78" fill="#A01E25"/>
    <path d="M99.56 106.94a1.5 1.5 0 0 0 0 3v-3zm0 3h26.66v-3H99.56v3z" fill="#A01E25"/>
    <circle cx="14.5" cy="31.5" r="9" stroke="#A01E25" stroke-width="3"/>
    <circle cx="14.44" cy="32.22" r="2" fill="#A01E25"/>
    <circle cx="106.67" cy="22.67" r="9.17" stroke="#A01E25" stroke-width="3"/>
    <path d="M65.5 8.89a1.5 1.5 0 0 0-3 0h3zm-3 0v19.55h3V8.9h-3z" fill="#A01E25"/>
    <path d="M101.33 29.44v18.9a5 5 0 0 0 5 5h.67a5 5 0 0 0 5-5v-18.9" stroke="#A01E25" stroke-width="3"/>
    <path d="M101.16 46.22L87.09 60.3a5 5 0 0 0 0 7.07l.4.4a5 5 0 0 0 7.14-.06l14.7-15.26" stroke="#A01E25" stroke-width="3"/>
    <path d="M80.72 71.83a1.5 1.5 0 1 0 2.12 2.12l-2.12-2.12zm2.12 2.12l5.33-5.33-2.12-2.13-5.33 5.34 2.12 2.12z" fill="#A01E25"/>
    <path d="M21.33 25.67L50.67 55.1v10.67h-9.78L23.1 48.88" stroke="#A01E25" stroke-width="3"/>
    <path d="M55.83 73.06a1.5 1.5 0 0 0 2.12-2.12l-2.12 2.12zm-6.22-6.22l6.22 6.22 2.12-2.12-6.22-6.22-2.12 2.12z" fill="#A01E25"/>
    <circle cx="107" cy="23" r="2" fill="#A01E25"/>
    <path d="M59.38 44.62a1.5 1.5 0 1 0 2.12-2.13l-2.12 2.13zM56.88 40h-1.5v.62l.45.44L56.89 40zm0-6.22l-1.05-1.06-.44.44v.62h1.5zM64 26.67l1.06-1.06L64 24.55l-1.06 1.06L64 26.67zm7.11 7.1h1.5v-.61l-.44-.44-1.06 1.06zm0 6.23l1.06 1.06.44-.44V40h-1.5zm-4.62 2.5a1.5 1.5 0 1 0 2.13 2.12l-2.13-2.13zm-4.99 0l-3.55-3.56-2.12 2.12 3.55 3.56 2.12-2.13zM58.4 40v-6.22h-3V40h3zm-.44-5.16l7.11-7.11-2.12-2.12-7.11 7.1 2.12 2.13zm4.99-7.11l7.11 7.1 2.12-2.11-7.11-7.11-2.12 2.12zm6.67 6.05V40h3v-6.22h-3zm.44 5.16l-3.56 3.55 2.13 2.13 3.55-3.56-2.12-2.12z" fill="#A01E25"/>
</symbol><symbol id="ico-color-icon-iml" viewBox="0 0 90 126">
    <path d="M1 78.54l-.56-.83-.44.3v.53h1zm68.61 45.49v1h.41l.3-.3-.71-.7zM89 62.88h1v-1h-1v1zm-11.81-1a1 1 0 1 0 0 2v-2zm11.52 43.05l-.71-.7.7.7zM2 123.03v-44.5H0v44.5h2zm-1-43.5h68.61v-2H1v2zm67.61-1v45.5h2v-45.5h-2zm1 44.5H2v2h67.61v-2zm.7 1.7l19.1-19.09-1.41-1.41-19.1 19.1 1.42 1.4zM90 104.24V62.88h-2v41.35h2zM88.37 62.1L68.98 77.76l1.26 1.56 19.39-15.66-1.26-1.56zM1.57 79.36l13.54-9.25-1.13-1.65L.44 77.71l1.12 1.65zM89 61.88H77.19v2H89v-2zm.41 43.76a2 2 0 0 0 .59-1.41h-2l1.41 1.41zM0 123.03c0 1.1.9 2 2 2v-2H0z" fill="#A01E25"/>
    <path d="M72.6 37.86v9.92a2 2 0 0 1-2 2h-2.72a2 2 0 0 1-2-2v-9.92m6.71 0v-19.7c2-.75 5.97-3.44 5.97-8.21C78.56 3.98 74.08 1 69.6 1c-4.47 0-8.95 3.73-8.95 8.95 0 5.22 2.98 7.46 5.22 8.2v19.71m6.71 0h-6.7" stroke="#A01E25" stroke-width="2"/>
    <path d="M24.37 72.61a1 1 0 1 0-2 0h2zm59.4 33.03a1 1 0 0 0 0-2v2zM3.15 123.3l1.05-.9-1.3-1.52-1.05.9 1.3 1.52zm3.13-2.69l2.1-1.79-1.3-1.51-2.1 1.78 1.3 1.52zm4.18-3.58l2.09-1.79-1.3-1.51-2.1 1.78 1.31 1.52zm4.18-3.58l2.08-1.79-1.3-1.51-2.08 1.79 1.3 1.51zm4.17-3.58l2.1-1.79-1.31-1.51-2.09 1.79 1.3 1.52zm4.18-3.58l1.04-.89-1.3-1.52-1.04.9 1.3 1.52zm-.6-33.68v1.6h2v-1.6h-2zm0 4.8v3.21h2v-3.2h-2zm0 6.41v3.2h2v-3.2h-2zm0 6.4v3.21h2v-3.2h-2zm0 6.41v3.2h2v-3.2h-2zm0 6.4v1.61h2v-1.6h-2zm1 2.61h1.5v-2h-1.5v2zm4.52 0h3.02v-2H27.9v2zm6.04 0h3.02v-2h-3.02v2zm6.04 0H43v-2h-3.02v2zm6.05 0h3.02v-2h-3.02v2zm6.04 0h3.02v-2h-3.02v2zm6.04 0h3.02v-2H58.1v2zm6.04 0h3.02v-2h-3.02v2zm6.04 0h3.02v-2H70.2v2zm6.04 0h3.02v-2h-3.02v2zm6.04 0h1.5v-2h-1.5v2zM34.43 55.93a1 1 0 0 0 1.03 1.72l-1.03-1.72zm1.03-26.84a1 1 0 0 0-1.03 1.71l1.03-1.71zm.79 20.59l-.4.92.4-.92zm0-3.68l.4.92-.4-.92zm2.8 8.33l-.52-.86.52.86zm-.25-3.55l-.39.91.4-.91zm-3.34 6.87l4.1-2.46-1.03-1.72-4.1 2.46 1.03 1.72zm3.74-7.8l-2.56-1.09-.79 1.84 2.56 1.1.79-1.84zm-2.56-2.93l1.86-.8-.78-1.83-1.87.8.8 1.83zm1.86-6.31l-1.86-.8-.79 1.84 1.87.8.78-1.84zm-1.86-2.64l2.56-1.1-.79-1.83-2.56 1.1.8 1.83zm2.92-6.42l-4.1-2.46-1.03 1.71 4.1 2.46 1.03-1.71zm-.36 5.33a3 3 0 0 0 .36-5.33l-1.03 1.71a1 1 0 0 1-.12 1.78l.79 1.84zm-2.56 2.93a1 1 0 0 1 0-1.84l-.79-1.83a3 3 0 0 0 0 5.51l.8-1.84zm1.86 6.31a3 3 0 0 0 0-5.51l-.78 1.84a1 1 0 0 1 0 1.84l.78 1.83zm-1.86 2.64a1 1 0 0 1 0-1.84l-.79-1.84a3 3 0 0 0 0 5.52l.8-1.84zm2.92 6.43a3 3 0 0 0-.36-5.33l-.79 1.83a1 1 0 0 1 .12 1.78l1.03 1.72zm2.69-2.24a1 1 0 1 0 1.03 1.72l-1.03-1.72zm1.03-26.85a1 1 0 1 0-1.03 1.72l1.03-1.72zm.79 20.6l-.4.92.4-.92zm0-3.68l.4.92-.4-.92zm2.8 8.33l-.52-.86.52.86zm-.25-3.56l-.39.92.4-.92zm-3.34 6.88l4.1-2.47-1.03-1.71-4.1 2.46 1.03 1.72zm3.74-7.8l-2.56-1.1-.79 1.85 2.56 1.1.79-1.85zm-2.56-2.93l1.86-.8-.78-1.84-1.87.8.8 1.84zm1.86-6.31l-1.86-.8-.79 1.84 1.87.8.78-1.84zm-1.86-2.64l2.56-1.1-.79-1.83-2.56 1.1.8 1.83zm2.92-6.42l-4.1-2.47-1.03 1.72 4.1 2.46 1.03-1.71zm-.36 5.33a3 3 0 0 0 .36-5.33l-1.03 1.71a1 1 0 0 1-.12 1.78l.79 1.84zm-2.56 2.93a1 1 0 0 1 0-1.84l-.79-1.84a3 3 0 0 0 0 5.52l.8-1.84zm1.86 6.31a3 3 0 0 0 0-5.51l-.78 1.84a1 1 0 0 1 0 1.83l.78 1.84zm-1.86 2.64a1 1 0 0 1 0-1.84l-.79-1.84a3 3 0 0 0 0 5.52l.8-1.84zm2.92 6.42a3 3 0 0 0-.36-5.33l-.79 1.84a1 1 0 0 1 .12 1.78l1.03 1.71zm4.18 6.72a1 1 0 1 0 1.03 1.71l-1.03-1.71zm1.03-26.85a1 1 0 0 0-1.03 1.71l1.03-1.71zm.8 20.6l-.4.91.4-.92zm0-3.68l.38.92-.39-.92zm2.79 8.32l-.52-.86.52.86zm-.24-3.55l-.4.92.4-.92zm-3.35 6.87l4.1-2.46-1.03-1.72-4.1 2.47 1.03 1.71zm3.74-7.8l-2.56-1.09-.78 1.84 2.55 1.1.8-1.84zm-2.56-2.92l1.87-.8-.8-1.84-1.85.8.78 1.84zm1.87-6.32l-1.87-.8-.78 1.84 1.86.8.79-1.84zm-1.87-2.63l2.56-1.1-.79-1.84-2.55 1.1.78 1.84zm2.92-6.43l-4.1-2.46-1.03 1.71 4.1 2.47 1.03-1.72zm-.36 5.33a3 3 0 0 0 .36-5.33l-1.03 1.72a1 1 0 0 1-.12 1.77l.8 1.84zm-2.56 2.93a1 1 0 0 1 0-1.83L53 39.12a3 3 0 0 0 0 5.51l.78-1.84zm1.87 6.32a3 3 0 0 0 0-5.52l-.8 1.84a1 1 0 0 1 0 1.84l.8 1.84zm-1.87 2.63a1 1 0 0 1 0-1.83L53 48.07a3 3 0 0 0 0 5.51l.78-1.84zm2.92 6.43a3 3 0 0 0-.36-5.33l-.79 1.84a1 1 0 0 1 .12 1.77l1.03 1.72z" fill="#A01E25"/>
    <ellipse cx="32.7" cy="60.52" rx="3.73" ry="2.24" fill="#A01E25"/>
    <ellipse cx="42.76" cy="60.52" rx="4.47" ry="2.24" fill="#A01E25"/>
    <ellipse cx="52.82" cy="60.52" rx="3.73" ry="2.24" fill="#A01E25"/>
    <path d="M60.26 52.49a1 1 0 1 0 0 2v-2zm-26.53 2a1 1 0 1 0 0-2v2zm35.83 14.57l.64.77-.64-.77zm18.49-15.22l.63.77-.63-.77zm-65.3-.17l.58.82-.58-.82zM1.5 68.93l.59.8-.59-.8zm.59.8L23.33 54.5l-1.16-1.63L.92 68.11l1.17 1.63zM87.4 53.08L68.93 68.29l1.27 1.54 18.48-15.22-1.27-1.54zM68.93 68.29H1.63v2h67.3v-2zm-8.67-13.8h27.66v-2H60.26v2zm-36.93 0h10.4v-2h-10.4v2zm45.6 13.8v2a2 2 0 0 0 1.27-.46l-1.27-1.54zM88.68 54.6a1.2 1.2 0 0 0-.76-2.12v2a.8.8 0 0 1-.51-1.42l1.27 1.54zm-65.35-.12v-2a2 2 0 0 0-1.16.37l1.16 1.63zM.93 68.1a1.2 1.2 0 0 0 .7 2.18v-2a.8.8 0 0 1 .46 1.45L.92 68.1z" fill="#A01E25"/>
</symbol><symbol id="ico-color-icon-mail-c" viewBox="0 0 24 24">
    <path fill-rule="evenodd" clip-rule="evenodd" d="M20 4H4a2 2 0 0 0-1.99 2L2 18c0 1.1.9 2 2 2h16a2 2 0 0 0 2-2V6a2 2 0 0 0-2-2zM4 8l8 5 8-5v10H4V8zm0-2l8 5 8-5H4z" fill="#A01E25"/>
</symbol><symbol id="ico-color-icon-mail" viewBox="0 0 41 41">
    <path fill-rule="evenodd" clip-rule="evenodd" d="M1.38 14.41l5.35-4.16.88 1.14-5.35 4.15c-.52.41-.83 1.04-.83 1.7v19.4c0 1.18.97 2.15 2.16 2.15h32.98c1.2 0 2.15-.97 2.15-2.15v-19.4c0-.66-.3-1.29-.83-1.7l-5.34-4.15.88-1.14 5.34 4.16a3.59 3.59 0 0 1 1.39 2.83v19.4c0 1.98-1.6 3.58-3.59 3.58H3.6A3.59 3.59 0 0 1 0 36.64v-19.4c0-1.1.51-2.15 1.38-2.83zM19.26.48c.49-.35 1.15-.35 1.64 0l3.18 2.22-.83 1.18-3.17-2.23-3.18 2.23-.82-1.18L19.26.48z" fill="#A01E25"/>
    <path fill-rule="evenodd" clip-rule="evenodd" d="M21.4 26.34a2.15 2.15 0 0 0-2.62.02L2.23 39l-.88-1.14L17.9 25.22c1.28-.99 3.07-1 4.36-.02l16.9 12.66-.87 1.14-16.9-12.66zM12.1 25L.64 16.06l.89-1.13L13 23.89a.72.72 0 1 1-.88 1.13zm15.06-1.11l11.11-8.97.9 1.12L28.07 25a.72.72 0 0 1-.9-1.11zM8.61 4.03c-.4 0-.72.31-.72.71V16.2a.72.72 0 0 1-1.44 0V4.74c0-1.2.98-2.16 2.18-2.15l22.95.32c1.18.02 2.12.98 2.12 2.15V16.2a.72.72 0 0 1-1.43 0V5.06c0-.39-.32-.7-.7-.71L8.6 4.03z" fill="#A01E25"/>
    <path d="M21.88 10.98h.7l-.48 2.72c-.06.32-.06.54-.01.68.05.14.17.21.34.21s.34-.04.51-.12c.17-.08.32-.2.45-.37.14-.17.24-.38.32-.63.1-.25.13-.56.13-.9a3 3 0 0 0-.25-1.29c-.16-.35-.4-.64-.69-.87-.29-.24-.63-.4-1.02-.51-.4-.11-.82-.17-1.28-.17a3.74 3.74 0 0 0-2.63 1.06 3.76 3.76 0 0 0-1.05 2.64c0 .52.07.99.23 1.4a2.87 2.87 0 0 0 1.8 1.73 4.54 4.54 0 0 0 2.2.17c.25-.04.48-.11.68-.2l.3.96a3.3 3.3 0 0 1-.84.28 5.62 5.62 0 0 1-2.78-.2 3.84 3.84 0 0 1-2.38-2.2 4.92 4.92 0 0 1-.34-1.9c0-.73.13-1.39.4-1.98a4.59 4.59 0 0 1 2.58-2.46 5.28 5.28 0 0 1 3.56-.07c.54.18 1 .43 1.38.76.4.33.7.74.92 1.22a3.82 3.82 0 0 1 .1 2.83 2.9 2.9 0 0 1-1.55 1.63 2.65 2.65 0 0 1-1.6.19.94.94 0 0 1-.36-.2.8.8 0 0 1-.2-.33 1.28 1.28 0 0 1-.05-.53h-.04a4.67 4.67 0 0 1-.71.78c-.14.1-.3.18-.46.24-.17.06-.35.09-.55.09a1.1 1.1 0 0 1-.47-.1 1.19 1.19 0 0 1-.38-.3 1.54 1.54 0 0 1-.35-1.07 3.67 3.67 0 0 1 .74-2.25c.24-.3.5-.54.8-.72.32-.19.64-.28.98-.28.24 0 .43.04.6.11.15.07.3.16.44.27l.3-.32zm-.64 1.21a1.08 1.08 0 0 0-.27-.17 1 1 0 0 0-.91.11c-.17.12-.31.27-.44.45a2.24 2.24 0 0 0-.38 1.27c0 .21.04.4.13.53.1.14.25.21.47.21.1 0 .2-.02.3-.08.1-.06.21-.13.31-.23a2.74 2.74 0 0 0 .54-.7l.25-1.39z" fill="#A01E25"/>
</symbol><symbol id="ico-color-icon-map" viewBox="0 0 41 40">
    <path fill-rule="evenodd" clip-rule="evenodd" d="M0 11.6c0-1.45 1.4-2.48 2.77-2.06l10.6 3.24c.14.04.29.04.43-.01l6-2 .46 1.36-6 2c-.43.14-.89.14-1.31.01l-10.6-3.23a.72.72 0 0 0-.92.68v22.77c0 .31.2.59.5.68l11.45 3.5c.14.04.29.04.42 0l12.04-3.68c.41-.13.85-.13 1.26 0l10.6 3.24c.46.14.92-.2.92-.68v-22.8c0-.3-.2-.58-.48-.67l-5.47-1.82.46-1.36 5.46 1.82c.87.3 1.47 1.11 1.47 2.03v22.8c0 1.44-1.4 2.47-2.78 2.05l-10.6-3.24a.72.72 0 0 0-.43 0L14.22 39.9c-.4.12-.84.12-1.25 0L1.52 36.4A2.15 2.15 0 0 1 0 34.36V11.59z" fill="#A01E25"/>
    <path fill-rule="evenodd" clip-rule="evenodd" d="M12.88 39.35V13.59h1.43v25.76h-1.43zm12.88-11.81v-7.87h1.43v7.87a.72.72 0 0 1-1.43 0zm.71 2.51c.4 0 .72.32.72.71v4.65h-1.43v-4.65c0-.4.32-.71.71-.71z" fill="#A01E25"/>
    <path fill-rule="evenodd" clip-rule="evenodd" d="M26.47 21.79l13.09 4-.42 1.37-12.67-3.88-12.89 3.94L8 25.36A.72.72 0 0 1 8.45 24l5.15 1.72 12.87-3.93zM5.16 24.65L.5 23.22l.42-1.37 4.65 1.43a.72.72 0 0 1-.42 1.37zm26.89-13.49a9.2 9.2 0 0 0 .86-3.29 6.44 6.44 0 0 0-12.88 0c0 .8.3 1.94.87 3.29a26.52 26.52 0 0 0 4.63 7.2c.37.4.69.68.92.85l.02.01.02-.01c.24-.17.55-.45.93-.85a26.52 26.52 0 0 0 4.63-7.2zm-5.58 9.59c1.79 0 7.87-8.53 7.87-12.88a7.87 7.87 0 0 0-15.74 0c0 4.35 6.08 12.88 7.87 12.88z" fill="#A01E25"/>
    <circle cx="26.47" cy="7.87" r="2.15" fill="#A01E25"/>
</symbol><symbol id="ico-color-icon-optimization" viewBox="0 0 89 80">
    <path d="M3.05 52.15a1 1 0 0 0 .65 1.9l-.65-1.9zm21.3-6.18l.12-.99-.23-.03-.22.08.32.94zm9.46 12.06a1 1 0 1 0 .06 2l-.06-2zM3.7 54.04l20.96-7.12-.64-1.9-20.97 7.13.65 1.9zm20.51-7.07l35.58 4.62.26-1.98-35.58-4.63-.26 1.99zM59.5 57.33l-25.69.7.06 2 25.68-.7-.05-2zm2.76-2.4a2.88 2.88 0 0 1-2.76 2.4l.05 2a4.88 4.88 0 0 0 4.68-4.08l-1.97-.33zm-2.47-3.34a2.88 2.88 0 0 1 2.47 3.33l1.97.33a4.88 4.88 0 0 0-4.18-5.64l-.26 1.98z" fill="#A01E25"/>
    <path d="M1 73.67l10.8-5.23a4 4 0 0 1 3-.2l30.28 10.1a10 10 0 0 0 9.17-1.5l31.33-23.57a3.9 3.9 0 0 0-4.4-6.41L54.3 63.64a3 3 0 0 1-3 .1l-9.55-5.11" stroke="#A01E25" stroke-width="2"/>
    <path d="M58.76 50.33l11.56-4.57a6 6 0 0 1 6.24 1.15l1.59 1.44" stroke="#A01E25" stroke-width="2"/>
    <path d="M41 17.82h1.5v-6.48c.54-.11 1.1-.19 1.67-.24.57-.07 1.17-.1 1.81-.1.66 0 1.3.06 1.9.18a4.2 4.2 0 0 1 1.61.65c.46.31.82.75 1.09 1.3.28.55.42 1.26.42 2.13 0 .8-.14 1.48-.42 2.05-.27.55-.63 1-1.09 1.36-.44.36-.95.61-1.52.77-.58.16-1.16.24-1.76.24h-.69a4.85 4.85 0 0 1-.6-.06v1.14h3.05v1.8H44.9V25h-2.4v-2.45H41v-1.79h1.5v-1.14H41v-1.8zm5.2-4.65c-.26 0-.5.01-.73.04-.23.01-.42.03-.56.06v4.45a4.07 4.07 0 0 0 1.97-.04 1.99 1.99 0 0 0 1.35-1.18c.14-.31.21-.69.21-1.12 0-.8-.2-1.37-.63-1.7a2.49 2.49 0 0 0-1.62-.51z" fill="#A01E25"/>
    <circle cx="46" cy="18" r="17" stroke="#A01E25" stroke-width="2"/>
    <circle cx="35" cy="18" r="1" fill="#A01E25"/>
    <circle cx="57" cy="18" r="1" fill="#A01E25"/>
</symbol><symbol id="ico-color-icon-phone-c" viewBox="0 0 24 24">
    <path fill-rule="evenodd" clip-rule="evenodd" d="M20 15.5c-1.25 0-2.45-.2-3.57-.57a1.02 1.02 0 0 0-1.02.24l-2.2 2.2a15.07 15.07 0 0 1-6.59-6.58l2.2-2.21a.98.98 0 0 0 .25-1.01A11.36 11.36 0 0 1 8.5 4a1 1 0 0 0-1-1H4a1 1 0 0 0-1 1 17 17 0 0 0 17 17 1 1 0 0 0 1-1v-3.5a1 1 0 0 0-1-1zM13 9h-2v2h2V9zm4 0h-2v2h2V9zM6.53 5h-1.5c.09 1.32.35 2.59.76 3.8l1.2-1.21C6.75 6.75 6.6 5.88 6.53 5zM19 18.97a14.9 14.9 0 0 1-3.8-.76l1.2-1.2c.85.24 1.72.39 2.6.45v1.51zM21 11V9h-2v2h2z" fill="#A01E25"/>
</symbol><symbol id="ico-color-icon-phone" viewBox="0 0 40 40">
    <path fill-rule="evenodd" clip-rule="evenodd" d="M28.57 1.43H11.43c-.79 0-1.43.64-1.43 1.43v34.28c0 .8.64 1.43 1.43 1.43h17.14c.8 0 1.43-.64 1.43-1.43V2.86c0-.8-.64-1.43-1.43-1.43zM11.43 0a2.86 2.86 0 0 0-2.86 2.86v34.28A2.86 2.86 0 0 0 11.43 40h17.14a2.86 2.86 0 0 0 2.86-2.86V2.86A2.86 2.86 0 0 0 28.57 0H11.43z" fill="#A01E25"/>
    <path fill-rule="evenodd" clip-rule="evenodd" d="M30.71 6.07H9.3V4.64h21.4v1.43zm0 26.07H9.3v-1.43h21.4v1.43zM16.43 2.86c0-.4.32-.72.71-.72H20a.71.71 0 0 1 0 1.43h-2.86a.71.71 0 0 1-.71-.71zm5.71 0c0-.4.32-.72.72-.72h.71a.71.71 0 1 1 0 1.43h-.71a.71.71 0 0 1-.72-.71zm11.72 2.35a.71.71 0 0 1 .85-1.14l-.42.56.42-.56h.01v.01a1.52 1.52 0 0 1 .1.08c.05.05.13.11.2.2.17.18.39.44.6.79.41.7.8 1.77.8 3.24 0 1.48-.39 2.54-.8 3.25a4.48 4.48 0 0 1-.9 1.06v.01l-.44-.57.43.57a.71.71 0 0 1-.85-1.14h-.01l.02-.01.12-.12c.1-.1.25-.28.4-.53.29-.5.6-1.31.6-2.52 0-1.2-.31-2.01-.6-2.51a3.06 3.06 0 0 0-.52-.65l-.02-.02zm-28.07 0a.71.71 0 0 0-.86-1.14l.42.56-.42-.56-.02.01a1.48 1.48 0 0 0-.09.08 4.48 4.48 0 0 0-.8.99c-.41.7-.8 1.77-.8 3.24 0 1.48.39 2.54.8 3.25a4.48 4.48 0 0 0 .9 1.06v.01l.44-.57-.43.57a.71.71 0 0 0 .86-1.14l-.02-.01a3.06 3.06 0 0 1-.51-.65c-.3-.5-.62-1.31-.62-2.52 0-1.2.32-2.01.62-2.51a3.06 3.06 0 0 1 .53-.67z" fill="#A01E25"/>
    <path fill-rule="evenodd" clip-rule="evenodd" d="M3.4 2.76l-1-.1v.01h-.01a2.31 2.31 0 0 0-.12.1l-.28.3A8.01 8.01 0 0 0 0 8.4 8.01 8.01 0 0 0 2.28 14l.09.09.03.02v.01l.47-.55-.46.55a.71.71 0 0 0 .91-1.1 2.13 2.13 0 0 1-.26-.26 6.58 6.58 0 0 1-1.62-4.37 6.58 6.58 0 0 1 1.83-4.57l.05-.05m.1-1.01c.25.3.2.75-.1 1m.1-1a.71.71 0 0 0-1.01-.1l1 .1zm0 0l-1.01-.1 1 .1zm32.82 0l1-.1v.01h.02a1.8 1.8 0 0 1 .1.1l.29.3a8.01 8.01 0 0 1 2 5.33 8.01 8.01 0 0 1-2.28 5.6l-.09.09-.02.02h-.01v.01l-.46-.55.45.55a.71.71 0 0 1-.91-1.1 2.1 2.1 0 0 0 .26-.26 6.58 6.58 0 0 0 1.62-4.37 6.58 6.58 0 0 0-1.82-4.57 2.1 2.1 0 0 0-.05-.05h-.01m-.1-1.01c-.25.3-.2.75.1 1m-.1-1c.26-.3.71-.35 1.01-.1l-1 .1zm0 0l1.01-.1-1 .1zM20 35.71a.71.71 0 1 0 0-1.42.71.71 0 0 0 0 1.42zm0 1.43a2.14 2.14 0 1 0 0-4.28 2.14 2.14 0 0 0 0 4.28z" fill="#A01E25"/>
</symbol><symbol id="ico-color-icon-points" viewBox="0 0 79 80">
    <path d="M69 9c0 1.05-.38 2.57-1.06 4.31A40.46 40.46 0 0 1 62.47 23a9.59 9.59 0 0 1-1.41 1.44l-.2-.17c-.3-.27-.67-.7-1.11-1.26a40.92 40.92 0 0 1-2.95-4.4 42.5 42.5 0 0 1-2.68-5.3A12.65 12.65 0 0 1 53 9a8 8 0 1 1 16 0zm-8.1 15.51h.01zm.3.02l.02.01h-.02z" stroke="#A01E25" stroke-width="2"/>
    <circle cx="61" cy="9" r="2" stroke="#A01E25" stroke-width="2"/>
    <path d="M29.85 40H8.24a2 2 0 0 0-1.8 1.1L1.22 51.59a2 2 0 0 0-.21.9V75a4 4 0 0 0 4 4h29a4 4 0 0 0 4-4V52.54a2 2 0 0 0-.27-1l-6.15-10.55a2 2 0 0 0-1.73-.99zM1 52h37" stroke="#A01E25" stroke-width="2"/>
    <path d="M17 40l-3 12v6c0 1.1.9 2 2 2h7a2 2 0 0 0 2-2v-6l-4-12" stroke="#A01E25" stroke-width="2"/>
    <path d="M54 26a1 1 0 1 0 0-2v2zM43 78a1 1 0 1 0 0 2v-2zm0 2h1.56v-2H43v2zm4.69 0h3.12v-2H47.7v2zm6.25 0h1.56v-2h-1.56v2zm1.56 0c.78 0 1.55-.04 2.3-.11l-.2-2c-.68.08-1.39.11-2.1.11v2zm6.82-1a23.35 23.35 0 0 0 4.26-1.77l-.94-1.76c-1.23.66-2.54 1.2-3.9 1.61l.58 1.91zm8.09-4.33a23.64 23.64 0 0 0 3.26-3.26l-1.55-1.27c-.9 1.09-1.9 2.09-2.98 2.98l1.27 1.55zm5.82-7.09a23.35 23.35 0 0 0 1.76-4.26l-1.91-.58a21.37 21.37 0 0 1-1.61 3.9l1.76.94zm2.66-8.78c.07-.75.11-1.52.11-2.3h-2c0 .71-.03 1.42-.1 2.1l1.99.2zm.11-2.3c0-.78-.04-1.55-.11-2.3l-2 .2c.08.68.11 1.39.11 2.1h2zm-1-6.82a23.35 23.35 0 0 0-1.77-4.26l-1.76.94c.66 1.23 1.2 2.54 1.61 3.9l1.91-.58zm-4.33-8.09a23.64 23.64 0 0 0-3.26-3.26l-1.27 1.55c1.09.9 2.09 1.9 2.98 2.98l1.55-1.27zm-7.09-5.82a23.35 23.35 0 0 0-4.26-1.76l-.58 1.91c1.36.41 2.67.95 3.9 1.61l.94-1.76zm-8.78-2.66c-.75-.07-1.52-.11-2.3-.11v2c.71 0 1.42.03 2.1.1l.2-1.99zM55.5 33h-2v2h2v-2zm-6 0h-4v2h4v-2zm-8 0h-4v2h4v-2zm-8 0h-2v2h2v-2zm-2 0c-.48 0-.93-.1-1.34-.27l-.77 1.85c.65.27 1.37.42 2.11.42v-2zm-3.23-2.16A3.49 3.49 0 0 1 28 29.5h-2c0 .74.15 1.46.42 2.1l1.85-.76zM28 29.5c0-.48.1-.93.27-1.34l-1.85-.77A5.49 5.49 0 0 0 26 29.5h2zm2.16-3.23c.41-.18.86-.27 1.34-.27v-2c-.74 0-1.46.15-2.1.42l.76 1.85zM31.5 26h1.88v-2H31.5v2zm5.63 0h3.74v-2h-3.74v2zm7.5 0h3.74v-2h-3.74v2zm7.5 0H54v-2h-1.88v2z" fill="#A01E25"/>
</symbol><symbol id="ico-color-icon-potential" viewBox="0 0 128 127">
    <path d="M115.9 29.69l.39.88h7.1c1.58 0 3.11 1.52 3.11 3.54v9.78c0 1.9-1.42 3.25-3.1 3.25h-7.12l-.4.89-.7 1.57c-.7 1.55-1.08 2.4-1.52 3.24a58.68 58.68 0 0 1-2.75 4.45l-.5.75.44.78 3.08 5.66a3.56 3.56 0 0 1-1.16 4.7l-7.98 4.89c-1.43.87-3.3.4-4.19-1.23l-3.03-5.59-.48-.87-.98.1-.94.09c-1.44.14-2.9.28-4.03.28-1.12 0-2.57-.14-4.01-.28l-.95-.1-.99-.09-.47.87-3.04 5.59a2.96 2.96 0 0 1-4.18 1.22l-7.98-4.89a3.56 3.56 0 0 1-1.16-4.69l3.08-5.66.43-.78-.49-.75a58.85 58.85 0 0 1-2.73-4.4c-.45-.86-.85-1.74-1.58-3.38l-.66-1.48-.4-.89H58.6a3.13 3.13 0 0 1-3.11-3.25v-9.78c0-2.02 1.53-3.54 3.1-3.54h7.42l.4-.88a59.66 59.66 0 0 1 2.2-4.64c.42-.75.89-1.47 1.76-2.8l1.01-1.54.49-.75-.43-.78-3.08-5.66a3.56 3.56 0 0 1 1.15-4.7l7.99-4.89c1.43-.87 3.3-.4 4.18 1.23l3.04 5.59.47.87.99-.1.93-.09c1.45-.14 2.9-.28 4.03-.28 1.13 0 2.58.14 4.02.28l.95.1.98.09.48-.87 3.03-5.59a2.96 2.96 0 0 1 4.2-1.22l7.97 4.89a3.56 3.56 0 0 1 1.15 4.69l-3.08 5.66-.42.78.49.75 1.06 1.63a47.54 47.54 0 0 1 1.69 2.67c.55.99 1.04 2.05 2.22 4.68z" stroke="#A01E25" stroke-width="3"/>
    <circle cx="30" cy="8" r="6.5" stroke="#A01E25" stroke-width="3"/>
    <circle cx="91" cy="39" r="6.5" stroke="#A01E25" stroke-width="3"/>
    <circle cx="91" cy="39" r="19.5" stroke="#A01E25" stroke-width="3"/>
    <circle cx="113" cy="101" r="6.5" stroke="#A01E25" stroke-width="3"/>
    <path d="M106.5 100.5V77.25a6.25 6.25 0 1 1 12.5 0V98.5" stroke="#A01E25" stroke-width="3"/>
    <path d="M125.4 108.03a1.5 1.5 0 1 0 2.2-2.06l-2.2 2.06zm-7.5-8l7.5 8 2.2-2.06-7.5-8-2.2 2.06zm7.54 24.53a1.5 1.5 0 0 0 2.12-2.12l-2.12 2.12zm-18-18l18 18 2.12-2.12-18-18-2.12 2.12zM1.5 0a1.5 1.5 0 0 0 0 3V0zM30 3a1.5 1.5 0 0 0 0-3v3zM1.5 3H30V0H1.5v3zm0 10a1.5 1.5 0 0 0 0 3v-3zM30 16a1.5 1.5 0 0 0 0-3v3zM1.5 16H30v-3H1.5v3z" fill="#A01E25"/>
    <path d="M36 6l17.3 17.7a5.9 5.9 0 1 1-8.34 8.34L26 13.5" stroke="#A01E25" stroke-width="3"/>
    <path d="M6.5 55A2.5 2.5 0 0 1 9 52.5h83a2.5 2.5 0 0 1 2.5 2.5v62.5h-88V55z" fill="#F9F9F9" stroke="#A01E25" stroke-width="3"/>
    <path d="M12.5 58.5h76v59h-76v-59z" fill="#F9F9F9" stroke="#A01E25" stroke-width="3"/>
    <path d="M24 70.5a1.5 1.5 0 0 0 0 3v-3zm39 3a1.5 1.5 0 0 0 0-3v3zm-39 0h39v-3H24v3zm0 4a1.5 1.5 0 0 0 0 3v-3zm29 3a1.5 1.5 0 0 0 0-3v3zm-29 0h29v-3H24v3zm0 4a1.5 1.5 0 0 0 0 3v-3zm22 3a1.5 1.5 0 0 0 0-3v3zm-22 0h22v-3H24v3zm27-3a1.5 1.5 0 0 0 0 3v-3zm14 3a1.5 1.5 0 0 0 0-3v3zm-14 0h14v-3H51v3zm-27 4a1.5 1.5 0 0 0 0 3v-3zm14.5 3a1.5 1.5 0 0 0 0-3v3zm-14.5 0h14.5v-3H24v3zm0 4a1.5 1.5 0 0 0 0 3v-3zm33 3a1.5 1.5 0 0 0 0-3v3zm-33 0h33v-3H24v3z" fill="#A01E25"/>
    <path d="M1.5 118.32c0-.45.37-.82.82-.82h96.36c.45 0 .82.36.82.82a7.18 7.18 0 0 1-7.18 7.18H8.68a7.18 7.18 0 0 1-7.18-7.18z" fill="#F9F9F9" stroke="#A01E25" stroke-width="3"/>
    <rect x="18" y="114" width="10" height="5" rx="2.5" fill="#A01E25"/>
    <rect x="32" y="114" width="10" height="5" rx="2.5" fill="#A01E25"/>
    <rect x="46" y="114" width="10" height="5" rx="2.5" fill="#A01E25"/>
    <rect x="60" y="114" width="10" height="5" rx="2.5" fill="#A01E25"/>
    <rect x="74" y="114" width="10" height="5" rx="2.5" fill="#A01E25"/>
</symbol><symbol id="ico-color-icon-production-2" viewBox="0 0 97 97">
    <path fill-rule="evenodd" clip-rule="evenodd" d="M78.61 52.16H63.5a.76.76 0 0 0-.76.75v14.37c0 .41.34.75.76.75h15.1c.42 0 .76-.34.76-.75V52.9a.76.76 0 0 0-.76-.75zM63.5 49.89a3.02 3.02 0 0 0-3.03 3.02v14.37a3.02 3.02 0 0 0 3.03 3.02h15.1a3.02 3.02 0 0 0 3.03-3.02V52.9a3.02 3.02 0 0 0-3.03-3.02H63.5z" fill="#A01E25"/>
    <path fill-rule="evenodd" clip-rule="evenodd" d="M79.84 53.13L63.7 69.25l-1.6-1.6 16.12-16.13 1.6 1.6z" fill="#A01E25"/>
    <path fill-rule="evenodd" clip-rule="evenodd" d="M78.23 69.25L62.11 53.13l1.6-1.6 16.13 16.12-1.6 1.6z" fill="#A01E25"/>
    <path d="M1 4.54A3.54 3.54 0 0 1 4.54 1h87.68a3.54 3.54 0 0 1 0 7.07H4.54A3.54 3.54 0 0 1 1 4.54z" stroke="#A01E25" stroke-width="2"/>
    <path d="M1 38.02a3 3 0 0 1 3-3h47.94a3 3 0 0 1 3 3V89.7H1V38z" fill="#F9F9F9" stroke="#A01E25" stroke-width="2"/>
    <path d="M6 33a3 3 0 0 1 3-3h38a3 3 0 0 1 3 3v2H6v-2zM1 89.44h53.94V92a3 3 0 0 1-3 3H4a3 3 0 0 1-3-3v-2.56z" stroke="#A01E25" stroke-width="2"/>
    <path d="M32 66a3 3 0 0 1 3-3h11a3 3 0 0 1 3 3v23.5H32V66z" stroke="#A01E25" stroke-width="2"/>
    <path d="M36.28 68.54a1 1 0 1 0 0 2v-2zm8.32 2a1 1 0 0 0 0-2v2zm-8.32 0h8.32v-2h-8.32v2zm0 1.03a1 1 0 1 0 0 2v-2zm8.32 2a1 1 0 0 0 0-2v2zm-8.32 0h8.32v-2h-8.32v2zm0 1.03a1 1 0 0 0 0 2v-2zm8.32 2a1 1 0 0 0 0-2v2zm-8.32 0h8.32v-2h-8.32v2z" fill="#A01E25"/>
    <path d="M8.56 45.57a3 3 0 0 1 3-3h10.9a3 3 0 0 1 3 3v11.66a3 3 0 0 1-3 3h-10.9a3 3 0 0 1-3-3V45.57zm.14 10.37h16.62" stroke="#A01E25" stroke-width="2"/>
    <path d="M55.94 68.54a1 1 0 1 0 0 2v-2zm39.3 2a1 1 0 1 0 0-2v2zm-39.3 0h39.3v-2h-39.3v2zm0 10.1a1 1 0 1 0 0 2v-2zm39.3 2a1 1 0 1 0 0-2v2zm-39.3 0h39.3v-2h-39.3v2z" fill="#A01E25"/>
    <circle cx="66.52" cy="75.59" r="1.51" fill="#A01E25"/>
    <circle cx="88.44" cy="75.59" r="5.8" stroke="#A01E25" stroke-width="2"/>
    <circle cx="88.44" cy="75.59" r="1.51" fill="#A01E25"/>
    <path d="M63.74 84.66a2.78 2.78 0 0 1 5.56 0v7.56a2.78 2.78 0 1 1-5.56 0v-7.56zm21.92.12a2.78 2.78 0 0 1 5.56 0v7.56a2.78 2.78 0 0 1-5.56 0v-7.56z" stroke="#A01E25" stroke-width="2"/>
    <circle cx="66.52" cy="75.59" r="5.8" stroke="#A01E25" stroke-width="2"/>
    <rect x="63.74" y="1" width="14.25" height="12.9" rx="1" fill="#F9F9F9" stroke="#A01E25" stroke-width="2"/>
    <circle cx="71.04" cy="6.94" r="1.52" fill="#A01E25"/>
</symbol><symbol id="ico-color-icon-production" viewBox="0 0 128 127">
    <rect x="1.5" y="45.02" width="73" height="50.43" rx="2.5" stroke="#A01E25" stroke-width="3"/>
    <mask id="a" fill="#fff">
        <rect y="116.98" width="76" height="10.02" rx="2"/>
    </mask>
    <rect y="116.98" width="76" height="10.02" rx="2" stroke="#A01E25" stroke-width="6" mask="url(#a)"/>
    <path d="M7.34 35a2.5 2.5 0 0 1 2.5-2.5h57a2.5 2.5 0 0 1 2.5 2.5v9.53h-62V35zM1 72h74M2 63h72M2 52h72m-63-.43v10.97m8.86-10.97v10.97m8.85-10.97v10.97m8.86-10.97v10.97m8.86-10.97v10.97m8.86-10.97v10.97m8.85-10.97v10.97M5.67 95.94h7.86V118H5.67V95.94zm55.83 0h7.85v22.04H61.5z" stroke="#A01E25" stroke-width="3"/>
    <circle cx="11.66" cy="85.17" r="3.3" stroke="#A01E25" stroke-width="3"/>
    <circle cx="64.26" cy="85.17" r="3.3" stroke="#A01E25" stroke-width="3"/>
    <circle cx="49.86" cy="84.49" r="1.37" fill="#A01E25"/>
    <mask id="b" fill="#fff">
        <rect x="43" y="77.63" width="13.71" height="13.71" rx="2"/>
    </mask>
    <rect x="43" y="77.63" width="13.71" height="13.71" rx="2" stroke="#A01E25" stroke-width="6" mask="url(#b)"/>
    <path d="M86.27 28.17L107.8 1.84c.14-.17.42-.02.35.2l-6.62 19.83a.1.1 0 0 0 .1.13h19.43c.17 0 .26.2.15.33l-23 27.3c-.14.18-.41.02-.33-.19l7.56-20.8a.1.1 0 0 0-.1-.14H86.43a.2.2 0 0 1-.15-.33z" stroke="#A01E25" stroke-width="3"/>
    <path d="M98.66 4.47a1.5 1.5 0 0 0-.6-2.94l.6 2.94zM114 3.63a1.5 1.5 0 1 0-1.35 2.68L114 3.63zm-6.66 42.9a1.5 1.5 0 1 0 .6 2.94l-.6-2.94zM92 47.37a1.5 1.5 0 0 0 1.35-2.68L92 47.37zM81.5 25.5A21.48 21.48 0 0 1 98.66 4.47l-.6-2.94A24.48 24.48 0 0 0 78.5 25.5h3zm31.15-19.19A21.47 21.47 0 0 1 124.5 25.5h3c0-9.57-5.5-17.85-13.5-21.87l-1.35 2.68zM124.5 25.5a21.48 21.48 0 0 1-17.16 21.03l.6 2.94A24.48 24.48 0 0 0 127.5 25.5h-3zM93.35 44.69A21.47 21.47 0 0 1 81.5 25.5h-3c0 9.57 5.5 17.85 13.5 21.87l1.35-2.68z" fill="#A01E25"/>
    <path d="M117.5 43c8 8 11 27.16-6.5 33.5-9.67 3.5-27.5-8.5-36.5 10" stroke="#A01E25" stroke-width="3"/>
</symbol><symbol id="ico-color-icon-view" viewBox="0 0 41 40">
    <path fill-rule="evenodd" clip-rule="evenodd" d="M20 6.67A6.66 6.66 0 1 0 20 20a6.66 6.66 0 0 0 0-13.33zm3.33 6.66c0-1.83-1.5-3.33-3.33-3.33a3.34 3.34 0 0 0-3.33 3.33c0 1.84 1.5 3.34 3.33 3.34s3.33-1.5 3.33-3.34zM30 30c-.33-1.18-5.5-3.33-10-3.33-4.48 0-9.62 2.13-10 3.33h20zM6.67 30c0-4.43 8.88-6.67 13.33-6.67 4.45 0 13.33 2.24 13.33 6.67v3.33H6.67V30z" fill="#000" fill-opacity=".54"/>
    <path d="M32.54 13.6c-.1-.9-.05-1.67.13-2.3a5.69 5.69 0 0 1 1.74-2.83l1.09-.99c.35-.31.63-.63.86-.96.22-.35.34-.75.34-1.22 0-.6-.18-1.1-.52-1.46-.33-.36-.93-.54-1.8-.54-.28 0-.57.03-.88.1-.31.05-.63.14-.94.26-.31.1-.61.23-.9.39-.29.14-.54.29-.76.44L29.6 2A9.5 9.5 0 0 1 31.86.89c.87-.3 1.9-.44 3.12-.44 1.63 0 2.9.4 3.82 1.2a3.94 3.94 0 0 1 1.38 3.16 5.37 5.37 0 0 1-2.37 4.76c-.41.31-.8.65-1.14 1.02a3.89 3.89 0 0 0-1.25 3.02h-2.88zm-.52 3.68c0-.6.19-1.08.57-1.43a2.1 2.1 0 0 1 1.5-.54c.66 0 1.18.18 1.57.54.38.35.57.83.57 1.43 0 .61-.2 1.1-.57 1.46-.39.36-.9.55-1.56.55a2.1 2.1 0 0 1-1.51-.55 1.92 1.92 0 0 1-.57-1.46z" fill="#6F6F6F"/>
</symbol><symbol id="ico-color-left-arrow" viewBox="0 0 59 12">
    <path d="M2 5.5a.5.5 0 0 0 0 1v-1zm56 1a.5.5 0 0 0 0-1v1zm-56 0h56v-1H2v1z" fill="#BDBDBD"/>
    <path d="M6.84 1.37a.5.5 0 0 0-.68-.74l.68.74zM1 6l-.34-.37-.4.37.4.37L1 6zm5.16 5.37a.5.5 0 0 0 .68-.74l-.68.74zm0-10.74l-5.5 5 .68.74 5.5-5-.68-.74zM.66 6.37l5.5 5 .68-.74-5.5-5-.68.74z" fill="#BDBDBD"/>
</symbol><symbol id="ico-color-right-arrow" viewBox="0 0 59 12">
    <path d="M1 5.5a.5.5 0 0 0 0 1v-1zm0 1h56v-1H1v1z" fill="#202020"/>
    <path d="M51.66 10.63a.5.5 0 1 0 .68.74l-.68-.74zM57.5 6l.34.37.4-.37-.4-.37-.34.37zM52.34.63a.5.5 0 1 0-.68.74l.68-.74zm0 10.74l5.5-5-.68-.74-5.5 5 .68.74zm5.5-5.74l-5.5-5-.68.74 5.5 5 .68-.74z" fill="#202020"/>
</symbol></svg>